WreatheSystem-Regular-test.sfdir
StartChar: uni0002
Encoding: 2 2 5
Width: 790
Flags: W
LayerCount: 2
Fore
SplineSet
319 403 m 1,0,-1
 432 403 l 1,1,-1
 461 403 l 1,2,-1
 471 402 l 1,3,-1
 476 389 l 1,4,-1
 486 352 l 1,5,6
 474 352 474 352 473 353 c 2,7,-1
 467 362 l 2,8,9
 459 378 459 378 453 382 c 0,10,11
 449 385 449 385 442 386 c 128,-1,12
 435 387 435 387 425 386 c 128,-1,13
 415 385 415 385 413 385 c 2,14,-1
 413 285 l 2,15,16
 413 281 413 281 412.5 270.5 c 128,-1,17
 412 260 412 260 412 252 c 128,-1,18
 412 244 412 244 414 237 c 0,19,20
 418 223 418 223 439 223 c 1,21,-1
 439 213 l 1,22,-1
 352 213 l 1,23,-1
 352 223 l 1,24,25
 374 223 374 223 377 238 c 0,26,27
 378 244 378 244 378.5 252.5 c 128,-1,28
 379 261 379 261 378.5 271 c 128,-1,29
 378 281 378 281 378 286 c 2,30,-1
 378 385 l 2,31,32
 376 385 376 385 366 386 c 128,-1,33
 356 387 356 387 350 386 c 0,34,35
 343 384 343 384 338 382 c 0,36,37
 331 378 331 378 324 362 c 0,38,39
 319 353 319 353 318 353 c 0,40,41
 317 352 317 352 305 352 c 1,42,-1
 319 403 l 1,0,-1
500 187 m 1,43,-1
 589 187 l 1,44,-1
 589 178 l 1,45,46
 577 178 577 178 574 175 c 0,47,48
 568 170 568 170 575 158 c 0,49,50
 576 157 576 157 585.5 141.5 c 128,-1,51
 595 126 595 126 598 118 c 1,52,-1
 599 118 l 1,53,54
 602 126 602 126 613 139 c 128,-1,55
 624 152 624 152 627 159 c 0,56,57
 633 171 633 171 629 175 c 0,58,59
 627 176 627 176 615 177 c 1,60,-1
 615 187 l 1,61,-1
 690 187 l 1,62,-1
 690 178 l 1,63,64
 681 178 681 178 673 175 c 128,-1,65
 665 172 665 172 658.5 165 c 128,-1,66
 652 158 652 158 648 153 c 128,-1,67
 644 148 644 148 637 137.5 c 128,-1,68
 630 127 630 127 627 123 c 0,69,70
 626 122 626 122 621.5 116.5 c 128,-1,71
 617 111 617 111 614 106.5 c 128,-1,72
 611 102 611 102 611 99 c 0,73,74
 611 95 611 95 614 89.5 c 128,-1,75
 617 84 617 84 621.5 77.5 c 128,-1,76
 626 71 626 71 627 70 c 2,77,-1
 649 33 l 2,78,79
 660 14 660 14 668 10 c 0,80,81
 671 9 671 9 686 8 c 1,82,-1
 686 -2 l 1,83,-1
 598 -2 l 1,84,-1
 598 7 l 1,85,86
 610 7 610 7 612 9 c 0,87,88
 618 14 618 14 611 27 c 0,89,90
 610 28 610 28 600.5 43.5 c 128,-1,91
 591 59 591 59 589 67 c 1,92,-1
 587 67 l 1,93,94
 584 58 584 58 572.5 43 c 128,-1,95
 561 28 561 28 560 27 c 0,96,97
 552 15 552 15 558 9 c 0,98,99
 560 8 560 8 571 8 c 1,100,-1
 571 -2 l 1,101,-1
 497 -2 l 1,102,-1
 497 7 l 1,103,104
 506 7 506 7 513.5 10 c 128,-1,105
 521 13 521 13 528 20 c 2,106,-1
 539 32 l 2,107,108
 543 37 543 37 550 48 c 2,109,-1
 560 62 l 2,110,111
 561 64 561 64 565.5 69 c 128,-1,112
 570 74 570 74 573 78 c 128,-1,113
 576 82 576 82 576 86 c 0,114,115
 576 88 576 88 572 94 c 2,116,-1
 560 114 l 1,117,-1
 538 153 l 2,118,119
 528 171 528 171 518 176 c 0,120,121
 515 177 515 177 500 177 c 1,122,-1
 500 187 l 1,43,-1
149 492 m 1,123,124
 152 455 152 455 181 447 c 0,125,126
 194 442 194 442 211.5 447 c 128,-1,127
 229 452 229 452 229.5 468.5 c 128,-1,128
 230 485 230 485 207 499 c 0,129,130
 201 503 201 503 186.5 510.5 c 128,-1,131
 172 518 172 518 162 525 c 128,-1,132
 152 532 152 532 144 541 c 0,133,134
 125 566 125 566 140 591 c 128,-1,135
 155 616 155 616 185 619 c 0,136,137
 199 620 199 620 212 616 c 2,138,-1
 219 613 l 2,139,140
 226 610 226 610 229.5 610 c 128,-1,141
 233 610 233 610 234.5 613.5 c 128,-1,142
 236 617 236 617 237 618 c 128,-1,143
 238 619 238 619 250 619 c 1,144,-1
 250 553 l 1,145,-1
 236 553 l 1,146,147
 231 589 231 589 210 598 c 0,148,149
 196 605 196 605 179 598.5 c 128,-1,150
 162 592 162 592 165 574 c 0,151,152
 167 561 167 561 193 545 c 0,153,154
 198 542 198 542 206 538 c 2,155,-1
 218 531 l 2,156,157
 224 528 224 528 231.5 523.5 c 128,-1,158
 239 519 239 519 243 515 c 2,159,-1
 252 506 l 2,160,161
 258 500 258 500 259 494 c 2,162,-1
 262 481 l 2,163,164
 263 473 263 473 259 465 c 0,165,166
 253 444 253 444 232.5 434.5 c 128,-1,167
 212 425 212 425 189 428 c 0,168,169
 186 428 186 428 180 430 c 2,170,-1
 170 434 l 2,171,172
 166 435 166 435 161 435.5 c 128,-1,173
 156 436 156 436 153 434 c 128,-1,174
 150 432 150 432 149 427 c 1,175,-1
 135 427 l 1,176,-1
 135 492 l 1,177,-1
 149 492 l 1,123,124
EndSplineSet
EndChar
StartChar: uni0004
Encoding: 4 4 7
Width: 790
Flags: W
LayerCount: 2
Fore
SplineSet
517 187 m 1,0,-1
 629 187 l 1,1,-1
 658 187 l 1,2,-1
 669 186 l 1,3,-1
 674 173 l 1,4,-1
 684 136 l 1,5,6
 672 136 672 136 670 137 c 2,7,-1
 665 147 l 2,8,9
 657 163 657 163 650 167 c 0,10,11
 646 170 646 170 639.5 170.5 c 128,-1,12
 633 171 633 171 623 170.5 c 128,-1,13
 613 170 613 170 611 170 c 2,14,-1
 611 70 l 2,15,16
 611 66 611 66 610 55.5 c 128,-1,17
 609 45 609 45 609.5 36.5 c 128,-1,18
 610 28 610 28 612 22 c 0,19,20
 616 8 616 8 637 8 c 1,21,-1
 637 -2 l 1,22,-1
 549 -2 l 1,23,-1
 549 7 l 1,24,25
 571 7 571 7 575 23 c 0,26,27
 576 29 576 29 576.5 37 c 128,-1,28
 577 45 577 45 576.5 55.5 c 128,-1,29
 576 66 576 66 576 70 c 2,30,-1
 576 170 l 2,31,32
 574 170 574 170 564 170.5 c 128,-1,33
 554 171 554 171 547 170.5 c 128,-1,34
 540 170 540 170 536 167 c 0,35,36
 529 163 529 163 521 147 c 0,37,38
 516 138 516 138 516 137 c 0,39,40
 515 136 515 136 503 136 c 1,41,-1
 517 187 l 1,0,-1
389 386 m 0,42,43
 365 383 365 383 351 354 c 0,44,45
 329 311 329 311 349 266 c 0,46,47
 366 226 366 226 401 230 c 0,48,49
 425 233 425 233 439 261 c 0,50,51
 461 305 461 305 441 351 c 0,52,53
 434 368 434 368 420 378 c 128,-1,54
 406 388 406 388 389 386 c 0,42,43
386 403 m 0,55,56
 399 405 399 405 417 402 c 0,57,58
 451 396 451 396 469 367 c 128,-1,59
 487 338 487 338 486 305.5 c 128,-1,60
 485 273 485 273 465 245.5 c 128,-1,61
 445 218 445 218 411 213 c 0,62,63
 384 209 384 209 363 217 c 0,64,65
 332 228 332 228 316.5 258.5 c 128,-1,66
 301 289 301 289 306 323 c 128,-1,67
 311 357 311 357 333 380 c 0,68,69
 352 398 352 398 386 403 c 0,55,56
111 618 m 1,70,-1
 229 618 l 1,71,-1
 258 618 l 1,72,-1
 270 617 l 1,73,-1
 275 603 l 1,74,-1
 286 567 l 1,75,76
 273 567 273 567 271 568 c 2,77,-1
 266 578 l 2,78,79
 256 597 256 597 249 599 c 0,80,81
 246 600 246 600 224 600 c 2,82,-1
 172 600 l 1,83,-1
 172 532 l 1,84,-1
 213 532 l 2,85,86
 229 532 229 532 235 541 c 0,87,88
 238 545 238 545 237 558 c 1,89,-1
 251 558 l 1,90,-1
 251 488 l 1,91,-1
 237 488 l 1,92,93
 237 501 237 501 235 506 c 0,94,95
 229 515 229 515 213 514 c 2,96,-1
 172 514 l 1,97,-1
 172 446 l 1,98,-1
 224 446 l 2,99,100
 246 446 246 446 249 447 c 0,101,102
 257 450 257 450 266 469 c 2,103,-1
 271 478 l 2,104,105
 272 479 272 479 285 479 c 1,106,-1
 274 443 l 1,107,-1
 269 429 l 1,108,-1
 258 428 l 1,109,-1
 228 428 l 1,110,-1
 111 428 l 1,111,-1
 111 438 l 1,112,113
 131 438 131 438 136 451 c 0,114,115
 138 456 138 456 138 462.5 c 128,-1,116
 138 469 138 469 137.5 478.5 c 128,-1,117
 137 488 137 488 137 491 c 2,118,-1
 137 562 l 2,119,120
 137 564 137 564 137.5 572 c 128,-1,121
 138 580 138 580 137.5 585.5 c 128,-1,122
 137 591 137 591 136 595 c 0,123,124
 133 603 133 603 127 605.5 c 128,-1,125
 121 608 121 608 111 608 c 1,126,-1
 111 618 l 1,70,-1
EndSplineSet
EndChar
StartChar: uni0007
Encoding: 7 7 10
Width: 790
Flags: W
LayerCount: 2
Fore
SplineSet
308 403 m 1,0,-1
 426 403 l 1,1,-1
 456 403 l 1,2,-1
 468 402 l 1,3,-1
 472 389 l 1,4,-1
 483 352 l 1,5,6
 471 352 471 352 469 353 c 2,7,-1
 464 362 l 2,8,9
 454 381 454 381 446 384 c 0,10,11
 443 385 443 385 422 385 c 2,12,-1
 370 385 l 1,13,-1
 370 317 l 1,14,-1
 410 317 l 2,15,16
 426 317 426 317 432 324 c 0,17,18
 435 328 435 328 435 343 c 1,19,-1
 449 343 l 1,20,-1
 449 273 l 1,21,-1
 435 273 l 1,22,23
 435 287 435 287 432 291 c 0,24,25
 426 299 426 299 410 299 c 2,26,-1
 370 299 l 1,27,-1
 370 230 l 1,28,-1
 422 230 l 2,29,30
 444 230 444 230 446 232 c 0,31,32
 454 235 454 235 464 253 c 0,33,34
 469 262 469 262 469 263 c 0,35,36
 470 264 470 264 483 264 c 1,37,-1
 472 227 l 1,38,-1
 468 214 l 1,39,-1
 456 213 l 1,40,-1
 426 213 l 1,41,-1
 308 213 l 1,42,-1
 308 223 l 1,43,44
 329 223 329 223 334 237 c 0,45,46
 335 241 335 241 335.5 246.5 c 128,-1,47
 336 252 336 252 335.5 259.5 c 128,-1,48
 335 267 335 267 335 270 c 2,49,-1
 335 340 l 2,50,51
 335 343 335 343 335.5 352.5 c 128,-1,52
 336 362 336 362 335.5 368.5 c 128,-1,53
 335 375 335 375 334 380 c 0,54,55
 331 388 331 388 325 390 c 128,-1,56
 319 392 319 392 308 392 c 1,57,-1
 308 403 l 1,0,-1
506 187 m 1,58,-1
 594 187 l 1,59,-1
 594 178 l 1,60,61
 572 178 572 178 568 162 c 0,62,63
 567 156 567 156 567 147.5 c 128,-1,64
 567 139 567 139 567.5 129 c 128,-1,65
 568 119 568 119 568 114 c 2,66,-1
 568 15 l 1,67,-1
 620 15 l 2,68,69
 642 15 642 15 644 16 c 0,70,71
 652 19 652 19 662 38 c 0,72,73
 667 47 667 47 667 48 c 0,74,75
 668 49 668 49 680 49 c 1,76,-1
 670 12 l 1,77,-1
 665 -1 l 1,78,-1
 653 -2 l 1,79,-1
 622 -2 l 1,80,-1
 506 -2 l 1,81,-1
 506 7 l 1,82,83
 527 7 527 7 532 21 c 0,84,85
 533 25 533 25 533.5 31 c 128,-1,86
 534 37 534 37 533.5 44.5 c 128,-1,87
 533 52 533 52 533 55 c 2,88,-1
 533 125 l 2,89,90
 533 128 533 128 533.5 137 c 128,-1,91
 534 146 534 146 533.5 153 c 128,-1,92
 533 160 533 160 531 165 c 0,93,94
 528 173 528 173 522.5 175 c 128,-1,95
 517 177 517 177 506 177 c 1,96,-1
 506 187 l 1,58,-1
173 535 m 1,97,98
 199 532 199 532 207 532 c 0,99,100
 219 534 219 534 228 538 c 0,101,102
 241 545 241 545 243 562 c 128,-1,103
 245 579 245 579 235 589 c 0,104,105
 224 600 224 600 198 600 c 0,106,107
 177 600 177 600 174 596 c 0,108,109
 173 595 173 595 173 579 c 2,110,-1
 173 535 l 1,97,98
173 512 m 1,111,-1
 173 467 l 2,112,113
 173 451 173 451 174 450 c 0,114,115
 177 447 177 447 199 447 c 0,116,117
 229 447 229 447 241 457 c 0,118,119
 253 468 253 468 250 485 c 128,-1,120
 247 502 247 502 233 508 c 0,121,122
 225 512 225 512 209 514 c 0,123,124
 200 515 200 515 173 512 c 1,111,-1
111 618 m 1,125,126
 120 618 120 618 140.5 618.5 c 128,-1,127
 161 619 161 619 176.5 619 c 128,-1,128
 192 619 192 619 207 617 c 0,129,130
 240 614 240 614 250 609 c 0,131,132
 276 596 276 596 277.5 569 c 128,-1,133
 279 542 279 542 256 525 c 1,134,135
 283 514 283 514 284.5 483 c 128,-1,136
 286 452 286 452 260 439 c 0,137,138
 248 433 248 433 214 429 c 0,139,140
 199 428 199 428 182 427.5 c 128,-1,141
 165 427 165 427 143 427.5 c 128,-1,142
 121 428 121 428 111 428 c 1,143,-1
 111 438 l 1,144,145
 132 438 132 438 136 451 c 0,146,147
 137 455 137 455 137.5 461 c 128,-1,148
 138 467 138 467 137.5 474.5 c 128,-1,149
 137 482 137 482 137 484 c 2,150,-1
 137 557 l 2,151,152
 137 560 137 560 137.5 569 c 128,-1,153
 138 578 138 578 138 584.5 c 128,-1,154
 138 591 138 591 136 596 c 0,155,156
 133 604 133 604 127.5 606 c 128,-1,157
 122 608 122 608 111 608 c 1,158,-1
 111 618 l 1,125,126
EndSplineSet
EndChar
StartChar: uni000E
Encoding: 14 14 14
Width: 790
Flags: W
LayerCount: 2
Fore
SplineSet
475 278 m 0,0,1
 451 274 451 274 438 244 c 0,2,3
 418 197 418 197 439 155 c 0,4,5
 458 117 458 117 492 123 c 0,6,7
 511 126 511 126 525 150 c 0,8,9
 538 171 538 171 538.5 197.5 c 128,-1,10
 539 224 539 224 528 245 c 0,11,12
 509 284 509 284 475 278 c 0,0,1
469 295 m 0,13,14
 490 298 490 298 511 292 c 0,15,16
 544 283 544 283 560 254 c 128,-1,17
 576 225 576 225 573.5 194 c 128,-1,18
 571 163 571 163 551 136.5 c 128,-1,19
 531 110 531 110 497 105 c 0,20,21
 476 102 476 102 456 108 c 0,22,23
 423 117 423 117 407 146 c 128,-1,24
 391 175 391 175 393.5 206 c 128,-1,25
 396 237 396 237 416 263.5 c 128,-1,26
 436 290 436 290 469 295 c 0,13,14
346 512 m 1,27,-1
 359 512 l 1,28,-1
 359 446 l 1,29,-1
 346 446 l 1,30,31
 339 482 339 482 322 489 c 0,32,33
 308 497 308 497 289.5 491 c 128,-1,34
 271 485 271 485 275 466 c 0,35,36
 276 460 276 460 281.5 454 c 128,-1,37
 287 448 287 448 289 446.5 c 128,-1,38
 291 445 291 445 301 439 c 2,39,-1
 324 426 l 2,40,41
 343 415 343 415 351.5 408.5 c 128,-1,42
 360 402 360 402 367 389 c 128,-1,43
 374 376 374 376 370 360 c 0,44,45
 364 338 364 338 344 328 c 128,-1,46
 324 318 324 318 300 320 c 0,47,48
 297 320 297 320 291.5 322 c 128,-1,49
 286 324 286 324 281 325.5 c 128,-1,50
 276 327 276 327 271 328 c 128,-1,51
 266 329 266 329 263 327 c 128,-1,52
 260 325 260 325 259 319 c 1,53,-1
 245 319 l 1,54,-1
 245 385 l 1,55,-1
 259 385 l 1,56,57
 260 368 260 368 269 355 c 128,-1,58
 278 342 278 342 294 339 c 0,59,60
 310 335 310 335 325 341 c 128,-1,61
 340 347 340 347 339 363 c 0,62,63
 339 371 339 371 333.5 378 c 128,-1,64
 328 385 328 385 323.5 388 c 128,-1,65
 319 391 319 391 309 396 c 0,66,67
 306 398 306 398 299 402 c 128,-1,68
 292 406 292 406 288 408.5 c 128,-1,69
 284 411 284 411 277 415 c 128,-1,70
 270 419 270 419 266 422.5 c 128,-1,71
 262 426 262 426 257 431 c 128,-1,72
 252 436 252 436 249.5 440.5 c 128,-1,73
 247 445 247 445 245 451 c 128,-1,74
 243 457 243 457 243.5 463.5 c 128,-1,75
 244 470 244 470 246 477 c 0,76,77
 252 496 252 496 269.5 504 c 128,-1,78
 287 512 287 512 308 511 c 0,79,80
 317 510 317 510 331 505 c 0,81,82
 339 502 339 502 342 502 c 0,83,84
 344 504 344 504 346 512 c 1,27,-1
EndSplineSet
EndChar
StartChar: uni000F
Encoding: 15 15 15
Width: 790
Flags: W
LayerCount: 2
Fore
SplineSet
439 295 m 1,0,-1
 527 295 l 1,1,-1
 527 285 l 1,2,3
 507 285 507 285 502 272 c 0,4,5
 500 268 500 268 500 262 c 128,-1,6
 500 256 500 256 500.5 248.5 c 128,-1,7
 501 241 501 241 501 238 c 2,8,-1
 501 168 l 2,9,10
 501 165 501 165 500.5 156 c 128,-1,11
 500 147 500 147 500 140.5 c 128,-1,12
 500 134 500 134 502 128 c 0,13,14
 507 115 507 115 527 115 c 1,15,-1
 527 106 l 1,16,-1
 439 106 l 1,17,-1
 439 115 l 1,18,19
 459 115 459 115 464 128 c 0,20,21
 466 133 466 133 466.5 139.5 c 128,-1,22
 467 146 467 146 466.5 155 c 128,-1,23
 466 164 466 164 466 167 c 2,24,-1
 466 238 l 2,25,26
 466 240 466 240 466.5 248.5 c 128,-1,27
 467 257 467 257 466.5 262.5 c 128,-1,28
 466 268 466 268 464 273 c 0,29,30
 459 285 459 285 439 285 c 1,31,-1
 439 295 l 1,0,-1
346 512 m 1,32,-1
 359 512 l 1,33,-1
 359 446 l 1,34,-1
 346 446 l 1,35,36
 339 482 339 482 322 489 c 0,37,38
 308 497 308 497 289.5 491 c 128,-1,39
 271 485 271 485 275 466 c 0,40,41
 276 460 276 460 281.5 454 c 128,-1,42
 287 448 287 448 289 446.5 c 128,-1,43
 291 445 291 445 301 439 c 2,44,-1
 324 426 l 2,45,46
 343 415 343 415 351.5 408.5 c 128,-1,47
 360 402 360 402 367 389 c 128,-1,48
 374 376 374 376 370 360 c 0,49,50
 364 338 364 338 344 328 c 128,-1,51
 324 318 324 318 300 320 c 0,52,53
 297 320 297 320 291.5 322 c 128,-1,54
 286 324 286 324 281 325.5 c 128,-1,55
 276 327 276 327 271 328 c 128,-1,56
 266 329 266 329 263 327 c 128,-1,57
 260 325 260 325 259 319 c 1,58,-1
 245 319 l 1,59,-1
 245 385 l 1,60,-1
 259 385 l 1,61,62
 260 368 260 368 269 355 c 128,-1,63
 278 342 278 342 294 339 c 0,64,65
 310 335 310 335 325 341 c 128,-1,66
 340 347 340 347 339 363 c 0,67,68
 339 371 339 371 333.5 378 c 128,-1,69
 328 385 328 385 323.5 388 c 128,-1,70
 319 391 319 391 309 396 c 0,71,72
 306 398 306 398 299 402 c 128,-1,73
 292 406 292 406 288 408.5 c 128,-1,74
 284 411 284 411 277 415 c 128,-1,75
 270 419 270 419 266 422.5 c 128,-1,76
 262 426 262 426 257 431 c 128,-1,77
 252 436 252 436 249.5 440.5 c 128,-1,78
 247 445 247 445 245 451 c 128,-1,79
 243 457 243 457 243.5 463.5 c 128,-1,80
 244 470 244 470 246 477 c 0,81,82
 252 496 252 496 269.5 504 c 128,-1,83
 287 512 287 512 308 511 c 0,84,85
 317 510 317 510 331 505 c 0,86,87
 339 502 339 502 342 502 c 0,88,89
 344 504 344 504 346 512 c 1,32,-1
EndSplineSet
EndChar
StartChar: uni0012
Encoding: 18 18 18
Width: 790
Flags: W
LayerCount: 2
Fore
SplineSet
469 254 m 1,0,1
 474 245 474 245 475 245 c 1,2,3
 475 242 475 242 463 232 c 0,4,5
 442 214 442 214 417 212 c 0,6,7
 363 208 363 208 332.5 253 c 128,-1,8
 302 298 302 298 323 347 c 0,9,10
 334 372 334 372 356.5 387.5 c 128,-1,11
 379 403 379 403 406 404 c 0,12,13
 422 404 422 404 433 400 c 0,14,15
 435 399 435 399 438.5 397.5 c 128,-1,16
 442 396 442 396 445 395 c 128,-1,17
 448 394 448 394 451 394 c 0,18,19
 457 395 457 395 457 404 c 1,20,-1
 471 404 l 1,21,-1
 471 339 l 1,22,-1
 457 339 l 1,23,24
 457 369 457 369 429.5 381 c 128,-1,25
 402 393 402 393 380 375 c 0,26,27
 357 357 357 357 352 324.5 c 128,-1,28
 347 292 347 292 360 267 c 0,29,30
 381 224 381 224 421 230 c 0,31,32
 439 233 439 233 454 242 c 0,33,34
 456 243 456 243 461 247.5 c 128,-1,35
 466 252 466 252 469 254 c 1,0,1
534 131 m 1,36,37
 537 165 537 165 560 180 c 128,-1,38
 583 195 583 195 610 185 c 128,-1,39
 637 175 637 175 644 149 c 0,40,41
 650 126 650 126 633 97 c 0,42,43
 628 89 628 89 622.5 81.5 c 128,-1,44
 617 74 617 74 609 64 c 2,45,-1
 598 51 l 1,46,-1
 582 36 l 2,47,48
 571 24 571 24 570 22 c 1,49,50
 574 22 574 22 587.5 21.5 c 128,-1,51
 601 21 601 21 610.5 21.5 c 128,-1,52
 620 22 620 22 628 24 c 0,53,54
 633 25 633 25 637.5 30 c 128,-1,55
 642 35 642 35 644 36 c 0,56,57
 645 37 645 37 657 37 c 1,58,-1
 643 -2 l 1,59,-1
 529 -2 l 1,60,61
 529 3 529 3 531.5 8 c 128,-1,62
 534 13 534 13 536.5 15.5 c 128,-1,63
 539 18 539 18 544.5 23 c 128,-1,64
 550 28 550 28 552 30 c 2,65,-1
 561 39 l 1,66,-1
 571 49 l 1,67,-1
 580 59 l 2,68,69
 587 66 587 66 590 70 c 2,70,-1
 598 81 l 2,71,72
 603 88 603 88 605.5 93.5 c 128,-1,73
 608 99 608 99 610 105.5 c 128,-1,74
 612 112 612 112 613 119 c 0,75,76
 615 137 615 137 605.5 152 c 128,-1,77
 596 167 596 167 577 163 c 0,78,79
 563 160 563 160 554 144 c 0,80,81
 553 143 553 143 552 140 c 128,-1,82
 551 137 551 137 549.5 135 c 128,-1,83
 548 133 548 133 547 132 c 0,84,85
 545 131 545 131 534 131 c 1,36,37
170 600 m 2,86,-1
 170 446 l 1,87,-1
 178 446 l 1,88,-1
 186 446 l 1,89,-1
 194 446 l 2,90,91
 200 446 200 446 202.5 446.5 c 128,-1,92
 205 447 205 447 209.5 448.5 c 128,-1,93
 214 450 214 450 217 452 c 2,94,-1
 224 455 l 2,95,96
 228 457 228 457 231 460 c 0,97,98
 252 479 252 479 252 520 c 0,99,100
 252 572 252 572 224 592 c 0,101,102
 219 595 219 595 214.5 597 c 128,-1,103
 210 599 210 599 203 599.5 c 128,-1,104
 196 600 196 600 193 600.5 c 128,-1,105
 190 601 190 601 180.5 600.5 c 128,-1,106
 171 600 171 600 170 600 c 2,86,-1
107 618 m 1,107,-1
 185 618 l 2,108,109
 230 618 230 618 249 606 c 0,110,111
 275 590 275 590 283 560 c 128,-1,112
 291 530 291 530 286 496 c 0,113,114
 280 457 280 457 253 441 c 0,115,116
 232 428 232 428 185 428 c 2,117,-1
 107 428 l 1,118,-1
 107 438 l 1,119,120
 128 438 128 438 133 451 c 0,121,122
 134 455 134 455 134.5 461 c 128,-1,123
 135 467 135 467 134.5 474.5 c 128,-1,124
 134 482 134 482 134 484 c 2,125,-1
 134 557 l 2,126,127
 134 560 134 560 134.5 569 c 128,-1,128
 135 578 135 578 134.5 584.5 c 128,-1,129
 134 591 134 591 132 596 c 0,130,131
 129 604 129 604 123.5 606 c 128,-1,132
 118 608 118 608 107 608 c 1,133,-1
 107 618 l 1,107,-1
EndSplineSet
EndChar
StartChar: uni0017
Encoding: 23 23 23
Width: 790
Flags: W
LayerCount: 2
Fore
SplineSet
569 167 m 1,0,-1
 569 122 l 2,1,2
 569 106 569 106 570 105 c 0,3,4
 573 102 573 102 593 102 c 0,5,6
 619 102 619 102 631 114 c 0,7,8
 641 124 641 124 638.5 140.5 c 128,-1,9
 636 157 636 157 623 163 c 0,10,11
 614 168 614 168 602 170 c 0,12,13
 595 170 595 170 569 167 c 1,0,-1
569 19 m 1,14,15
 596 16 596 16 605 16 c 0,16,17
 621 18 621 18 628 22 c 0,18,19
 642 29 642 29 645 46 c 128,-1,20
 648 63 648 63 636 73 c 128,-1,21
 624 83 624 83 594 84 c 0,22,23
 572 84 572 84 570 80 c 0,24,25
 569 79 569 79 569 63 c 2,26,-1
 569 19 l 1,14,15
319 403 m 1,27,-1
 432 403 l 1,28,-1
 461 403 l 1,29,-1
 471 402 l 1,30,-1
 476 389 l 1,31,-1
 486 352 l 1,32,33
 474 352 474 352 473 353 c 2,34,-1
 467 362 l 2,35,36
 459 378 459 378 453 382 c 0,37,38
 449 385 449 385 442 386 c 128,-1,39
 435 387 435 387 425 386 c 128,-1,40
 415 385 415 385 413 385 c 2,41,-1
 413 285 l 2,42,43
 413 281 413 281 412.5 270.5 c 128,-1,44
 412 260 412 260 412 252 c 128,-1,45
 412 244 412 244 414 237 c 0,46,47
 418 223 418 223 439 223 c 1,48,-1
 439 213 l 1,49,-1
 352 213 l 1,50,-1
 352 223 l 1,51,52
 374 223 374 223 377 238 c 0,53,54
 378 244 378 244 378.5 252.5 c 128,-1,55
 379 261 379 261 378.5 271 c 128,-1,56
 378 281 378 281 378 286 c 2,57,-1
 378 385 l 2,58,59
 376 385 376 385 366 386 c 128,-1,60
 356 387 356 387 350 386 c 0,61,62
 343 384 343 384 338 382 c 0,63,64
 331 378 331 378 324 362 c 0,65,66
 319 353 319 353 318 353 c 0,67,68
 317 352 317 352 305 352 c 1,69,-1
 319 403 l 1,27,-1
506 187 m 1,70,-1
 584 187 l 2,71,72
 625 187 625 187 642 181 c 0,73,74
 662 173 662 173 670 154 c 128,-1,75
 678 135 678 135 669 114 c 0,76,77
 665 106 665 106 651 94 c 1,78,79
 668 89 668 89 676 72 c 128,-1,80
 684 55 684 55 678.5 36.5 c 128,-1,81
 673 18 673 18 658 10 c 0,82,83
 644 2 644 2 609 -1 c 0,84,85
 594 -2 594 -2 577 -2.5 c 128,-1,86
 560 -3 560 -3 538 -2.5 c 128,-1,87
 516 -2 516 -2 506 -2 c 1,88,-1
 506 8 l 1,89,90
 527 8 527 8 532 20 c 0,91,92
 534 24 534 24 534 30 c 128,-1,93
 534 36 534 36 533.5 43.5 c 128,-1,94
 533 51 533 51 533 54 c 2,95,-1
 533 127 l 2,96,97
 533 130 533 130 533.5 138.5 c 128,-1,98
 534 147 534 147 533.5 154 c 128,-1,99
 533 161 533 161 532 165 c 0,100,101
 527 177 527 177 506 178 c 1,102,-1
 506 187 l 1,70,-1
111 618 m 1,103,-1
 229 618 l 1,104,-1
 258 618 l 1,105,-1
 270 617 l 1,106,-1
 275 603 l 1,107,-1
 286 567 l 1,108,109
 273 567 273 567 271 568 c 2,110,-1
 266 578 l 2,111,112
 256 597 256 597 249 599 c 0,113,114
 246 600 246 600 224 600 c 2,115,-1
 172 600 l 1,116,-1
 172 532 l 1,117,-1
 213 532 l 2,118,119
 229 532 229 532 235 541 c 0,120,121
 238 545 238 545 237 558 c 1,122,-1
 251 558 l 1,123,-1
 251 488 l 1,124,-1
 237 488 l 1,125,126
 237 501 237 501 235 506 c 0,127,128
 229 515 229 515 213 514 c 2,129,-1
 172 514 l 1,130,-1
 172 446 l 1,131,-1
 224 446 l 2,132,133
 246 446 246 446 249 447 c 0,134,135
 257 450 257 450 266 469 c 2,136,-1
 271 478 l 2,137,138
 272 479 272 479 285 479 c 1,139,-1
 274 443 l 1,140,-1
 269 429 l 1,141,-1
 258 428 l 1,142,-1
 228 428 l 1,143,-1
 111 428 l 1,144,-1
 111 438 l 1,145,146
 131 438 131 438 136 451 c 0,147,148
 138 456 138 456 138 462.5 c 128,-1,149
 138 469 138 469 137.5 478.5 c 128,-1,150
 137 488 137 488 137 491 c 2,151,-1
 137 562 l 2,152,153
 137 564 137 564 137.5 572 c 128,-1,154
 138 580 138 580 137.5 585.5 c 128,-1,155
 137 591 137 591 136 595 c 0,156,157
 133 603 133 603 127 605.5 c 128,-1,158
 121 608 121 608 111 608 c 1,159,-1
 111 618 l 1,103,-1
EndSplineSet
EndChar
StartChar: uni001A
Encoding: 26 26 26
Width: 790
Flags: W
LayerCount: 2
Fore
SplineSet
569 104 m 1,0,1
 595 101 595 101 602 102 c 0,2,3
 614 104 614 104 623 108 c 0,4,5
 636 115 636 115 638.5 131.5 c 128,-1,6
 641 148 641 148 630 158 c 0,7,8
 619 169 619 169 593 169 c 0,9,10
 572 169 572 169 570 166 c 0,11,12
 569 165 569 165 569 149 c 2,13,-1
 569 104 l 1,0,1
569 81 m 1,14,-1
 569 36 l 2,15,16
 569 20 569 20 570 19 c 0,17,18
 572 16 572 16 595 16 c 0,19,20
 625 16 625 16 637 27 c 0,21,22
 648 38 648 38 645 55 c 128,-1,23
 642 72 642 72 628 78 c 0,24,25
 619 82 619 82 604 84 c 0,26,27
 595 84 595 84 569 81 c 1,14,-1
292 403 m 1,28,-1
 381 403 l 1,29,-1
 381 393 l 1,30,31
 360 393 360 393 355 380 c 0,32,33
 353 375 353 375 353 368 c 128,-1,34
 353 361 353 361 353.5 352.5 c 128,-1,35
 354 344 354 344 354 340 c 2,36,-1
 354 319 l 1,37,-1
 354 301 l 2,38,39
 354 297 354 297 355 283 c 128,-1,40
 356 269 356 269 359 262 c 2,41,-1
 366 247 l 2,42,43
 371 238 371 238 379 234.5 c 128,-1,44
 387 231 387 231 398 230 c 0,45,46
 410 230 410 230 416 233 c 0,47,48
 426 237 426 237 433 244 c 128,-1,49
 440 251 440 251 443.5 258.5 c 128,-1,50
 447 266 447 266 449 278 c 128,-1,51
 451 290 451 290 451 297 c 128,-1,52
 451 304 451 304 450.5 318 c 128,-1,53
 450 332 450 332 450 337 c 0,54,55
 450 339 450 339 450.5 349.5 c 128,-1,56
 451 360 451 360 451 366.5 c 128,-1,57
 451 373 451 373 448.5 380.5 c 128,-1,58
 446 388 446 388 440 391 c 0,59,60
 437 392 437 392 424 392 c 1,61,-1
 424 403 l 1,62,-1
 499 403 l 1,63,-1
 499 393 l 1,64,65
 486 393 486 393 483 391 c 0,66,67
 477 388 477 388 474 379.5 c 128,-1,68
 471 371 471 371 471 363.5 c 128,-1,69
 471 356 471 356 472 344.5 c 128,-1,70
 473 333 473 333 473 330 c 2,71,-1
 473 312 l 1,72,-1
 473 292 l 2,73,74
 473 288 473 288 471.5 275.5 c 128,-1,75
 470 263 470 263 467 257 c 128,-1,76
 464 251 464 251 458.5 242.5 c 128,-1,77
 453 234 453 234 446 227 c 0,78,79
 439 221 439 221 427 217 c 0,80,81
 416 213 416 213 403 213 c 0,82,83
 374 213 374 213 351.5 226 c 128,-1,84
 329 239 329 239 321 266 c 0,85,86
 318 276 318 276 318 318 c 2,87,-1
 318 367 l 2,88,89
 318 384 318 384 310 390 c 0,90,91
 307 392 307 392 292 392 c 1,92,-1
 292 403 l 1,28,-1
506 187 m 1,93,94
 515 187 515 187 536 187.5 c 128,-1,95
 557 188 557 188 572.5 188 c 128,-1,96
 588 188 588 188 602 187 c 0,97,98
 635 184 635 184 645 179 c 0,99,100
 671 166 671 166 673 138.5 c 128,-1,101
 675 111 675 111 651 94 c 1,102,103
 677 83 677 83 680 53 c 128,-1,104
 683 23 683 23 657 9 c 0,105,106
 636 -2 636 -2 589 -2 c 2,107,-1
 506 -2 l 1,108,-1
 506 7 l 1,109,110
 527 7 527 7 532 20 c 0,111,112
 533 24 533 24 533.5 30 c 128,-1,113
 534 36 534 36 533.5 43.5 c 128,-1,114
 533 51 533 51 533 54 c 2,115,-1
 533 126 l 2,116,117
 533 129 533 129 533.5 138 c 128,-1,118
 534 147 534 147 533.5 154 c 128,-1,119
 533 161 533 161 531 165 c 0,120,121
 528 173 528 173 522.5 175 c 128,-1,122
 517 177 517 177 506 177 c 1,123,-1
 506 187 l 1,93,94
149 492 m 1,124,125
 152 455 152 455 181 447 c 0,126,127
 194 442 194 442 211.5 447 c 128,-1,128
 229 452 229 452 229.5 468.5 c 128,-1,129
 230 485 230 485 207 499 c 0,130,131
 201 503 201 503 186.5 510.5 c 128,-1,132
 172 518 172 518 162 525 c 128,-1,133
 152 532 152 532 144 541 c 0,134,135
 125 566 125 566 140 591 c 128,-1,136
 155 616 155 616 185 619 c 0,137,138
 199 620 199 620 212 616 c 2,139,-1
 219 613 l 2,140,141
 226 610 226 610 229.5 610 c 128,-1,142
 233 610 233 610 234.5 613.5 c 128,-1,143
 236 617 236 617 237 618 c 128,-1,144
 238 619 238 619 250 619 c 1,145,-1
 250 553 l 1,146,-1
 236 553 l 1,147,148
 231 589 231 589 210 598 c 0,149,150
 196 605 196 605 179 598.5 c 128,-1,151
 162 592 162 592 165 574 c 0,152,153
 167 561 167 561 193 545 c 0,154,155
 198 542 198 542 206 538 c 2,156,-1
 218 531 l 2,157,158
 224 528 224 528 231.5 523.5 c 128,-1,159
 239 519 239 519 243 515 c 2,160,-1
 252 506 l 2,161,162
 258 500 258 500 259 494 c 2,163,-1
 262 481 l 2,164,165
 263 473 263 473 259 465 c 0,166,167
 253 444 253 444 232.5 434.5 c 128,-1,168
 212 425 212 425 189 428 c 0,169,170
 186 428 186 428 180 430 c 2,171,-1
 170 434 l 2,172,173
 166 435 166 435 161 435.5 c 128,-1,174
 156 436 156 436 153 434 c 128,-1,175
 150 432 150 432 149 427 c 1,176,-1
 135 427 l 1,177,-1
 135 492 l 1,178,-1
 149 492 l 1,124,125
EndSplineSet
EndChar
StartChar: uni001E
Encoding: 30 30 29
Width: 790
Flags: W
LayerCount: 2
Fore
SplineSet
522 296 m 1,0,-1
 535 296 l 1,1,-1
 535 230 l 1,2,-1
 522 230 l 1,3,4
 515 266 515 266 497 274 c 0,5,6
 483 282 483 282 465 276 c 128,-1,7
 447 270 447 270 450 251 c 0,8,9
 451 245 451 245 456.5 239 c 128,-1,10
 462 233 462 233 464.5 231.5 c 128,-1,11
 467 230 467 230 476 224 c 0,12,13
 481 221 481 221 500 210.5 c 128,-1,14
 519 200 519 200 527.5 194 c 128,-1,15
 536 188 536 188 543 174.5 c 128,-1,16
 550 161 550 161 546 145 c 0,17,18
 541 122 541 122 520.5 112.5 c 128,-1,19
 500 103 500 103 475 105 c 0,20,21
 472 105 472 105 466.5 107 c 128,-1,22
 461 109 461 109 456 110.5 c 128,-1,23
 451 112 451 112 446 112.5 c 128,-1,24
 441 113 441 113 438 111 c 128,-1,25
 435 109 435 109 435 104 c 1,26,-1
 421 104 l 1,27,-1
 421 170 l 1,28,-1
 435 170 l 1,29,30
 436 153 436 153 444.5 140 c 128,-1,31
 453 127 453 127 468 124 c 0,32,33
 485 120 485 120 500.5 125.5 c 128,-1,34
 516 131 516 131 515 148 c 0,35,36
 515 156 515 156 509.5 162.5 c 128,-1,37
 504 169 504 169 499 172 c 128,-1,38
 494 175 494 175 485 181 c 0,39,40
 482 183 482 183 474 187 c 2,41,-1
 463 193 l 2,42,43
 459 195 459 195 452 199.5 c 128,-1,44
 445 204 445 204 441.5 207.5 c 128,-1,45
 438 211 438 211 433 215.5 c 128,-1,46
 428 220 428 220 425.5 225 c 128,-1,47
 423 230 423 230 421 235.5 c 128,-1,48
 419 241 419 241 419.5 247.5 c 128,-1,49
 420 254 420 254 422 261 c 0,50,51
 428 280 428 280 445.5 288.5 c 128,-1,52
 463 297 463 297 484 295 c 0,53,54
 493 294 493 294 507 289 c 0,55,56
 515 286 515 286 517 287 c 0,57,58
 520 288 520 288 522 296 c 1,0,-1
270 490 m 1,59,-1
 270 445 l 2,60,61
 270 429 270 429 271 428 c 0,62,63
 274 425 274 425 294 425 c 0,64,65
 320 425 320 425 332 436 c 0,66,67
 342 446 342 446 340 462 c 128,-1,68
 338 478 338 478 326 485 c 0,69,70
 317 490 317 490 305 492 c 0,71,72
 297 493 297 493 293.5 492.5 c 128,-1,73
 290 492 290 492 282 491 c 128,-1,74
 274 490 274 490 270 490 c 1,59,-1
208 510 m 1,75,-1
 288 510 l 2,76,77
 335 510 335 510 355 497 c 0,78,79
 371 487 371 487 374.5 467 c 128,-1,80
 378 447 378 447 367.5 429.5 c 128,-1,81
 357 412 357 412 337 411 c 1,82,-1
 368 358 l 2,83,84
 380 337 380 337 388 333 c 0,85,86
 392 331 392 331 407 331 c 1,87,-1
 407 321 l 1,88,-1
 318 321 l 1,89,-1
 318 331 l 1,90,91
 332 331 332 331 334 333 c 0,92,93
 338 339 338 339 330 353 c 0,94,95
 327 359 327 359 320 371 c 128,-1,96
 313 383 313 383 310 389 c 0,97,98
 301 405 301 405 299 406 c 0,99,100
 296 408 296 408 291 408 c 128,-1,101
 286 408 286 408 278.5 407.5 c 128,-1,102
 271 407 271 407 270 407 c 2,103,-1
 270 358 l 2,104,105
 270 339 270 339 279 333 c 0,106,107
 283 330 283 330 296 331 c 1,108,-1
 296 321 l 1,109,-1
 208 321 l 1,110,-1
 208 331 l 1,111,112
 228 331 228 331 233 344 c 0,113,114
 235 348 235 348 235.5 353.5 c 128,-1,115
 236 359 236 359 235.5 367 c 128,-1,116
 235 375 235 375 235 377 c 2,117,-1
 235 448 l 2,118,119
 235 451 235 451 235.5 460 c 128,-1,120
 236 469 236 469 235.5 475.5 c 128,-1,121
 235 482 235 482 233 487 c 0,122,123
 228 500 228 500 208 500 c 1,124,-1
 208 510 l 1,75,-1
EndSplineSet
EndChar
StartChar: quotedbl
Encoding: 34 34 33
Width: 260
Flags: W
LayerCount: 2
Fore
SplineSet
219 483 m 0,0,1
 219 471 219 471 218 461 c 2,2,-1
 205 362 l 2,3,4
 204 349 204 349 200 327 c 0,5,6
 200 324 200 324 189 324 c 0,7,8
 177 326 177 326 176 327 c 0,9,10
 174 348 174 348 174 357 c 2,11,-1
 156 474 l 1,12,-1
 156 483 l 2,13,14
 156 512 156 512 188 512 c 0,15,16
 219 512 219 512 219 483 c 0,0,1
108 483 m 2,17,-1
 87 327 l 2,18,19
 87 324 87 324 75 324 c 0,20,21
 64 325 64 325 63 327 c 0,22,23
 60 355 60 355 50 409 c 0,24,25
 40 462 40 462 42 483 c 0,26,27
 42 512 42 512 75 512 c 128,-1,28
 108 512 108 512 108 483 c 2,17,-1
EndSplineSet
EndChar
StartChar: dollar
Encoding: 36 36 35
Width: 465
Flags: W
LayerCount: 2
Fore
SplineSet
218 363 m 1,0,-1
 226 571 l 1,1,2
 172 568 172 568 140 531.5 c 128,-1,3
 108 495 108 495 130 445 c 0,4,5
 150 401 150 401 218 363 c 1,0,-1
241 274 m 1,6,-1
 241 22 l 1,7,8
 279 25 279 25 314 46 c 128,-1,9
 349 67 349 67 365 101 c 128,-1,10
 381 135 381 135 362 178 c 0,11,12
 334 235 334 235 241 274 c 1,6,-1
218 637 m 1,13,-1
 245 637 l 1,14,-1
 245 593 l 1,15,16
 285 593 285 593 326.5 579.5 c 128,-1,17
 368 566 368 566 389 540 c 0,18,19
 399 528 399 528 376.5 498 c 128,-1,20
 354 468 354 468 337 466 c 1,21,22
 336 544 336 544 245 571 c 1,23,-1
 245 419 l 2,24,25
 245 414 245 414 243.5 398.5 c 128,-1,26
 242 383 242 383 243 371.5 c 128,-1,27
 244 360 244 360 247 352 c 0,28,29
 251 344 251 344 259.5 338 c 128,-1,30
 268 332 268 332 283.5 324 c 128,-1,31
 299 316 299 316 300 315 c 0,32,33
 357 283 357 283 388 244 c 0,34,35
 420 202 420 202 416.5 159 c 128,-1,36
 413 116 413 116 389 81 c 128,-1,37
 365 46 365 46 323 23 c 0,38,39
 282 0 282 0 238 -1 c 1,40,-1
 238 -71 l 1,41,-1
 218 -71 l 1,42,-1
 218 -1 l 1,43,44
 207 0 207 0 195 3 c 2,45,-1
 174 8 l 2,46,47
 164 11 164 11 153 18 c 128,-1,48
 142 25 142 25 135 28.5 c 128,-1,49
 128 32 128 32 116.5 42 c 128,-1,50
 105 52 105 52 100 56 c 128,-1,51
 95 60 95 60 83 72 c 2,52,-1
 68 88 l 2,53,54
 65 91 65 91 52.5 105 c 128,-1,55
 40 119 40 119 37 122 c 2,56,-1
 37 125 l 1,57,-1
 89 196 l 1,58,-1
 93 196 l 1,59,60
 100 185 100 185 102 161 c 128,-1,61
 104 137 104 137 105 129 c 0,62,63
 117 88 117 88 147.5 60.5 c 128,-1,64
 178 33 178 33 218 26 c 1,65,-1
 218 200 l 2,66,67
 218 206 218 206 219.5 223.5 c 128,-1,68
 221 241 221 241 220.5 254.5 c 128,-1,69
 220 268 220 268 217 277 c 0,70,71
 214 284 214 284 208.5 288.5 c 128,-1,72
 203 293 203 293 191 300 c 2,73,-1
 179 306 l 2,74,75
 125 336 125 336 102 363 c 0,76,77
 72 399 72 399 69 439.5 c 128,-1,78
 66 480 66 480 85 512 c 128,-1,79
 104 544 104 544 140 567 c 128,-1,80
 176 590 176 590 218 593 c 1,81,-1
 218 637 l 1,13,-1
EndSplineSet
EndChar
StartChar: quotesingle
Encoding: 39 39 38
Width: 144
Flags: W
LayerCount: 2
Fore
SplineSet
106 483 m 2,0,-1
 85 327 l 2,1,2
 85 324 85 324 73 324 c 0,3,4
 62 325 62 325 61 327 c 0,5,6
 60 334 60 334 59 344 c 128,-1,7
 58 354 58 354 58 357 c 2,8,-1
 42 474 l 1,9,-1
 42 483 l 2,10,11
 42 512 42 512 74 512 c 128,-1,12
 106 512 106 512 106 483 c 2,0,-1
EndSplineSet
EndChar
StartChar: parenleft
Encoding: 40 40 39
Width: 231
Flags: W
LayerCount: 2
Fore
SplineSet
224 -113 m 0,0,1
 224 -116 224 -116 216 -121 c 2,2,-1
 211 -124 l 1,3,4
 203 -124 203 -124 196 -116 c 0,5,6
 128 -56 128 -56 95 10 c 0,7,8
 53 96 53 96 55 203 c 0,9,10
 55 291 55 291 103 396 c 0,11,12
 136 467 136 467 196 525 c 0,13,14
 202 531 202 531 211 530 c 0,15,16
 219 530 219 530 221 525 c 0,17,18
 224 522 224 522 224 520 c 0,19,20
 224 515 224 515 216 508 c 0,21,22
 102 390 102 390 104 203 c 0,23,24
 104 21 104 21 218 -100 c 0,25,26
 224 -105 224 -105 224 -113 c 0,0,1
EndSplineSet
Substitution2: "'rtla' Right to Left Alternates lookup 0 subtable" parenright
EndChar
StartChar: five
Encoding: 53 53 52
Width: 303
Flags: W
LayerCount: 2
Fore
SplineSet
77 322 m 1,0,-1
 224 328 l 1,1,-1
 283 367 l 1,2,-1
 237 278 l 1,3,-1
 169 276 l 1,4,-1
 92 271 l 1,5,6
 91 264 91 264 87 245 c 128,-1,7
 83 226 83 226 82 215.5 c 128,-1,8
 81 205 81 205 85 190 c 0,9,10
 90 182 90 182 100.5 176.5 c 128,-1,11
 111 171 111 171 129.5 167 c 128,-1,12
 148 163 148 163 150 162 c 0,13,14
 221 138 221 138 248 91 c 0,15,16
 275 41 275 41 261 -8 c 128,-1,17
 247 -57 247 -57 209 -96 c 128,-1,18
 171 -135 171 -135 120.5 -160.5 c 128,-1,19
 70 -186 70 -186 25 -188 c 1,20,-1
 25 -169 l 1,21,22
 89 -157 89 -157 134 -122.5 c 128,-1,23
 179 -88 179 -88 197 -30 c 0,24,25
 210 14 210 14 194 53.5 c 128,-1,26
 178 93 178 93 139.5 112.5 c 128,-1,27
 101 132 101 132 55 120 c 1,28,-1
 77 322 l 1,0,-1
EndSplineSet
EndChar
StartChar: question
Encoding: 63 63 62
Width: 264
Flags: W
LayerCount: 2
Fore
SplineSet
150 58 m 0,0,1
 169 49 169 49 168 47 c 0,2,3
 160 39 160 39 144 18 c 0,4,5
 120 -13 120 -13 118 -18 c 1,6,-1
 88 20 l 1,7,-1
 64 45 l 1,8,9
 92 60 92 60 108 99 c 1,10,11
 113 98 113 98 130.5 79 c 128,-1,12
 148 60 148 60 150 58 c 0,0,1
121 143 m 1,13,14
 103 146 103 146 102.5 189.5 c 128,-1,15
 102 233 102 233 114 248 c 0,16,17
 121 257 121 257 145 263 c 128,-1,18
 169 269 169 269 173 271 c 0,19,20
 217 293 217 293 204 367 c 0,21,22
 193 430 193 430 99 446 c 0,23,24
 95 447 95 447 82.5 448 c 128,-1,25
 70 449 70 449 61 451.5 c 128,-1,26
 52 454 52 454 46 459 c 0,27,28
 36 468 36 468 42 507 c 128,-1,29
 48 546 48 546 58 554 c 1,30,31
 65 537 65 537 75.5 527 c 128,-1,32
 86 517 86 517 95 513.5 c 128,-1,33
 104 510 104 510 121.5 505 c 128,-1,34
 139 500 139 500 150 495 c 0,35,36
 197 474 197 474 219 429 c 0,37,38
 238 389 238 389 231.5 336.5 c 128,-1,39
 225 284 225 284 196 249 c 0,40,41
 187 236 187 236 172 223 c 128,-1,42
 157 210 157 210 147.5 202.5 c 128,-1,43
 138 195 138 195 130.5 179.5 c 128,-1,44
 123 164 123 164 121 143 c 1,13,14
EndSplineSet
EndChar
StartChar: A
Encoding: 65 65 64
Width: 600
Flags: W
LayerCount: 2
Fore
SplineSet
285 471 m 1,0,-1
 191 238 l 1,1,2
 216 235 216 235 251 234 c 128,-1,3
 286 233 286 233 316 233.5 c 128,-1,4
 346 234 346 234 379 233 c 1,5,6
 329 367 329 367 285 471 c 1,0,-1
309.5 592 m 128,-1,8
 318 592 318 592 320 583 c 0,9,10
 339 520 339 520 414.5 323.5 c 128,-1,11
 490 127 490 127 515 72 c 0,12,13
 532 37 532 37 542.5 26.5 c 128,-1,14
 553 16 553 16 576 14 c 0,15,16
 583 13 583 13 582.5 5.5 c 128,-1,17
 582 -2 582 -2 579 -2 c 2,18,-1
 513 -2 l 2,19,20
 453 -2 453 -2 408 -6 c 0,21,22
 400 -7 400 -7 399 -1 c 0,23,24
 397 8 397 8 403 9 c 2,25,-1
 408 9 l 2,26,27
 413 10 413 10 417.5 11 c 128,-1,28
 422 12 422 12 428.5 14.5 c 128,-1,29
 435 17 435 17 438 21.5 c 128,-1,30
 441 26 441 26 444 33 c 128,-1,31
 447 40 447 40 444 49 c 0,32,33
 435 93 435 93 390 202 c 1,34,35
 244 208 244 208 178 206 c 1,36,37
 155 157 155 157 127 81 c 0,38,39
 116 46 116 46 126 35 c 128,-1,40
 136 24 136 24 191 9 c 0,41,42
 195 8 195 8 193 0 c 0,43,44
 192 -5 192 -5 191 -7 c 128,-1,45
 190 -9 190 -9 187 -8 c 0,46,47
 157 -3 157 -3 100 -1 c 0,48,49
 60 1 60 1 27 -2 c 0,50,51
 18 -3 18 -3 19 5 c 0,52,53
 19 14 19 14 24 14 c 0,54,55
 47 18 47 18 61.5 33 c 128,-1,56
 76 48 76 48 92 85 c 0,57,58
 115 133 115 133 200.5 339 c 128,-1,59
 286 545 286 545 298 582 c 0,60,7
 301 592 301 592 309.5 592 c 128,-1,8
EndSplineSet
EndChar
StartChar: C
Encoding: 67 67 66
Width: 555
Flags: W
LayerCount: 2
Fore
SplineSet
348 606 m 0,0,1
 407 606 407 606 486 578 c 0,2,3
 505 571 505 571 521 573 c 0,4,5
 533 576 533 576 536 576 c 0,6,7
 545 576 545 576 541 568 c 0,8,9
 523 527 523 527 517 466 c 0,10,11
 516 458 516 458 511 458 c 0,12,13
 500 458 500 458 501 474 c 0,14,15
 504 501 504 501 494.5 516 c 128,-1,16
 485 531 485 531 460 546 c 0,17,18
 440 558 440 558 402.5 569.5 c 128,-1,19
 365 581 365 581 333 581 c 0,20,21
 286 581 286 581 268 576 c 0,22,23
 208 558 208 558 164 510 c 0,24,25
 127 468 127 468 111 419 c 128,-1,26
 95 370 95 370 95 295 c 0,27,28
 95 229 95 229 112 186 c 0,29,30
 144 105 144 105 212 58 c 128,-1,31
 280 11 280 11 349 11 c 0,32,33
 413 11 413 11 460.5 44.5 c 128,-1,34
 508 78 508 78 520 126 c 0,35,36
 522 134 522 134 530 131 c 0,37,38
 539 130 539 130 537 122 c 0,39,40
 533 108 533 108 522 73 c 128,-1,41
 511 38 511 38 507 17 c 1,42,43
 388 -10 388 -10 332 -10 c 0,44,45
 202 -10 202 -10 110.5 75.5 c 128,-1,46
 19 161 19 161 19 287 c 0,47,48
 19 361 19 361 38 412.5 c 128,-1,49
 57 464 57 464 99 510 c 0,50,51
 156 569 156 569 256 594 c 0,52,53
 302 606 302 606 348 606 c 0,0,1
EndSplineSet
EndChar
StartChar: E
Encoding: 69 69 68
Width: 534
Flags: W
LayerCount: 2
Fore
SplineSet
416 209 m 0,0,1
 411 248 411 248 404 263 c 0,2,3
 395 277 395 277 381 280 c 0,4,5
 320 289 320 289 242 289 c 0,6,7
 185 289 185 289 170 288 c 0,8,9
 161 288 161 288 161 282 c 0,10,11
 161 88 161 88 168 45 c 0,12,13
 169 38 169 38 175 37 c 0,14,15
 206 23 206 23 302 23 c 0,16,17
 399 23 399 23 452 60 c 0,18,19
 484 83 484 83 505 135 c 0,20,21
 506 139 506 139 509.5 139 c 128,-1,22
 513 139 513 139 515 137 c 0,23,24
 520 132 520 132 519 130 c 0,25,26
 481 12 481 12 475 0 c 0,27,28
 475 -5 475 -5 468 -4 c 0,29,30
 449 0 449 0 257 0 c 2,31,-1
 116 0 l 2,32,33
 85 0 85 0 32 -7 c 0,34,35
 25 -8 25 -8 23.5 0 c 128,-1,36
 22 8 22 8 26 9 c 0,37,38
 59 15 59 15 75 23 c 0,39,40
 83 28 83 28 84 43 c 0,41,42
 95 129 95 129 97.5 270.5 c 128,-1,43
 100 412 100 412 92 530 c 0,44,45
 91 555 91 555 70 565 c 0,46,47
 58 571 58 571 41 574 c 0,48,49
 33 576 33 576 33 581.5 c 128,-1,50
 33 587 33 587 39 587 c 0,51,52
 417 584 417 584 456 590 c 0,53,54
 460 591 460 591 472 591 c 0,55,56
 481 591 481 591 477 583 c 0,57,58
 473 571 473 571 462 478 c 0,59,60
 460 468 460 468 455 468 c 0,61,62
 445 468 445 468 446.5 477.5 c 128,-1,63
 448 487 448 487 448 495 c 0,64,65
 449 534 449 534 430 544 c 0,66,67
 385 567 385 567 285 567 c 0,68,69
 228 567 228 567 179 557 c 0,70,71
 172 555 172 555 171 550 c 0,72,73
 167 524 167 524 161 323 c 0,74,75
 161 312 161 312 167 311 c 2,76,-1
 249 311 l 2,77,78
 335 311 335 311 384 318 c 0,79,80
 395 319 395 319 402 331 c 0,81,82
 414 357 414 357 419 373 c 0,83,84
 420 377 420 377 427.5 377 c 128,-1,85
 435 377 435 377 433 372 c 0,86,87
 422 290 422 290 431 212 c 0,88,89
 433 203 433 203 424.5 203 c 128,-1,90
 416 203 416 203 416 209 c 0,0,1
EndSplineSet
EndChar
StartChar: F
Encoding: 70 70 69
Width: 491
Flags: W
LayerCount: 2
Fore
SplineSet
30 586 m 0,0,1
 33 586 33 586 60.5 585 c 128,-1,2
 88 584 88 584 139.5 583 c 128,-1,3
 191 582 191 582 251 582 c 0,4,5
 270 582 270 582 312 581.5 c 128,-1,6
 354 581 354 581 372 581 c 128,-1,7
 390 581 390 581 415.5 583.5 c 128,-1,8
 441 586 441 586 458 591 c 0,9,10
 463 593 463 593 466 591.5 c 128,-1,11
 469 590 469 590 468 584 c 0,12,13
 460 554 460 554 460 478 c 0,14,15
 460 467 460 467 454 467 c 0,16,17
 442 467 442 467 441 476 c 0,18,19
 441 526 441 526 418 538 c 0,20,21
 374 558 374 558 277 558 c 0,22,23
 197 558 197 558 179 555 c 0,24,25
 173 554 173 554 173 546 c 0,26,27
 167 484 167 484 165 320 c 0,28,29
 165 315 165 315 169 315 c 0,30,31
 266 308 266 308 371 318 c 0,32,33
 380 319 380 319 385 320.5 c 128,-1,34
 390 322 390 322 395.5 334 c 128,-1,35
 401 346 401 346 402 368 c 0,36,37
 402 375 402 375 411 374 c 0,38,39
 421 374 421 374 421 366 c 0,40,41
 419 352 419 352 419 226 c 0,42,43
 419 215 419 215 410 215 c 0,44,45
 399 215 399 215 399 225 c 0,46,47
 404 273 404 273 372 278 c 0,48,49
 334 284 334 284 173 292 c 0,50,51
 167 292 167 292 167 289 c 0,52,53
 165 258 165 258 164 78 c 0,54,55
 164 57 164 57 172 44 c 128,-1,56
 180 31 180 31 196 25.5 c 128,-1,57
 212 20 212 20 223 18 c 128,-1,58
 234 16 234 16 255 15 c 0,59,60
 267 15 267 15 264 0 c 0,61,62
 263 -6 263 -6 260.5 -8 c 128,-1,63
 258 -10 258 -10 254 -9 c 0,64,65
 204 0 204 0 125 0 c 0,66,67
 76 0 76 0 40 -3 c 0,68,69
 31 -3 31 -3 30 5 c 0,70,71
 29 14 29 14 33 15 c 0,72,73
 67 21 67 21 77.5 30.5 c 128,-1,74
 88 40 88 40 92 74 c 0,75,76
 101 166 101 166 101 305.5 c 128,-1,77
 101 445 101 445 93 525 c 0,78,79
 90 550 90 550 78.5 559.5 c 128,-1,80
 67 569 67 569 30 570 c 0,81,82
 23 570 23 570 24 577 c 0,83,84
 23 586 23 586 30 586 c 0,0,1
EndSplineSet
EndChar
StartChar: G
Encoding: 71 71 70
Width: 624
Flags: W
LayerCount: 2
Fore
SplineSet
359 592 m 0,0,1
 390 592 390 592 413.5 588 c 128,-1,2
 437 584 437 584 464.5 576 c 128,-1,3
 492 568 492 568 495 567 c 0,4,5
 508 565 508 565 513 568 c 0,6,7
 519 572 519 572 527 584 c 0,8,9
 529 588 529 588 534 587.5 c 128,-1,10
 539 587 539 587 538 582 c 0,11,12
 536 567 536 567 541.5 520.5 c 128,-1,13
 547 474 547 474 554 455 c 0,14,15
 555 451 555 451 552.5 448.5 c 128,-1,16
 550 446 550 446 547 446 c 0,17,18
 539 446 539 446 538 452 c 0,19,20
 520 498 520 498 471.5 532 c 128,-1,21
 423 566 423 566 340 566 c 0,22,23
 283 566 283 566 245 549 c 0,24,25
 176 518 176 518 134.5 452.5 c 128,-1,26
 93 387 93 387 93 299 c 0,27,28
 93 190 93 190 172.5 103 c 128,-1,29
 252 16 252 16 364 16 c 0,30,31
 434 16 434 16 490 51 c 0,32,33
 503 60 503 60 504 79 c 0,34,35
 508 147 508 147 501 225 c 0,36,37
 499 251 499 251 481 260 c 128,-1,38
 463 269 463 269 398 268 c 0,39,40
 391 268 391 268 391 277 c 128,-1,41
 391 286 391 286 399 286 c 0,42,43
 433 284 433 284 478 285 c 0,44,45
 548 285 548 285 596 290 c 0,46,47
 605 292 605 292 606 282 c 0,48,49
 606 275 606 275 600 273 c 0,50,51
 583 269 583 269 577.5 259 c 128,-1,52
 572 249 572 249 571 226 c 0,53,54
 569 79 569 79 569 68 c 0,55,56
 569 51 569 51 586 36 c 0,57,58
 589 33 589 33 589 29 c 128,-1,59
 589 25 589 25 585 24 c 0,60,61
 560 20 560 20 512.5 11 c 128,-1,62
 465 2 465 2 427 -3.5 c 128,-1,63
 389 -9 389 -9 355 -9 c 0,64,65
 212 -9 212 -9 116 73.5 c 128,-1,66
 20 156 20 156 20 298 c 0,67,68
 20 363 20 363 51.5 423 c 128,-1,69
 83 483 83 483 129.5 518 c 128,-1,70
 176 553 176 553 238 572.5 c 128,-1,71
 300 592 300 592 359 592 c 0,0,1
EndSplineSet
EndChar
StartChar: J
Encoding: 74 74 73
Width: 321
Flags: W
LayerCount: 2
Fore
SplineSet
215 522 m 0,0,1
 212 485 212 485 211 395.5 c 128,-1,2
 210 306 210 306 209.5 173.5 c 128,-1,3
 209 41 209 41 207 -58 c 1,4,5
 143 -145 143 -145 99 -180 c 0,6,7
 90 -187 90 -187 69 -195.5 c 128,-1,8
 48 -204 48 -204 31 -204 c 0,9,10
 21 -204 21 -204 13 -195.5 c 128,-1,11
 5 -187 5 -187 2 -179 c 0,12,13
 1 -173 1 -173 8 -169 c 0,14,15
 25 -159 25 -159 53 -147 c 0,16,17
 56 -146 56 -146 60 -147 c 0,18,19
 62 -148 62 -148 69 -152 c 128,-1,20
 76 -156 76 -156 83 -156 c 0,21,22
 92 -156 92 -156 105 -143 c 128,-1,23
 118 -130 118 -130 125 -106 c 0,24,25
 136 -65 136 -65 140 0 c 0,26,27
 148 129 148 129 147.5 294 c 128,-1,28
 147 459 147 459 139 521 c 0,29,30
 137 537 137 537 130.5 548 c 128,-1,31
 124 559 124 559 119.5 564 c 128,-1,32
 115 569 115 569 99 572.5 c 128,-1,33
 83 576 83 576 78 576.5 c 128,-1,34
 73 577 73 577 48 579 c 0,35,36
 40 579 40 579 41 586 c 0,37,38
 41 595 41 595 47 595 c 0,39,40
 108 588 108 588 179 588 c 0,41,42
 241 588 241 588 291 592 c 0,43,44
 300 593 300 593 301 585 c 0,45,46
 301 574 301 574 293 574 c 0,47,48
 282 576 282 576 268.5 574.5 c 128,-1,49
 255 573 255 573 244 569 c 128,-1,50
 233 565 233 565 225 553.5 c 128,-1,51
 217 542 217 542 215 522 c 0,0,1
EndSplineSet
EndChar
StartChar: M
Encoding: 77 77 76
Width: 839
Flags: W
LayerCount: 2
Fore
SplineSet
33 584 m 0,0,1
 34 584 34 584 53 583 c 2,2,-1
 99 580 l 2,3,4
 126 579 126 579 146 579 c 0,5,6
 164 579 164 579 174.5 579.5 c 128,-1,7
 185 580 185 580 190 580 c 2,8,-1
 195 580 l 2,9,10
 204 580 204 580 205 576 c 0,11,12
 213 542 213 542 240 486 c 0,13,14
 267 429 267 429 435 118 c 1,15,-1
 530 298 l 1,16,-1
 634 494 l 2,17,18
 669 562 669 562 673 573 c 0,19,20
 675 581 675 581 681 580 c 0,21,22
 682 580 682 580 690 579.5 c 128,-1,23
 698 579 698 579 712 579 c 2,24,-1
 745 579 l 1,25,-1
 773 579 l 2,26,27
 787 579 787 579 796 579.5 c 128,-1,28
 805 580 805 580 807 580 c 0,29,30
 812 580 812 580 812 571.5 c 128,-1,31
 812 563 812 563 806 563 c 0,32,33
 763 567 763 567 747.5 554 c 128,-1,34
 732 541 732 541 727 494 c 0,35,36
 723 451 723 451 724 408 c 0,37,38
 729 230 729 230 734 105 c 0,39,40
 736 53 736 53 752.5 37.5 c 128,-1,41
 769 22 769 22 813 18 c 0,42,43
 817 18 817 18 817 8.5 c 128,-1,44
 817 -1 817 -1 810 -1 c 0,45,46
 808 -1 808 -1 795 -0.5 c 128,-1,47
 782 0 782 0 759.5 1 c 128,-1,48
 737 2 737 2 716 2 c 0,49,50
 620 2 620 2 579 -5 c 0,51,52
 570 -7 570 -7 569 0 c 0,53,54
 568 10 568 10 573 11 c 0,55,56
 623 20 623 20 644.5 42 c 128,-1,57
 666 64 666 64 666 115 c 0,58,59
 664 364 664 364 662 482 c 1,60,61
 584 352 584 352 510 203 c 128,-1,62
 436 54 436 54 420 4 c 0,63,64
 419 -1 419 -1 413 -0.5 c 128,-1,65
 407 0 407 0 406 5 c 0,66,67
 389 59 389 59 350 140 c 128,-1,68
 311 221 311 221 252 332 c 2,69,-1
 171 488 l 1,70,71
 159 392 159 392 151 104 c 0,72,73
 150 51 150 51 168 31.5 c 128,-1,74
 186 12 186 12 235 11 c 0,75,76
 243 11 243 11 243 2 c 128,-1,77
 243 -7 243 -7 235 -7 c 0,78,79
 232 -7 232 -7 217 -5.5 c 128,-1,80
 202 -4 202 -4 178.5 -3 c 128,-1,81
 155 -2 155 -2 134 -2 c 0,82,83
 91 -2 91 -2 30 -7 c 0,84,85
 27 -8 27 -8 26 -7 c 128,-1,86
 25 -6 25 -6 25 -5 c 128,-1,87
 25 -4 25 -4 24 0 c 0,88,89
 23 10 23 10 27 10 c 0,90,91
 71 11 71 11 92.5 34 c 128,-1,92
 114 57 114 57 118 105 c 0,93,94
 120 128 120 128 129.5 289 c 128,-1,95
 139 450 139 450 138 464 c 0,96,97
 137 496 137 496 131.5 516 c 128,-1,98
 126 536 126 536 109.5 546 c 128,-1,99
 93 556 93 556 80.5 559 c 128,-1,100
 68 562 68 562 39 566 c 0,101,102
 34 567 34 567 32 567 c 0,103,104
 25 568 25 568 26 576 c 0,105,106
 25 584 25 584 33 584 c 0,0,1
EndSplineSet
EndChar
StartChar: Q
Encoding: 81 81 80
Width: 689
Flags: W
LayerCount: 2
Fore
SplineSet
325 568 m 0,0,1
 228 568 228 568 164 501.5 c 128,-1,2
 100 435 100 435 100 335 c 0,3,4
 100 254 100 254 133.5 181.5 c 128,-1,5
 167 109 167 109 232 62 c 128,-1,6
 297 15 297 15 379 15 c 0,7,8
 456 15 456 15 512 70 c 0,9,10
 586 141 586 141 586 266 c 0,11,12
 586 365 586 365 526 454 c 0,13,14
 497 497 497 497 441 532.5 c 128,-1,15
 385 568 385 568 325 568 c 0,0,1
445 7 m 1,16,-1
 446 7 l 1,17,18
 499 -35 499 -35 573 -68.5 c 128,-1,19
 647 -102 647 -102 698 -102 c 0,20,21
 722 -102 722 -102 739 -97 c 0,22,23
 743 -96 743 -96 745 -102 c 0,24,25
 746 -103 746 -103 746 -104 c 0,26,27
 749 -113 749 -113 743 -113 c 0,28,29
 673 -130 673 -130 618 -130 c 0,30,31
 565 -130 565 -130 481.5 -94 c 128,-1,32
 398 -58 398 -58 347 -10 c 1,33,34
 271 -10 271 -10 216.5 12.5 c 128,-1,35
 162 35 162 35 113 89 c 0,36,37
 78 129 78 129 56 183 c 128,-1,38
 34 237 34 237 34 289 c 0,39,40
 34 415 34 415 129 505.5 c 128,-1,41
 224 596 224 596 348 596 c 0,42,43
 468 596 468 596 561.5 509.5 c 128,-1,44
 655 423 655 423 655 288 c 0,45,46
 655 191 655 191 596.5 114.5 c 128,-1,47
 538 38 538 38 445 7 c 1,16,-1
EndSplineSet
EndChar
StartChar: R
Encoding: 82 82 81
Width: 638
Flags: W
LayerCount: 2
Fore
SplineSet
237 572 m 0,0,1
 188 572 188 572 171 555 c 0,2,3
 165 549 165 549 165 544 c 0,4,5
 156 415 156 415 158 304 c 1,6,7
 198 298 198 298 241 299 c 0,8,9
 273 299 273 299 298 304 c 0,10,11
 331 313 331 313 360.5 341 c 128,-1,12
 390 369 390 369 390 421 c 0,13,14
 390 466 390 466 363.5 507.5 c 128,-1,15
 337 549 337 549 296 564 c 0,16,17
 277 572 277 572 237 572 c 0,0,1
34 583 m 0,18,19
 36 583 36 583 61.5 581 c 128,-1,20
 87 579 87 579 112 579 c 0,21,22
 138 579 138 579 185.5 585.5 c 128,-1,23
 233 592 233 592 260 592 c 0,24,25
 355 592 355 592 408.5 542.5 c 128,-1,26
 462 493 462 493 462 435 c 0,27,28
 462 401 462 401 448 373.5 c 128,-1,29
 434 346 434 346 411.5 329 c 128,-1,30
 389 312 389 312 370.5 303 c 128,-1,31
 352 294 352 294 334 289 c 1,32,33
 455 107 455 107 518 43 c 0,34,35
 543 18 543 18 573.5 2.5 c 128,-1,36
 604 -13 604 -13 628 -13 c 0,37,38
 636 -13 636 -13 635 -21 c 0,39,40
 635 -30 635 -30 609 -30 c 0,41,42
 526 -30 526 -30 443 41 c 0,43,44
 369 104 369 104 257 279 c 1,45,46
 221 275 221 275 158 285 c 1,47,48
 157 185 157 185 163 43 c 0,49,50
 163 34 163 34 169.5 28 c 128,-1,51
 176 22 176 22 182.5 19.5 c 128,-1,52
 189 17 189 17 203.5 13 c 128,-1,53
 218 9 218 9 225.5 6.5 c 128,-1,54
 233 4 233 4 231 -5 c 0,55,56
 228 -12 228 -12 223 -10 c 0,57,58
 178 0 178 0 137 0 c 0,59,60
 99 0 99 0 37 -10 c 0,61,62
 32 -11 32 -11 27 -7 c 0,63,64
 25 -6 25 -6 26 0 c 128,-1,65
 27 6 27 6 30 7 c 0,66,67
 88 15 88 15 89 56 c 0,68,69
 101 362 101 362 90 527 c 0,70,71
 89 552 89 552 75.5 558 c 128,-1,72
 62 564 62 564 30 565 c 0,73,74
 25 565 25 565 24 568.5 c 128,-1,75
 23 572 23 572 25 576 c 0,76,77
 29 583 29 583 34 583 c 0,18,19
EndSplineSet
EndChar
StartChar: T
Encoding: 84 84 83
Width: 634
Flags: W
LayerCount: 2
Fore
SplineSet
60 596 m 0,0,1
 63 596 63 596 70.5 588.5 c 128,-1,2
 78 581 78 581 89 580 c 0,3,4
 137 577 137 577 313 578 c 2,5,-1
 388 578 l 2,6,7
 428 578 428 578 460.5 578.5 c 128,-1,8
 493 579 493 579 520 579 c 2,9,-1
 562 579 l 1,10,-1
 579 579 l 2,11,12
 586 579 586 579 593.5 580.5 c 128,-1,13
 601 582 601 582 606.5 584 c 128,-1,14
 612 586 612 586 613 586 c 0,15,16
 622 586 622 586 618 578 c 0,17,18
 613 569 613 569 606 547 c 0,19,20
 602 534 602 534 595 491 c 0,21,22
 594 480 594 480 581 481 c 0,23,24
 572 484 572 484 573 491 c 2,25,-1
 580 525 l 1,26,27
 560 545 560 545 496 549 c 128,-1,28
 432 553 432 553 358 548 c 1,29,30
 348 196 348 196 353 84 c 0,31,32
 353 75 353 75 354 67 c 128,-1,33
 355 59 355 59 356 52.5 c 128,-1,34
 357 46 357 46 361 41.5 c 128,-1,35
 365 37 365 37 366.5 33.5 c 128,-1,36
 368 30 368 30 374.5 28 c 128,-1,37
 381 26 381 26 383 24.5 c 128,-1,38
 385 23 385 23 395 21.5 c 128,-1,39
 405 20 405 20 407.5 19.5 c 128,-1,40
 410 19 410 19 423.5 18 c 128,-1,41
 437 17 437 17 441 16 c 0,42,43
 451 14 451 14 446 3 c 0,44,45
 442 -6 442 -6 436 -7 c 0,46,47
 431 -7 431 -7 397 -2 c 128,-1,48
 363 3 363 3 337 4 c 0,49,50
 286 5 286 5 196 -9 c 0,51,52
 187 -10 187 -10 184 -3 c 0,53,54
 178 7 178 7 189 9 c 0,55,56
 243 19 243 19 266 31 c 0,57,58
 274 34 274 34 276 42.5 c 128,-1,59
 278 51 278 51 279 82 c 0,60,61
 292 506 292 506 275 546 c 1,62,63
 224 554 224 554 134 549 c 0,64,65
 88 547 88 547 61 534 c 0,66,67
 50 528 50 528 45.5 521 c 128,-1,68
 41 514 41 514 33 493 c 0,69,70
 30 483 30 483 23 486 c 0,71,72
 14 491 14 491 16 496 c 0,73,74
 49 568 49 568 53 588 c 0,75,76
 55 596 55 596 60 596 c 0,0,1
EndSplineSet
EndChar
StartChar: V
Encoding: 86 86 85
Width: 689
Flags: W
LayerCount: 2
Fore
SplineSet
18 588 m 0,0,1
 20 588 20 588 40 586 c 128,-1,2
 60 584 60 584 101 584 c 0,3,4
 192 584 192 584 212 587 c 0,5,6
 216 588 216 588 216 586 c 2,7,-1
 219 579 l 2,8,9
 221 570 221 570 214 570 c 0,10,11
 161 568 161 568 161 554 c 0,12,13
 161 544 161 544 171 520 c 0,14,15
 215 412 215 412 368 95 c 1,16,-1
 458 282 l 1,17,-1
 504 383 l 1,18,-1
 553 498 l 2,19,20
 563 524 563 524 563 542 c 0,21,22
 563 553 563 553 549 562 c 128,-1,23
 535 571 535 571 515 572 c 0,24,25
 509 572 509 572 510 581 c 0,26,27
 511 587 511 587 512.5 590 c 128,-1,28
 514 593 514 593 517 592 c 0,29,30
 562 586 562 586 621 586 c 0,31,32
 668 586 668 586 672 587 c 0,33,34
 675 588 675 588 676 586 c 128,-1,35
 677 584 677 584 677 579 c 0,36,37
 677 570 677 570 674 571 c 0,38,39
 624 562 624 562 595 503 c 0,40,41
 416 138 416 138 389 78 c 0,42,43
 374 43 374 43 356 -15 c 1,44,-1
 344 -15 l 1,45,46
 317 51 317 51 216.5 258.5 c 128,-1,47
 116 466 116 466 103 491 c 0,48,49
 76 544 76 544 63 556.5 c 128,-1,50
 50 569 50 569 18 569 c 0,51,52
 11 569 11 569 11 578 c 0,53,54
 11 588 11 588 18 588 c 0,0,1
EndSplineSet
EndChar
StartChar: W
Encoding: 87 87 86
Width: 920
Flags: W
LayerCount: 2
Fore
SplineSet
16 591 m 0,0,1
 55 591 55 591 91 588.5 c 128,-1,2
 127 586 127 586 130 586 c 0,3,4
 152 586 152 586 177.5 588 c 128,-1,5
 203 590 203 590 219 592 c 128,-1,6
 235 594 235 594 236 594 c 0,7,8
 244 594 244 594 246 587 c 0,9,10
 248 578 248 578 243 578 c 0,11,12
 216 575 216 575 194.5 565.5 c 128,-1,13
 173 556 173 556 173 541 c 0,14,15
 173 528 173 528 180 505 c 0,16,17
 198 448 198 448 248 310 c 128,-1,18
 298 172 298 172 325 111 c 1,19,-1
 457 415 l 1,20,21
 434 484 434 484 400 542 c 0,22,23
 388 562 388 562 378.5 569 c 128,-1,24
 369 576 369 576 349 576 c 0,25,26
 342 576 342 576 342 583 c 0,27,28
 342 592 342 592 347 592 c 0,29,30
 348 592 348 592 362.5 591 c 128,-1,31
 377 590 377 590 401.5 589.5 c 128,-1,32
 426 589 426 589 452 589 c 0,33,34
 472 589 472 589 496 590 c 2,35,-1
 538 593 l 2,36,37
 554 594 554 594 555 594 c 0,38,39
 560 594 560 594 560 587 c 0,40,41
 560 578 560 578 555 578 c 0,42,43
 527 577 527 577 506.5 568 c 128,-1,44
 486 559 486 559 486 542 c 0,45,46
 486 535 486 535 491 519 c 0,47,48
 590 223 590 223 640 111 c 1,49,50
 672 183 672 183 715 305.5 c 128,-1,51
 758 428 758 428 769 475 c 0,52,53
 779 520 779 520 779 525 c 0,54,55
 779 550 779 550 753 564.5 c 128,-1,56
 727 579 727 579 693 579 c 0,57,58
 687 579 687 579 687 587 c 0,59,60
 687 596 687 596 694 596 c 0,61,62
 696 596 696 596 732.5 594 c 128,-1,63
 769 592 769 592 804 592 c 0,64,65
 834 592 834 592 858 593 c 2,66,-1
 892 594 l 2,67,68
 903 595 903 595 904 595 c 0,69,70
 911 595 911 595 910.5 587 c 128,-1,71
 910 579 910 579 904 579 c 0,72,73
 882 579 882 579 855 562 c 0,74,75
 846 556 846 556 831.5 530 c 128,-1,76
 817 504 817 504 808 482 c 2,77,-1
 738 292 l 1,78,-1
 664 92 l 2,79,80
 636 12 636 12 628 -19 c 1,81,-1
 606 -19 l 1,82,83
 606 -10 606 -10 584 58 c 2,84,-1
 518 247 l 2,85,86
 474 369 474 369 470 379 c 1,87,88
 373 175 373 175 309 -19 c 1,89,-1
 294 -19 l 1,90,91
 148 402 148 402 113 488 c 0,92,93
 91 542 91 542 74.5 556.5 c 128,-1,94
 58 571 58 571 15 576 c 0,95,96
 11 576 11 576 11 582 c 0,97,98
 11 591 11 591 16 591 c 0,0,1
EndSplineSet
EndChar
StartChar: X
Encoding: 88 88 87
Width: 630
Flags: W
LayerCount: 2
Fore
SplineSet
27 594 m 0,0,1
 28 594 28 594 42 593 c 128,-1,2
 56 592 56 592 80 590.5 c 128,-1,3
 104 589 104 589 130 589 c 2,4,-1
 170 589 l 2,5,6
 187 589 187 589 197.5 589.5 c 128,-1,7
 208 590 208 590 215 590.5 c 128,-1,8
 222 591 222 591 226 591 c 2,9,-1
 231 591 l 2,10,11
 236 591 236 591 235 584 c 0,12,13
 235 576 235 576 231 577 c 0,14,15
 187 579 187 579 186 561 c 0,16,17
 186 553 186 553 190 546 c 0,18,19
 205 518 205 518 247 455 c 128,-1,20
 289 392 289 392 331 338 c 1,21,22
 374 391 374 391 396 424 c 128,-1,23
 418 457 418 457 448 511 c 0,24,25
 456 525 456 525 456 544 c 0,26,27
 456 559 456 559 438 568.5 c 128,-1,28
 420 578 420 578 393 579 c 0,29,30
 387 579 387 579 389 586 c 0,31,32
 390 591 390 591 391 593 c 128,-1,33
 392 595 392 595 396 594 c 0,34,35
 449 586 449 586 491 586 c 2,36,-1
 530 586 l 2,37,38
 551 586 551 586 565.5 586.5 c 128,-1,39
 580 587 580 587 582 587 c 0,40,41
 589 587 589 587 589 580 c 0,42,43
 589 572 589 572 581 573 c 0,44,45
 562 575 562 575 551 570.5 c 128,-1,46
 540 566 540 566 525 552 c 0,47,48
 500 529 500 529 344 321 c 1,49,-1
 527 77 l 2,50,51
 530 73 530 73 536.5 65 c 128,-1,52
 543 57 543 57 546 53 c 128,-1,53
 549 49 549 49 555 42 c 2,54,-1
 564 32 l 2,55,56
 568 28 568 28 573 24.5 c 128,-1,57
 578 21 578 21 582 19 c 128,-1,58
 586 17 586 17 591 16 c 128,-1,59
 596 15 596 15 612 13 c 0,60,61
 620 12 620 12 619 2 c 0,62,63
 619 -6 619 -6 612 -6 c 0,64,65
 611 -6 611 -6 600 -4.5 c 128,-1,66
 589 -3 589 -3 567.5 -1.5 c 128,-1,67
 546 0 546 0 520 0 c 0,68,69
 450 0 450 0 410 -6 c 0,70,71
 402 -7 402 -7 402 1 c 0,72,73
 400 11 400 11 406 11 c 0,74,75
 458 15 458 15 458 37 c 0,76,77
 458 51 458 51 443 75 c 2,78,-1
 405 133 l 1,79,-1
 354 207 l 1,80,-1
 307 273 l 1,81,82
 239 186 239 186 175 88 c 0,83,84
 160 65 160 65 160 53 c 0,85,86
 160 32 160 32 179 21 c 128,-1,87
 198 10 198 10 218 9 c 0,88,89
 227 9 227 9 226 0 c 0,90,91
 225 -4 225 -4 223.5 -6 c 128,-1,92
 222 -8 222 -8 219 -7 c 0,93,94
 193 0 193 0 132 0 c 0,95,96
 60 0 60 0 19 -6 c 0,97,98
 15 -7 15 -7 13.5 -4.5 c 128,-1,99
 12 -2 12 -2 12 3 c 0,100,101
 12 12 12 12 17 11 c 0,102,103
 61 11 61 11 102 52 c 0,104,105
 123 72 123 72 159 117 c 2,106,-1
 237 216 l 1,107,-1
 293 289 l 1,108,109
 186 440 186 440 112 529 c 0,110,111
 69 580 69 580 29 580 c 0,112,113
 24 580 24 580 23.5 581 c 128,-1,114
 23 582 23 582 23 586 c 0,115,116
 22 594 22 594 27 594 c 0,0,1
EndSplineSet
EndChar
StartChar: bracketleft
Encoding: 91 91 90
Width: 248
Flags: W
LayerCount: 2
Fore
SplineSet
231 -124 m 2,0,-1
 108 -124 l 2,1,2
 99 -124 99 -124 99 -114 c 2,3,-1
 99 523 l 2,4,5
 99 531 99 531 106 530 c 2,6,-1
 231 530 l 2,7,8
 236 530 236 530 235.5 516 c 128,-1,9
 235 502 235 502 231 502 c 2,10,-1
 154 502 l 2,11,12
 146 502 146 502 147 495 c 2,13,-1
 147 -85 l 2,14,15
 147 -95 147 -95 153 -95 c 2,16,-1
 231 -95 l 2,17,18
 236 -95 236 -95 236 -109.5 c 128,-1,19
 236 -124 236 -124 231 -124 c 2,0,-1
EndSplineSet
Substitution2: "'rtla' Right to Left Alternates lookup 0 subtable" bracketright
EndChar
StartChar: bracketright
Encoding: 93 93 92
Width: 253
Flags: W
LayerCount: 2
Fore
SplineSet
158 -114 m 2,0,1
 158 -123 158 -123 148 -124 c 2,2,-1
 18 -124 l 2,3,4
 10 -124 10 -124 10 -109.5 c 128,-1,5
 10 -95 10 -95 16 -95 c 2,6,-1
 104 -95 l 2,7,8
 108 -95 108 -95 109 -87 c 2,9,-1
 109 495 l 2,10,11
 109 499 109 499 107.5 501 c 128,-1,12
 106 503 106 503 103 502 c 2,13,-1
 26 502 l 2,14,15
 17 502 17 502 17 516 c 128,-1,16
 17 530 17 530 25 530 c 2,17,-1
 150 530 l 2,18,19
 158 530 158 530 158 523 c 2,20,-1
 158 -114 l 2,0,1
EndSplineSet
Substitution2: "'rtla' Right to Left Alternates lookup 0 subtable" bracketleft
EndChar
StartChar: g
Encoding: 103 103 102
Width: 403
Flags: W
LayerCount: 2
Fore
SplineSet
41 175 m 0,0,1
 37 214 37 214 55 251 c 128,-1,2
 73 288 73 288 104 313 c 0,3,4
 128 333 128 333 159 341 c 0,5,6
 218 358 218 358 268 327 c 0,7,8
 273 323 273 323 281 320 c 0,9,10
 283 319 283 319 287.5 319.5 c 128,-1,11
 292 320 292 320 294 320 c 0,12,13
 306 323 306 323 333 325 c 0,14,15
 351 326 351 326 372 323 c 0,16,17
 376 323 376 323 377 322 c 128,-1,18
 378 321 378 321 379 320.5 c 128,-1,19
 380 320 380 320 381 320 c 0,20,21
 382 319 382 319 382 315 c 2,22,-1
 382 311 l 2,23,24
 382 302 382 302 379 296 c 0,25,26
 376 288 376 288 372 284 c 2,27,-1
 371 282 l 2,28,29
 370 281 370 281 369 281 c 2,30,-1
 366 281 l 2,31,32
 365 281 365 281 363 282 c 0,33,34
 348 286 348 286 340 286 c 0,35,36
 321 289 321 289 305 289 c 1,37,38
 318 259 318 259 324 230 c 0,39,40
 329 205 329 205 326 184 c 0,41,42
 323 160 323 160 312 139 c 0,43,44
 303 122 303 122 281 103 c 0,45,46
 257 83 257 83 199 57 c 2,47,-1
 170 44 l 2,48,49
 156 38 156 38 147 32 c 0,50,51
 126 19 126 19 123 17 c 0,52,53
 122 16 122 16 120 14.5 c 128,-1,54
 118 13 118 13 117 12 c 128,-1,55
 116 11 116 11 114 6 c 0,56,57
 113 2 113 2 114 -2 c 128,-1,58
 115 -6 115 -6 119 -9 c 0,59,60
 125 -15 125 -15 132 -18 c 0,61,62
 158 -29 158 -29 216 -27 c 0,63,64
 276 -25 276 -25 301 -32 c 0,65,66
 328 -41 328 -41 344 -55 c 0,67,68
 364 -74 364 -74 370 -96 c 0,69,70
 377 -123 377 -123 364 -154 c 0,71,72
 354 -179 354 -179 329 -200 c 0,73,74
 280 -243 280 -243 205 -262 c 0,75,76
 166 -271 166 -271 136 -270 c 0,77,78
 98 -268 98 -268 70 -252 c 0,79,80
 45 -238 45 -238 34 -218 c 0,81,82
 21 -195 21 -195 22 -171 c 0,83,84
 24 -145 24 -145 36 -124 c 0,85,86
 45 -108 45 -108 69 -86 c 0,87,88
 79 -77 79 -77 104 -61 c 1,89,-1
 83 -43 l 2,90,91
 74 -34 74 -34 66 -21 c 0,92,93
 60 -10 60 -10 59 -4 c 0,94,95
 59 -3 59 -3 58.5 -1.5 c 128,-1,96
 58 0 58 0 58 1 c 128,-1,97
 58 2 58 2 58.5 3.5 c 128,-1,98
 59 5 59 5 59 6 c 0,99,100
 58 8 58 8 60 9 c 0,101,102
 61 10 61 10 65 12 c 0,103,104
 88 25 88 25 92 26 c 2,105,-1
 125 41 l 1,106,-1
 150 53 l 1,107,108
 140 56 140 56 121 65 c 0,109,110
 88 81 88 81 67 110 c 128,-1,111
 46 139 46 139 41 175 c 0,0,1
124 310 m 0,112,113
 105 297 105 297 92 271 c 0,114,115
 81 248 81 248 80 222 c 0,116,117
 80 171 80 171 117 130 c 0,118,119
 153 89 153 89 204 78 c 1,120,121
 223 84 223 84 238 95 c 0,122,123
 264 115 264 115 273 147 c 0,124,125
 279 172 279 172 276 196 c 0,126,127
 273 224 273 224 263 252 c 0,128,129
 252 284 252 284 233 302 c 0,130,131
 209 325 209 325 180 325 c 0,132,133
 148 327 148 327 124 310 c 0,112,113
91 -88 m 0,134,135
 74 -100 74 -100 63 -114 c 0,136,137
 51 -130 51 -130 50 -150 c 0,138,139
 49 -173 49 -173 64 -193 c 0,140,141
 75 -208 75 -208 102 -220 c 0,142,143
 145 -240 145 -240 194 -235 c 0,144,145
 248 -230 248 -230 293 -204 c 0,146,147
 308 -195 308 -195 320 -182 c 0,148,149
 330 -171 330 -171 333 -152 c 0,150,151
 335 -138 335 -138 330 -117 c 0,152,153
 324 -100 324 -100 317.5 -91.5 c 128,-1,154
 311 -83 311 -83 298 -78 c 0,155,156
 290 -75 290 -75 275 -74 c 0,157,158
 251 -73 251 -73 228 -74 c 0,159,160
 188 -76 188 -76 161 -72 c 0,161,162
 149 -71 149 -71 130 -67 c 1,163,164
 108 -77 108 -77 91 -88 c 0,134,135
EndSplineSet
EndChar
StartChar: j
Encoding: 106 106 105
Width: 226
Flags: W
LayerCount: 2
Fore
SplineSet
161 539 m 0,0,1
 177 532 177 532 176 531 c 0,2,3
 169 524 169 524 156 508 c 0,4,5
 137 483 137 483 135 479 c 1,6,-1
 111 509 l 1,7,-1
 92 529 l 1,8,9
 114 541 114 541 127 572 c 1,10,11
 131 571 131 571 145.5 556 c 128,-1,12
 160 541 160 541 161 539 c 0,0,1
106 317 m 0,13,14
 135 336 135 336 152 352 c 0,15,16
 153 353 153 353 154 353 c 128,-1,17
 155 353 155 353 157 354 c 2,18,-1
 158 354 l 2,19,20
 159 353 159 353 160 353 c 128,-1,21
 161 353 161 353 162 352 c 2,22,-1
 164 349 l 2,23,24
 166 347 166 347 166 346 c 2,25,-1
 166 343 l 2,26,27
 166 342 166 342 165.5 341 c 128,-1,28
 165 340 165 340 165 339 c 0,29,30
 156 317 156 317 156 285 c 0,31,32
 155 259 155 259 155 204 c 128,-1,33
 155 149 155 149 154 123 c 0,34,35
 152 -40 152 -40 152 -121 c 0,36,37
 152 -135 152 -135 149 -142 c 0,38,39
 148 -145 148 -145 138 -160 c 0,40,41
 120 -185 120 -185 104 -200 c 0,42,43
 95 -209 95 -209 77 -224 c 0,44,45
 51 -245 51 -245 49 -247 c 0,46,47
 39 -260 39 -260 36 -276 c 0,48,49
 36 -278 36 -278 35 -279 c 0,50,51
 33 -281 33 -281 32 -281 c 2,52,-1
 29 -281 l 2,53,54
 28 -281 28 -281 26 -280 c 0,55,56
 25 -279 25 -279 24 -279 c 2,57,-1
 22 -277 l 2,58,59
 21 -276 21 -276 21 -275 c 2,60,-1
 21 -274 l 1,61,-1
 20 -272 l 1,62,63
 21 -263 21 -263 26 -247 c 0,64,65
 32 -231 32 -231 45 -212 c 0,66,67
 49 -206 49 -206 57 -195 c 128,-1,68
 65 -184 65 -184 69 -179 c 0,69,70
 85 -155 85 -155 92 -131 c 0,71,72
 98 -110 98 -110 99 -78 c 0,73,74
 104 4 104 4 104 69 c 0,75,76
 104 130 104 130 99 208 c 0,77,78
 97 231 97 231 95 240 c 0,79,80
 93 251 93 251 92 255 c 0,81,82
 89 263 89 263 84 268 c 0,83,84
 78 274 78 274 70 275 c 0,85,86
 64 276 64 276 55 274 c 2,87,-1
 45 272 l 1,88,-1
 44 272 l 2,89,90
 43 271 43 271 42.5 271 c 128,-1,91
 42 271 42 271 41 271.5 c 128,-1,92
 40 272 40 272 39 272 c 2,93,-1
 37 274 l 2,94,95
 35 276 35 276 35 277 c 128,-1,96
 35 278 35 278 36 280 c 0,97,98
 36 281 36 281 38 283 c 2,99,-1
 43 285 l 2,100,101
 76 299 76 299 106 317 c 0,13,14
EndSplineSet
EndChar
StartChar: m
Encoding: 109 109 108
Width: 687
Flags: W
LayerCount: 2
Fore
SplineSet
189 300 m 0,0,1
 217 314 217 314 236 320 c 0,2,3
 274 332 274 332 297 330 c 0,4,5
 323 327 323 327 341 311 c 0,6,7
 358 296 358 296 365 277 c 1,8,9
 408 301 408 301 451 313 c 0,10,11
 484 322 484 322 513 322 c 0,12,13
 532 322 532 322 549 316.5 c 128,-1,14
 566 311 566 311 579 296 c 0,15,16
 593 279 593 279 597 253 c 0,17,18
 602 228 602 228 602 195 c 0,19,20
 602 152 602 152 601 131 c 0,21,22
 599 98 599 98 601 66 c 2,23,-1
 604 32 l 2,24,25
 604 28 604 28 605 26 c 0,26,27
 607 22 607 22 608 22 c 2,28,-1
 613 19 l 2,29,30
 615 18 615 18 618 18 c 2,31,-1
 662 15 l 1,32,-1
 666 15 l 2,33,34
 667 15 667 15 668 13 c 0,35,36
 669 12 669 12 669 10 c 0,37,38
 669 9 669 9 669.5 8.5 c 128,-1,39
 670 8 670 8 670 7 c 128,-1,40
 670 6 670 6 669 4 c 0,41,42
 669 3 669 3 668 2 c 2,43,-1
 666 0 l 1,44,-1
 663 0 l 1,45,-1
 584 0 l 2,46,47
 528 0 528 0 501 -1 c 2,48,-1
 499 -1 l 2,49,50
 498 -1 498 -1 496 1 c 0,51,52
 495 2 495 2 495 3 c 2,53,-1
 495 4 l 1,54,-1
 494 6 l 2,55,56
 494 8 494 8 496 9 c 2,57,-1
 498 11 l 1,58,-1
 500 11 l 1,59,-1
 512 13 l 2,60,61
 520 15 520 15 525 17 c 0,62,63
 532 20 532 20 535 26 c 0,64,65
 538 30 538 30 540 38 c 0,66,67
 541 40 541 40 541 44.5 c 128,-1,68
 541 49 541 49 542 51 c 0,69,70
 548 98 548 98 548 123 c 0,71,72
 550 187 550 187 542 224 c 0,73,74
 536 245 536 245 530 254 c 0,75,76
 520 271 520 271 508 279 c 0,77,78
 495 288 495 288 476 290 c 0,79,80
 463 293 463 293 444 289 c 0,81,82
 407 283 407 283 368 266 c 1,83,84
 372 251 372 251 372 218 c 2,85,-1
 372 180 l 1,86,-1
 372 156 l 1,87,-1
 372 132 l 2,88,89
 373 100 373 100 373 37 c 0,90,91
 373 34 373 34 375 26 c 0,92,93
 376 20 376 20 381 18 c 0,94,95
 386 14 386 14 391 13 c 0,96,97
 393 13 393 13 396.5 12 c 128,-1,98
 400 11 400 11 402 11 c 2,99,-1
 419 9 l 1,100,-1
 422 9 l 1,101,-1
 423 8 l 1,102,-1
 424 8 l 2,103,104
 426 8 426 8 425 6 c 2,105,-1
 425 3 l 2,106,107
 425 2 425 2 424.5 2 c 128,-1,108
 424 2 424 2 424 1 c 128,-1,109
 424 0 424 0 423 0 c 0,110,111
 422 -1 422 -1 418 -1 c 2,112,-1
 350 -1 l 2,113,114
 324 -1 324 -1 268 -3 c 2,115,-1
 266 -3 l 2,116,117
 265 -3 265 -3 264 -2 c 2,118,-1
 262 0 l 1,119,-1
 261 1 l 1,120,-1
 261 3 l 2,121,122
 261 5 261 5 264 8 c 2,123,-1
 266 9 l 1,124,-1
 268 9 l 1,125,-1
 279 11 l 2,126,127
 289 13 289 13 295 16 c 0,128,129
 304 21 304 21 309 27 c 0,130,131
 314 34 314 34 316 43 c 0,132,133
 318 54 318 54 318 60 c 0,134,135
 320 107 320 107 320 131 c 0,136,137
 320 152 320 152 318 192 c 0,138,139
 316 228 316 228 311 246 c 0,140,141
 307 257 307 257 300 269 c 0,142,143
 293 279 293 279 281 287 c 0,144,145
 261 298 261 298 233 296 c 0,146,147
 213 294 213 294 187 284 c 0,148,149
 170 277 170 277 138 260 c 1,150,-1
 138 52 l 2,151,152
 138 50 138 50 138.5 46.5 c 128,-1,153
 139 43 139 43 139 41 c 0,154,155
 139 35 139 35 142 29 c 0,156,157
 144 25 144 25 149 22 c 0,158,159
 154 18 154 18 160 17 c 2,160,-1
 189 10 l 2,161,162
 190 10 190 10 194 9 c 2,163,-1
 195 8 l 2,164,165
 197 8 197 8 197 7 c 2,166,-1
 197 4 l 1,167,-1
 197 1 l 1,168,-1
 195 -1 l 2,169,170
 194 -2 194 -2 192 -2 c 2,171,-1
 189 -2 l 1,172,-1
 32 0 l 1,173,-1
 29 0 l 2,174,175
 28 0 28 0 27 1 c 2,176,-1
 26 3 l 1,177,-1
 26 6 l 1,178,-1
 26 8 l 1,179,-1
 28 9 l 2,180,181
 29 9 29 9 30.5 10 c 128,-1,182
 32 11 32 11 33 11 c 0,183,184
 47 17 47 17 61 27 c 0,185,186
 71 36 71 36 78 48 c 0,187,188
 83 57 83 57 84 74 c 0,189,190
 88 115 88 115 87 155 c 2,191,-1
 84 231 l 2,192,193
 82 256 82 256 72 268 c 0,194,195
 64 277 64 277 53.5 281.5 c 128,-1,196
 43 286 43 286 32 285 c 2,197,-1
 29 285 l 1,198,-1
 26 285 l 2,199,200
 24 285 24 285 23.5 285.5 c 128,-1,201
 23 286 23 286 23 288 c 2,202,-1
 23 291 l 1,203,-1
 25 293 l 2,204,205
 29 295 29 295 30 295 c 0,206,207
 53 301 53 301 78 311 c 0,208,209
 104 322 104 322 121 335 c 0,210,211
 123 337 123 337 124 337 c 2,212,-1
 125 337 l 1,213,-1
 127 337 l 2,214,215
 129 337 129 337 132 336 c 0,216,217
 135 336 135 336 136 335 c 2,218,-1
 138 333 l 2,219,220
 140 331 140 331 140 330 c 2,221,-1
 140 326 l 1,222,-1
 139 275 l 1,223,224
 166 290 166 290 189 300 c 0,0,1
EndSplineSet
EndChar
StartChar: r
Encoding: 114 114 113
Width: 305
Flags: W
LayerCount: 2
Fore
SplineSet
233 286 m 0,0,1
 226 293 226 293 214 295 c 0,2,3
 206 296 206 296 193 292 c 0,4,5
 172 285 172 285 147 267 c 0,6,7
 139 261 139 261 137 257 c 2,8,-1
 134 251 l 1,9,-1
 134 244 l 2,10,11
 133 212 133 212 133 147 c 0,12,13
 133 91 133 91 136 35 c 0,14,15
 136 29 136 29 137 27 c 2,16,-1
 138 25 l 2,17,18
 139 22 139 22 140 21 c 0,19,20
 142 19 142 19 145.5 17 c 128,-1,21
 149 15 149 15 152 15 c 0,22,23
 169 13 169 13 179 13 c 0,24,25
 200 12 200 12 220 13 c 2,26,-1
 223 13 l 2,27,28
 225 13 225 13 226 12 c 0,29,30
 228 10 228 10 228 9 c 2,31,-1
 229 9 l 1,32,-1
 229 7 l 2,33,34
 229 4 229 4 228 3 c 2,35,-1
 227 2 l 2,36,37
 227 0 227 0 226 0 c 0,38,39
 224 -2 224 -2 222 -2 c 2,40,-1
 218 -2 l 1,41,-1
 37 -5 l 1,42,-1
 35 -5 l 2,43,44
 34 -5 34 -5 32 -4 c 0,45,46
 30 -4 30 -4 30 -2 c 2,47,-1
 30 0 l 1,48,-1
 30 3 l 1,49,-1
 32 5 l 2,50,51
 33 6 33 6 34 6 c 0,52,53
 36 7 36 7 37 7 c 2,54,-1
 57 12 l 1,55,-1
 62 15 l 2,56,57
 65 17 65 17 67 20 c 2,58,-1
 70 26 l 2,59,60
 71 28 71 28 71 32 c 0,61,62
 78 83 78 83 79 134 c 0,63,64
 81 196 81 196 74 258 c 0,65,66
 74 263 74 263 72 268.5 c 128,-1,67
 70 274 70 274 65 277 c 0,68,69
 63 279 63 279 58 281 c 0,70,71
 55 282 55 282 49 282 c 0,72,73
 36 282 36 282 30 281 c 2,74,-1
 26 281 l 2,75,76
 25 281 25 281 25 281.5 c 128,-1,77
 25 282 25 282 24 282 c 0,78,79
 22 282 22 282 22 283 c 2,80,-1
 22 285 l 1,81,-1
 22 287 l 2,82,83
 22 289 22 289 24 289 c 0,84,85
 25 289 25 289 25 289.5 c 128,-1,86
 25 290 25 290 26 290 c 0,87,88
 60 309 60 309 77 320 c 0,89,90
 90 328 90 328 124 351 c 0,91,92
 125 352 125 352 128 352 c 0,93,94
 130 352 130 352 130 351 c 0,95,96
 132 349 132 349 132 348 c 2,97,-1
 132 347 l 2,98,99
 133 346 133 346 133 345 c 2,100,-1
 132 277 l 1,101,-1
 239 341 l 1,102,-1
 243 344 l 2,103,104
 244 345 244 345 246 345 c 2,105,-1
 250 345 l 2,106,107
 253 345 253 345 253 344 c 2,108,-1
 269 332 l 2,109,110
 280 323 280 323 282 322 c 0,111,112
 288 315 288 315 289 309 c 0,113,114
 291 300 291 300 286 291 c 0,115,116
 283 285 283 285 274 278 c 128,-1,117
 265 271 265 271 251 267 c 0,118,119
 250 267 250 267 249 266.5 c 128,-1,120
 248 266 248 266 247 266 c 2,121,-1
 243 266 l 1,122,-1
 240 268 l 2,123,124
 239 269 239 269 239 272 c 0,125,126
 238 281 238 281 233 286 c 0,0,1
EndSplineSet
EndChar
StartChar: w
Encoding: 119 119 118
Width: 571
Flags: W
LayerCount: 2
Fore
SplineSet
35 323 m 0,0,1
 55 324 55 324 95 324 c 0,2,3
 122 324 122 324 155 329 c 0,4,5
 156 329 156 329 158 329.5 c 128,-1,6
 160 330 160 330 161 330 c 0,7,8
 163 330 163 330 164 329 c 2,9,-1
 166 326 l 1,10,-1
 166 323 l 2,11,12
 166 321 166 321 165 320.5 c 128,-1,13
 164 320 164 320 163 320 c 2,14,-1
 162 320 l 2,15,16
 161 319 161 319 160 319 c 2,17,-1
 152 318 l 2,18,19
 151 318 151 318 146.5 317 c 128,-1,20
 142 316 142 316 140 315 c 0,21,22
 131 310 131 310 129 308 c 0,23,24
 125 304 125 304 125 295.5 c 128,-1,25
 125 287 125 287 126 284 c 0,26,27
 132 258 132 258 147 204 c 0,28,29
 163 146 163 146 190 74 c 1,30,-1
 279 261 l 1,31,-1
 268 284 l 2,32,33
 259 299 259 299 254 303 c 0,34,35
 250 307 250 307 245 310 c 2,36,-1
 233 313 l 1,37,-1
 227 314 l 2,38,39
 223 314 223 314 221 315 c 0,40,41
 218 316 218 316 218 320 c 1,42,-1
 219 320 l 1,43,-1
 219 322 l 2,44,45
 219 323 219 323 221 325 c 0,46,47
 222 326 222 326 223 326 c 2,48,-1
 227 326 l 2,49,50
 255 325 255 325 283 326 c 0,51,52
 329 328 329 328 367 333 c 1,53,-1
 372 333 l 2,54,55
 373 333 373 333 374 332 c 128,-1,56
 375 331 375 331 375 330 c 2,57,-1
 375 327 l 2,58,59
 375 325 375 325 374 324 c 128,-1,60
 373 323 373 323 372 323 c 0,61,62
 371 322 371 322 370 322 c 2,63,-1
 357 319 l 2,64,65
 349 317 349 317 344 315 c 0,66,67
 336 312 336 312 331.5 308 c 128,-1,68
 327 304 327 304 325 297 c 2,69,-1
 325 290 l 2,70,71
 325 285 325 285 326 284 c 0,72,73
 341 231 341 231 353 195 c 2,74,-1
 392 77 l 1,75,-1
 434 161 l 1,76,-1
 460 220 l 2,77,78
 465 231 465 231 478 268 c 0,79,80
 482 277 482 277 483 284 c 0,81,82
 485 295 485 295 484 300 c 0,83,84
 482 309 482 309 475 313 c 0,85,86
 472 316 472 316 469 317 c 0,87,88
 467 318 467 318 464 318 c 128,-1,89
 461 318 461 318 460 319 c 2,90,-1
 450 320 l 1,91,-1
 449 321 l 1,92,-1
 448 321 l 2,93,94
 447 321 447 321 446 322 c 0,95,96
 444 324 444 324 444 325 c 2,97,-1
 444 327 l 1,98,-1
 444 328 l 2,99,100
 445 329 445 329 445 330 c 0,101,102
 445 332 445 332 446 333 c 128,-1,103
 447 334 447 334 449 334 c 2,104,-1
 452 334 l 1,105,106
 486 330 486 330 503 330 c 0,107,108
 535 330 535 330 550 332 c 2,109,-1
 552 332 l 1,110,-1
 554 332 l 2,111,112
 556 332 556 332 556 330 c 0,113,114
 556 329 556 329 556.5 329 c 128,-1,115
 557 329 557 329 557 328 c 128,-1,116
 557 327 557 327 556.5 327 c 128,-1,117
 556 327 556 327 556 326 c 128,-1,118
 556 325 556 325 555 324 c 2,119,-1
 552 321 l 1,120,-1
 546 318 l 2,121,122
 533 309 533 309 528 302 c 0,123,124
 521 293 521 293 516 281 c 2,125,-1
 425 96 l 1,126,-1
 395 33 l 2,127,128
 383 8 383 8 377 -9 c 1,129,-1
 377 -11 l 1,130,-1
 376 -12 l 1,131,-1
 376 -13 l 2,132,133
 376 -15 376 -15 374 -15 c 2,134,-1
 372 -15 l 1,135,-1
 366 -15 l 1,136,-1
 365 -15 l 1,137,-1
 363 -15 l 1,138,-1
 362 -14 l 1,139,-1
 362 -13 l 1,140,-1
 361 -12 l 1,141,-1
 361 -10 l 1,142,-1
 361 -8 l 1,143,144
 340 73 340 73 316 150 c 0,145,146
 297 207 297 207 286 235 c 1,147,-1
 210 77 l 1,148,-1
 169 -12 l 2,149,150
 169 -14 169 -14 168 -15 c 128,-1,151
 167 -16 167 -16 166 -16 c 0,152,153
 164 -17 164 -17 162 -17 c 2,154,-1
 159 -17 l 2,155,156
 158 -17 158 -17 157 -16 c 2,157,-1
 155 -14 l 1,158,-1
 155 -11 l 2,159,160
 154 11 154 11 146 39 c 2,161,-1
 108 161 l 1,162,-1
 78 246 l 2,163,164
 68 275 68 275 58 290 c 0,165,166
 49 301 49 301 46 303 c 128,-1,167
 43 305 43 305 37 307 c 128,-1,168
 31 309 31 309 28 309 c 2,169,-1
 21 310 l 1,170,-1
 18 310 l 2,171,172
 16 310 16 310 16 312 c 2,173,-1
 16 314 l 1,174,-1
 15 315 l 1,175,-1
 15 316 l 1,176,-1
 15 317 l 2,177,178
 16 318 16 318 16 319 c 128,-1,179
 16 320 16 320 17 320.5 c 128,-1,180
 18 321 18 321 20 321 c 2,181,-1
 21 321 l 1,182,-1
 23 322 l 2,183,184
 25 322 25 322 29 322.5 c 128,-1,185
 33 323 33 323 35 323 c 0,0,1
EndSplineSet
EndChar
StartChar: z
Encoding: 122 122 121
Width: 397
Flags: W
LayerCount: 2
Fore
SplineSet
117 23 m 1,0,1
 127 23 127 23 178 22 c 128,-1,2
 229 21 229 21 239 22 c 0,3,4
 271 24 271 24 287 27 c 0,5,6
 311 33 311 33 330 49 c 0,7,8
 352 67 352 67 359 95 c 0,9,10
 359 98 359 98 360 98 c 128,-1,11
 361 98 361 98 361 99 c 128,-1,12
 361 100 361 100 362 101 c 0,13,14
 364 103 364 103 366 103 c 0,15,16
 369 103 369 103 370 102 c 0,17,18
 371 102 371 102 371 101 c 2,19,-1
 372 100 l 2,20,21
 373 99 373 99 373 96 c 0,22,23
 373 91 373 91 372 89 c 2,24,-1
 364 52 l 2,25,26
 358 29 358 29 350 6 c 0,27,28
 350 5 350 5 348 3 c 0,29,30
 348 2 348 2 347 1 c 2,31,-1
 346 0 l 2,32,33
 344 -2 344 -2 343 -2 c 2,34,-1
 339 -2 l 2,35,36
 307 0 307 0 247 2 c 0,37,38
 147 5 147 5 36 -3 c 1,39,-1
 33 -3 l 2,40,41
 32 -3 32 -3 30 -2 c 0,42,43
 29 -2 29 -2 28 -1 c 128,-1,44
 27 0 27 0 27 2 c 0,45,46
 27 5 27 5 28 7 c 128,-1,47
 29 9 29 9 31 10 c 0,48,49
 92 74 92 74 157 154 c 2,50,-1
 167 166 l 1,51,-1
 49 166 l 1,52,-1
 62 193 l 1,53,-1
 188 193 l 1,54,55
 231 250 231 250 272 311 c 1,56,57
 224 313 224 313 198 312 c 0,58,59
 138 310 138 310 95 305 c 0,60,61
 84 303 84 303 78 302 c 0,62,63
 69 299 69 299 61 293 c 0,64,65
 46 283 46 283 38 268 c 2,66,-1
 34 261 l 1,67,-1
 33 259 l 2,68,69
 32 257 32 257 31 257 c 0,70,71
 29 255 29 255 28 255 c 0,72,73
 24 255 24 255 24 256 c 0,74,75
 21 259 21 259 21 260 c 128,-1,76
 21 261 21 261 21.5 262.5 c 128,-1,77
 22 264 22 264 22 265 c 0,78,79
 22 268 22 268 24 269 c 0,80,81
 32 282 32 282 35 296 c 0,82,83
 41 311 41 311 43 329 c 0,84,85
 43 331 43 331 44 332 c 2,86,-1
 47 335 l 2,87,88
 48 336 48 336 50 336 c 0,89,90
 51 336 51 336 53 335 c 0,91,92
 66 333 66 333 95 331 c 0,93,94
 148 327 148 327 225 329 c 0,95,96
 274 330 274 330 356 334 c 1,97,-1
 358 334 l 1,98,-1
 360 334 l 2,99,100
 361 334 361 334 361 333 c 2,101,-1
 362 332 l 1,102,-1
 362 331 l 2,103,104
 362 328 362 328 361 327 c 2,105,-1
 360 326 l 2,106,107
 359 325 359 325 359 324 c 2,108,-1
 301 252 l 1,109,-1
 250 193 l 1,110,-1
 351 193 l 1,111,-1
 336 166 l 1,112,-1
 227 166 l 1,113,-1
 211 147 l 2,114,115
 162 89 162 89 117 23 c 1,0,1
EndSplineSet
EndChar
StartChar: bar
Encoding: 124 124 123
Width: 182
Flags: W
LayerCount: 2
Fore
SplineSet
124 -116 m 1,0,-1
 79 -116 l 1,1,-1
 79 496 l 1,2,-1
 124 496 l 1,3,-1
 124 -116 l 1,0,-1
EndSplineSet
EndChar
StartChar: asciitilde
Encoding: 126 126 125
Width: 231
Flags: W
LayerCount: 2
Fore
SplineSet
225 177 m 2,0,1
 225 165 225 165 199 144 c 0,2,3
 169 122 169 122 153 121 c 0,4,5
 138 121 138 121 104 132 c 0,6,7
 69 145 69 145 58 146 c 0,8,9
 36 146 36 146 16 121 c 1,10,-1
 15 121 l 2,11,12
 12 121 12 121 9 125 c 2,13,-1
 9 129 l 1,14,-1
 9 130 l 1,15,16
 44 182 44 182 82 182 c 0,17,18
 95 182 95 182 130 169 c 0,19,20
 155 159 155 159 171 159 c 0,21,22
 190 159 190 159 216 183 c 2,23,-1
 218 185 l 2,24,25
 220 185 220 185 225 179 c 1,26,-1
 225 177 l 2,0,1
EndSplineSet
EndChar
StartChar: uni0081
Encoding: 129 129 128
Width: 790
Flags: W
LayerCount: 2
Fore
SplineSet
572 104 m 1,0,1
 598 101 598 101 606 101 c 0,2,3
 616 102 616 102 626 107 c 0,4,5
 639 113 639 113 642 130 c 128,-1,6
 645 147 645 147 634 157 c 0,7,8
 623 169 623 169 597 169 c 0,9,10
 576 169 576 169 573 166 c 0,11,12
 572 165 572 165 572 149 c 2,13,-1
 572 104 l 1,0,1
510 187 m 1,14,-1
 606 187 l 2,15,16
 641 185 641 185 657 175 c 0,17,18
 678 162 678 162 677.5 134 c 128,-1,19
 677 106 677 106 656 94 c 0,20,21
 647 89 647 89 635 86.5 c 128,-1,22
 623 84 623 84 616 83.5 c 128,-1,23
 609 83 609 83 591.5 83.5 c 128,-1,24
 574 84 574 84 572 84 c 2,25,-1
 572 34 l 2,26,27
 572 16 572 16 581 10 c 0,28,29
 584 8 584 8 599 8 c 1,30,-1
 599 -2 l 1,31,-1
 510 -2 l 1,32,-1
 510 7 l 1,33,34
 531 7 531 7 535 20 c 0,35,36
 537 24 537 24 537 30 c 128,-1,37
 537 36 537 36 536.5 43.5 c 128,-1,38
 536 51 536 51 536 54 c 2,39,-1
 536 127 l 2,40,41
 536 130 536 130 536.5 138.5 c 128,-1,42
 537 147 537 147 537 154 c 128,-1,43
 537 161 537 161 535 165 c 0,44,45
 532 173 532 173 526.5 175 c 128,-1,46
 521 177 521 177 510 177 c 1,47,-1
 510 187 l 1,14,-1
388 386 m 0,48,49
 365 382 365 382 351 355 c 0,50,51
 329 312 329 312 349 266 c 0,52,53
 357 248 357 248 370.5 237.5 c 128,-1,54
 384 227 384 227 402 230 c 0,55,56
 425 234 425 234 439 261 c 0,57,58
 462 306 462 306 441 352 c 0,59,60
 422 391 422 391 388 386 c 0,48,49
385 403 m 0,61,62
 400 405 400 405 417 401 c 0,63,64
 450 393 450 393 468 364.5 c 128,-1,65
 486 336 486 336 485 304.5 c 128,-1,66
 484 273 484 273 464.5 245.5 c 128,-1,67
 445 218 445 218 411 213 c 0,68,69
 385 209 385 209 363 217 c 0,70,71
 332 228 332 228 316.5 258.5 c 128,-1,72
 301 289 301 289 306 323 c 128,-1,73
 311 357 311 357 333 380 c 0,74,75
 352 399 352 399 385 403 c 0,61,62
98 618 m 1,76,-1
 185 618 l 1,77,-1
 185 608 l 1,78,79
 172 608 172 608 168 605 c 0,80,81
 159 598 159 598 159 579 c 2,82,-1
 159 532 l 1,83,-1
 236 532 l 1,84,-1
 236 582 l 2,85,86
 236 600 236 600 227 606 c 0,87,88
 224 608 224 608 209 608 c 1,89,-1
 209 618 l 1,90,-1
 298 618 l 1,91,-1
 298 608 l 1,92,93
 277 608 277 608 272 595 c 0,94,95
 271 591 271 591 271 585.5 c 128,-1,96
 271 580 271 580 271.5 572.5 c 128,-1,97
 272 565 272 565 272 562 c 2,98,-1
 272 490 l 2,99,100
 272 487 272 487 271 477.5 c 128,-1,101
 270 468 270 468 270.5 461.5 c 128,-1,102
 271 455 271 455 273 450 c 0,103,104
 276 442 276 442 281.5 440.5 c 128,-1,105
 287 439 287 439 298 439 c 1,106,-1
 298 428 l 1,107,-1
 209 428 l 1,108,-1
 209 438 l 1,109,110
 223 438 223 438 228 442 c 0,111,112
 235 448 235 448 236 466 c 2,113,-1
 236 514 l 1,114,-1
 159 514 l 1,115,-1
 159 465 l 2,116,117
 159 446 159 446 169 440 c 0,118,119
 172 438 172 438 185 439 c 1,120,-1
 185 428 l 1,121,-1
 98 428 l 1,122,-1
 98 438 l 1,123,124
 118 438 118 438 123 451 c 0,125,126
 125 456 125 456 125 462.5 c 128,-1,127
 125 469 125 469 124.5 478.5 c 128,-1,128
 124 488 124 488 124 491 c 2,129,-1
 124 562 l 2,130,131
 124 564 124 564 124.5 572 c 128,-1,132
 125 580 125 580 124.5 585.5 c 128,-1,133
 124 591 124 591 123 595 c 0,134,135
 120 603 120 603 114 605.5 c 128,-1,136
 108 608 108 608 98 608 c 1,137,-1
 98 618 l 1,76,-1
EndSplineSet
EndChar
StartChar: uni008B
Encoding: 139 139 138
Width: 790
Flags: W
LayerCount: 2
Fore
SplineSet
565 170 m 1,0,-1
 565 15 l 1,1,-1
 573 15 l 1,2,-1
 582 15 l 2,3,4
 584 15 584 15 589.5 15.5 c 128,-1,5
 595 16 595 16 598 16 c 2,6,-1
 605 18 l 2,7,8
 610 19 610 19 613 20.5 c 128,-1,9
 616 22 616 22 619.5 24 c 128,-1,10
 623 26 623 26 627 29 c 0,11,12
 648 48 648 48 648 90 c 0,13,14
 648 142 648 142 620 161 c 0,15,16
 615 164 615 164 610 166 c 128,-1,17
 605 168 605 168 598 169 c 128,-1,18
 591 170 591 170 588 170 c 2,19,-1
 576 170 l 1,20,-1
 565 170 l 1,0,-1
308 403 m 1,21,-1
 396 403 l 1,22,-1
 396 393 l 1,23,24
 374 393 374 393 371 379 c 0,25,26
 369 373 369 373 369 365 c 128,-1,27
 369 357 369 357 369.5 346.5 c 128,-1,28
 370 336 370 336 370 332 c 2,29,-1
 370 230 l 1,30,-1
 422 230 l 2,31,32
 443 230 443 230 446 232 c 0,33,34
 454 235 454 235 464 254 c 0,35,36
 468 263 468 263 469 263 c 0,37,38
 470 264 470 264 483 264 c 1,39,-1
 468 213 l 1,40,-1
 308 213 l 1,41,-1
 308 223 l 1,42,43
 329 223 329 223 333 237 c 0,44,45
 334 241 334 241 334.5 246.5 c 128,-1,46
 335 252 335 252 334.5 259 c 128,-1,47
 334 266 334 266 334 269 c 2,48,-1
 334 339 l 2,49,50
 334 342 334 342 334.5 351.5 c 128,-1,51
 335 361 335 361 335 368 c 128,-1,52
 335 375 335 375 333 380 c 0,53,54
 330 388 330 388 324.5 390 c 128,-1,55
 319 392 319 392 308 392 c 1,56,-1
 308 403 l 1,21,-1
503 187 m 1,57,-1
 580 187 l 2,58,59
 625 187 625 187 644 176 c 0,60,61
 670 160 670 160 678.5 129.5 c 128,-1,62
 687 99 687 99 681 65 c 0,63,64
 675 26 675 26 649 10 c 0,65,66
 628 -3 628 -3 580 -2 c 2,67,-1
 503 -2 l 1,68,-1
 503 7 l 1,69,70
 524 7 524 7 528 20 c 0,71,72
 529 24 529 24 529.5 30 c 128,-1,73
 530 36 530 36 529.5 43.5 c 128,-1,74
 529 51 529 51 529 54 c 2,75,-1
 529 126 l 2,76,77
 529 129 529 129 529.5 138 c 128,-1,78
 530 147 530 147 530 154 c 128,-1,79
 530 161 530 161 528 165 c 0,80,81
 525 173 525 173 519.5 175 c 128,-1,82
 514 177 514 177 503 177 c 1,83,-1
 503 187 l 1,57,-1
176 535 m 1,84,85
 202 532 202 532 209 532 c 0,86,87
 220 533 220 533 229 538 c 0,88,89
 243 545 243 545 246 561.5 c 128,-1,90
 249 578 249 578 237 589 c 0,91,92
 226 600 226 600 200 600 c 0,93,94
 179 600 179 600 177 596 c 0,95,96
 176 595 176 595 176 579 c 2,97,-1
 176 535 l 1,84,85
114 618 m 1,98,99
 198 618 198 618 211 617 c 0,100,101
 245 615 245 615 260 606 c 0,102,103
 281 593 281 593 281.5 565.5 c 128,-1,104
 282 538 282 538 261 525 c 0,105,106
 254 521 254 521 246 518.5 c 128,-1,107
 238 516 238 516 228 515 c 128,-1,108
 218 514 218 514 211 514 c 2,109,-1
 192 514 l 1,110,-1
 176 514 l 1,111,-1
 176 465 l 2,112,113
 176 446 176 446 185 440 c 0,114,115
 188 438 188 438 202 439 c 1,116,-1
 202 428 l 1,117,-1
 114 428 l 1,118,-1
 114 438 l 1,119,120
 134 438 134 438 139 451 c 0,121,122
 141 456 141 456 141.5 462.5 c 128,-1,123
 142 469 142 469 141.5 478.5 c 128,-1,124
 141 488 141 488 141 491 c 2,125,-1
 141 562 l 2,126,127
 141 564 141 564 141.5 572 c 128,-1,128
 142 580 142 580 141.5 585.5 c 128,-1,129
 141 591 141 591 139 595 c 0,130,131
 136 603 136 603 130.5 605.5 c 128,-1,132
 125 608 125 608 114 608 c 1,133,-1
 114 618 l 1,98,99
EndSplineSet
EndChar
StartChar: uni008D
Encoding: 141 141 140
Width: 790
Flags: W
LayerCount: 2
Fore
SplineSet
439 295 m 1,0,-1
 528 295 l 1,1,-1
 528 285 l 1,2,3
 507 285 507 285 503 273 c 0,4,5
 501 269 501 269 501 263 c 128,-1,6
 501 257 501 257 501.5 249.5 c 128,-1,7
 502 242 502 242 502 239 c 2,8,-1
 502 165 l 2,9,10
 502 162 502 162 501.5 153.5 c 128,-1,11
 501 145 501 145 501 138 c 128,-1,12
 501 131 501 131 503 127 c 0,13,14
 508 116 508 116 528 115 c 1,15,-1
 528 106 l 1,16,-1
 439 106 l 1,17,-1
 439 115 l 1,18,19
 460 115 460 115 465 128 c 0,20,21
 467 132 467 132 467 137.5 c 128,-1,22
 467 143 467 143 466.5 150.5 c 128,-1,23
 466 158 466 158 466 161 c 2,24,-1
 466 234 l 2,25,26
 466 237 466 237 466.5 246 c 128,-1,27
 467 255 467 255 467 261.5 c 128,-1,28
 467 268 467 268 465 273 c 0,29,30
 460 285 460 285 439 285 c 1,31,-1
 439 295 l 1,0,-1
270 490 m 1,32,-1
 270 445 l 2,33,34
 270 429 270 429 271 428 c 0,35,36
 274 425 274 425 294 425 c 0,37,38
 320 425 320 425 332 436 c 0,39,40
 342 446 342 446 340 462 c 128,-1,41
 338 478 338 478 326 485 c 0,42,43
 317 490 317 490 305 492 c 0,44,45
 297 493 297 493 293.5 492.5 c 128,-1,46
 290 492 290 492 282 491 c 128,-1,47
 274 490 274 490 270 490 c 1,32,-1
208 510 m 1,48,-1
 288 510 l 2,49,50
 335 510 335 510 355 497 c 0,51,52
 371 487 371 487 374.5 467 c 128,-1,53
 378 447 378 447 367.5 429.5 c 128,-1,54
 357 412 357 412 337 411 c 1,55,-1
 368 358 l 2,56,57
 380 337 380 337 388 333 c 0,58,59
 392 331 392 331 407 331 c 1,60,-1
 407 321 l 1,61,-1
 318 321 l 1,62,-1
 318 331 l 1,63,64
 332 331 332 331 334 333 c 0,65,66
 338 339 338 339 330 353 c 0,67,68
 327 359 327 359 320 371 c 128,-1,69
 313 383 313 383 310 389 c 0,70,71
 301 405 301 405 299 406 c 0,72,73
 296 408 296 408 291 408 c 128,-1,74
 286 408 286 408 278.5 407.5 c 128,-1,75
 271 407 271 407 270 407 c 2,76,-1
 270 358 l 2,77,78
 270 339 270 339 279 333 c 0,79,80
 283 330 283 330 296 331 c 1,81,-1
 296 321 l 1,82,-1
 208 321 l 1,83,-1
 208 331 l 1,84,85
 228 331 228 331 233 344 c 0,86,87
 235 349 235 349 235.5 355.5 c 128,-1,88
 236 362 236 362 235.5 371 c 128,-1,89
 235 380 235 380 235 383 c 2,90,-1
 235 454 l 2,91,92
 235 456 235 456 235.5 464 c 128,-1,93
 236 472 236 472 235.5 477.5 c 128,-1,94
 235 483 235 483 233 487 c 0,95,96
 228 500 228 500 208 500 c 1,97,-1
 208 510 l 1,48,-1
EndSplineSet
EndChar
StartChar: uni0090
Encoding: 144 144 143
Width: 790
Flags: W
LayerCount: 2
Fore
SplineSet
468 255 m 1,0,1
 469 254 469 254 470 252 c 2,2,-1
 474 248 l 2,3,4
 475 246 475 246 474 245 c 0,5,6
 474 242 474 242 463 232 c 0,7,8
 440 213 440 213 417 212 c 0,9,10
 380 210 380 210 353 229 c 128,-1,11
 326 248 326 248 317.5 283 c 128,-1,12
 309 318 309 318 323 348 c 0,13,14
 334 373 334 373 355.5 387.5 c 128,-1,15
 377 402 377 402 404 404 c 0,16,17
 421 405 421 405 432 401 c 2,18,-1
 438 398 l 2,19,20
 442 396 442 396 445 395 c 128,-1,21
 448 394 448 394 451 394 c 0,22,23
 456 395 456 395 457 404 c 1,24,-1
 471 404 l 1,25,-1
 471 339 l 1,26,-1
 457 339 l 1,27,28
 457 362 457 362 438 376 c 128,-1,29
 419 390 419 390 397 384 c 0,30,31
 376 378 376 378 362 353 c 128,-1,32
 348 328 348 328 351 298.5 c 128,-1,33
 354 269 354 269 373 247 c 0,34,35
 391 227 391 227 421.5 230 c 128,-1,36
 452 233 452 233 468 255 c 1,0,1
632 189 m 1,37,-1
 645 189 l 1,38,-1
 645 123 l 1,39,-1
 632 123 l 1,40,41
 625 160 625 160 606 167 c 0,42,43
 593 174 593 174 574.5 168.5 c 128,-1,44
 556 163 556 163 559 145 c 0,45,46
 561 132 561 132 586 116 c 0,47,48
 591 113 591 113 600 108.5 c 128,-1,49
 609 104 609 104 615 100.5 c 128,-1,50
 621 97 621 97 629.5 91.5 c 128,-1,51
 638 86 638 86 642.5 81.5 c 128,-1,52
 647 77 647 77 652 69.5 c 128,-1,53
 657 62 657 62 657 55 c 128,-1,54
 657 48 657 48 656 37 c 0,55,56
 650 15 650 15 629.5 5 c 128,-1,57
 609 -5 609 -5 586 -2 c 0,58,59
 576 -1 576 -1 560 4 c 0,60,61
 551 7 551 7 548 6 c 0,62,63
 545 4 545 4 545 -2 c 1,64,-1
 531 -2 l 1,65,-1
 531 63 l 1,66,-1
 545 63 l 1,67,68
 547 24 547 24 577 17 c 0,69,70
 594 13 594 13 610 18 c 128,-1,71
 626 23 626 23 625 41 c 0,72,73
 625 49 625 49 619 55.5 c 128,-1,74
 613 62 613 62 608.5 65 c 128,-1,75
 604 68 604 68 595 73 c 0,76,77
 592 75 592 75 584.5 79 c 128,-1,78
 577 83 577 83 573 86 c 2,79,-1
 562 92 l 2,80,81
 555 97 555 97 551.5 100 c 128,-1,82
 548 103 548 103 543 108 c 128,-1,83
 538 113 538 113 535.5 118 c 128,-1,84
 533 123 533 123 531 128.5 c 128,-1,85
 529 134 529 134 529.5 140.5 c 128,-1,86
 530 147 530 147 532 154 c 0,87,88
 538 173 538 173 555.5 181.5 c 128,-1,89
 573 190 573 190 594 188 c 0,90,91
 603 187 603 187 617 182 c 0,92,93
 625 179 625 179 627 180 c 0,94,95
 630 181 630 181 632 189 c 1,37,-1
170 600 m 2,96,-1
 170 446 l 1,97,-1
 178 446 l 1,98,-1
 186 446 l 1,99,-1
 194 446 l 2,100,101
 200 446 200 446 202.5 446.5 c 128,-1,102
 205 447 205 447 209.5 448.5 c 128,-1,103
 214 450 214 450 217 452 c 2,104,-1
 224 455 l 2,105,106
 228 457 228 457 231 460 c 0,107,108
 252 479 252 479 252 520 c 0,109,110
 252 572 252 572 224 592 c 0,111,112
 219 595 219 595 214.5 597 c 128,-1,113
 210 599 210 599 203 599.5 c 128,-1,114
 196 600 196 600 193 600.5 c 128,-1,115
 190 601 190 601 180.5 600.5 c 128,-1,116
 171 600 171 600 170 600 c 2,96,-1
107 618 m 1,117,-1
 185 618 l 2,118,119
 230 618 230 618 249 606 c 0,120,121
 275 590 275 590 283 560 c 128,-1,122
 291 530 291 530 286 496 c 0,123,124
 280 457 280 457 253 441 c 0,125,126
 232 428 232 428 185 428 c 2,127,-1
 107 428 l 1,128,-1
 107 438 l 1,129,130
 128 438 128 438 133 451 c 0,131,132
 134 455 134 455 134.5 461 c 128,-1,133
 135 467 135 467 134.5 474.5 c 128,-1,134
 134 482 134 482 134 484 c 2,135,-1
 134 557 l 2,136,137
 134 560 134 560 134.5 569 c 128,-1,138
 135 578 135 578 134.5 584.5 c 128,-1,139
 134 591 134 591 132 596 c 0,140,141
 129 604 129 604 123.5 606 c 128,-1,142
 118 608 118 608 107 608 c 1,143,-1
 107 618 l 1,117,-1
EndSplineSet
EndChar
StartChar: uni0093
Encoding: 147 147 146
Width: 790
Flags: W
LayerCount: 2
Fore
SplineSet
305 352 m 1,0,-1
 315 389 l 1,1,-1
 320 402 l 1,2,-1
 330 403 l 1,3,-1
 359 403 l 1,4,-1
 472 403 l 1,5,-1
 486 352 l 1,6,7
 474 352 474 352 472 353 c 0,8,9
 471 353 471 353 467 362 c 0,10,11
 459 378 459 378 452 383 c 0,12,13
 448 386 448 386 441 386.5 c 128,-1,14
 434 387 434 387 424.5 386 c 128,-1,15
 415 385 415 385 413 385 c 2,16,-1
 413 282 l 2,17,18
 413 278 413 278 412.5 268 c 128,-1,19
 412 258 412 258 412 250 c 128,-1,20
 412 242 412 242 414 236 c 128,-1,21
 416 230 416 230 420.5 227 c 128,-1,22
 425 224 425 224 428.5 223.5 c 128,-1,23
 432 223 432 223 439 223 c 1,24,-1
 439 213 l 1,25,-1
 351 213 l 1,26,-1
 351 223 l 1,27,28
 373 223 373 223 376 237 c 0,29,30
 378 243 378 243 378 251 c 128,-1,31
 378 259 378 259 377.5 269 c 128,-1,32
 377 279 377 279 377 283 c 2,33,-1
 377 385 l 2,34,35
 375 385 375 385 365.5 386 c 128,-1,36
 356 387 356 387 349.5 386 c 128,-1,37
 343 385 343 385 338 383 c 0,38,39
 331 378 331 378 323 362 c 0,40,41
 318 352 318 352 318 353 c 1,42,43
 316 352 316 352 305 352 c 1,0,-1
632 189 m 1,44,-1
 645 189 l 1,45,-1
 645 123 l 1,46,-1
 632 123 l 1,47,48
 625 159 625 159 607 167 c 0,49,50
 593 175 593 175 575 168.5 c 128,-1,51
 557 162 557 162 560 143 c 0,52,53
 561 137 561 137 566.5 131.5 c 128,-1,54
 572 126 572 126 574.5 124 c 128,-1,55
 577 122 577 122 586 116 c 2,56,-1
 600 108 l 1,57,-1
 616 100 l 2,58,59
 622 97 622 97 630 91.5 c 128,-1,60
 638 86 638 86 642.5 81 c 128,-1,61
 647 76 647 76 652 68.5 c 128,-1,62
 657 61 657 61 657 54 c 128,-1,63
 657 47 657 47 655 36 c 0,64,65
 649 15 649 15 628.5 5 c 128,-1,66
 608 -5 608 -5 585 -2 c 0,67,68
 575 -1 575 -1 560 4 c 0,69,70
 551 7 551 7 549 6 c 0,71,72
 546 4 546 4 545 -2 c 1,73,-1
 531 -2 l 1,74,-1
 531 63 l 1,75,-1
 545 63 l 1,76,77
 546 46 546 46 554.5 33 c 128,-1,78
 563 20 563 20 579 16 c 128,-1,79
 595 12 595 12 610.5 18 c 128,-1,80
 626 24 626 24 625 41 c 0,81,82
 625 49 625 49 619 55.5 c 128,-1,83
 613 62 613 62 608.5 65 c 128,-1,84
 604 68 604 68 595 73 c 0,85,86
 592 75 592 75 584.5 79 c 128,-1,87
 577 83 577 83 573 86 c 2,88,-1
 562 92 l 2,89,90
 555 97 555 97 551.5 100 c 128,-1,91
 548 103 548 103 543 108 c 128,-1,92
 538 113 538 113 535.5 118 c 128,-1,93
 533 123 533 123 531 128.5 c 128,-1,94
 529 134 529 134 529.5 140.5 c 128,-1,95
 530 147 530 147 532 154 c 0,96,97
 538 173 538 173 555.5 181.5 c 128,-1,98
 573 190 573 190 594 188 c 0,99,100
 603 187 603 187 617 182 c 0,101,102
 625 179 625 179 627 180 c 0,103,104
 630 181 630 181 632 189 c 1,44,-1
149 492 m 1,105,106
 152 455 152 455 181 447 c 0,107,108
 194 442 194 442 211.5 447 c 128,-1,109
 229 452 229 452 229.5 468.5 c 128,-1,110
 230 485 230 485 207 499 c 0,111,112
 201 503 201 503 186.5 510.5 c 128,-1,113
 172 518 172 518 162 525 c 128,-1,114
 152 532 152 532 144 541 c 0,115,116
 125 566 125 566 140 591 c 128,-1,117
 155 616 155 616 185 619 c 0,118,119
 199 620 199 620 212 616 c 2,120,-1
 219 613 l 2,121,122
 226 610 226 610 229.5 610 c 128,-1,123
 233 610 233 610 234.5 613.5 c 128,-1,124
 236 617 236 617 237 618 c 128,-1,125
 238 619 238 619 250 619 c 1,126,-1
 250 553 l 1,127,-1
 236 553 l 1,128,129
 231 589 231 589 210 598 c 0,130,131
 196 605 196 605 179 598.5 c 128,-1,132
 162 592 162 592 165 574 c 0,133,134
 167 561 167 561 193 545 c 0,135,136
 198 542 198 542 206 538 c 2,137,-1
 218 531 l 2,138,139
 224 528 224 528 231.5 523.5 c 128,-1,140
 239 519 239 519 243 515 c 2,141,-1
 252 506 l 2,142,143
 258 500 258 500 259 494 c 2,144,-1
 262 481 l 2,145,146
 263 473 263 473 259 465 c 0,147,148
 253 444 253 444 232.5 434.5 c 128,-1,149
 212 425 212 425 189 428 c 0,150,151
 186 428 186 428 180 430 c 2,152,-1
 170 434 l 2,153,154
 166 435 166 435 161 435.5 c 128,-1,155
 156 436 156 436 153 434 c 128,-1,156
 150 432 150 432 149 427 c 1,157,-1
 135 427 l 1,158,-1
 135 492 l 1,159,-1
 149 492 l 1,105,106
EndSplineSet
EndChar
StartChar: uni009B
Encoding: 155 155 154
Width: 790
Flags: W
LayerCount: 2
Fore
SplineSet
347 277 m 1,0,1
 354 242 354 242 373 234 c 0,2,3
 389 225 389 225 409.5 231.5 c 128,-1,4
 430 238 430 238 427 259 c 0,5,6
 426 266 426 266 420 272.5 c 128,-1,7
 414 279 414 279 410 281.5 c 128,-1,8
 406 284 406 284 396 289 c 0,9,10
 393 291 393 291 387 294 c 2,11,-1
 378 300 l 1,12,-1
 368 306 l 2,13,14
 362 309 362 309 358.5 311.5 c 128,-1,15
 355 314 355 314 350 318.5 c 128,-1,16
 345 323 345 323 342 326 c 2,17,-1
 337 334 l 2,18,19
 334 339 334 339 333 344 c 128,-1,20
 332 349 332 349 332 355 c 128,-1,21
 332 361 332 361 334 367 c 0,22,23
 339 386 339 386 356.5 395.5 c 128,-1,24
 374 405 374 405 395 403 c 0,25,26
 406 402 406 402 417 398 c 0,27,28
 427 394 427 394 430 395 c 128,-1,29
 433 396 433 396 434 404 c 1,30,-1
 448 404 l 1,31,-1
 448 338 l 1,32,-1
 434 338 l 1,33,34
 434 354 434 354 426.5 366.5 c 128,-1,35
 419 379 419 379 405 383 c 0,36,37
 390 388 390 388 375 382.5 c 128,-1,38
 360 377 360 377 362 361 c 0,39,40
 363 354 363 354 368.5 347.5 c 128,-1,41
 374 341 374 341 377.5 338.5 c 128,-1,42
 381 336 381 336 390 331 c 0,43,44
 395 328 395 328 411.5 319 c 128,-1,45
 428 310 428 310 436 304.5 c 128,-1,46
 444 299 444 299 452 287.5 c 128,-1,47
 460 276 460 276 460 262 c 0,48,49
 460 255 460 255 456 246 c 0,50,51
 449 226 449 226 429 218 c 128,-1,52
 409 210 409 210 387 213 c 0,53,54
 384 213 384 213 373 217 c 128,-1,55
 362 221 362 221 355.5 220.5 c 128,-1,56
 349 220 349 220 347 212 c 1,57,-1
 334 212 l 1,58,-1
 334 277 l 1,59,-1
 347 277 l 1,0,1
549 187 m 1,60,-1
 638 187 l 1,61,-1
 638 178 l 1,62,63
 617 178 617 178 613 165 c 0,64,65
 612 161 612 161 611.5 155 c 128,-1,66
 611 149 611 149 611.5 141.5 c 128,-1,67
 612 134 612 134 612 131 c 2,68,-1
 612 59 l 2,69,70
 612 56 612 56 611 47 c 128,-1,71
 610 38 610 38 610.5 31 c 128,-1,72
 611 24 611 24 613 20 c 0,73,74
 616 12 616 12 621.5 10 c 128,-1,75
 627 8 627 8 638 8 c 1,76,-1
 638 -2 l 1,77,-1
 549 -2 l 1,78,-1
 549 7 l 1,79,80
 570 7 570 7 575 20 c 0,81,82
 577 24 577 24 577 30 c 128,-1,83
 577 36 577 36 576.5 43.5 c 128,-1,84
 576 51 576 51 576 54 c 2,85,-1
 576 127 l 2,86,87
 576 130 576 130 576.5 138.5 c 128,-1,88
 577 147 577 147 576.5 154 c 128,-1,89
 576 161 576 161 574 165 c 0,90,91
 571 173 571 173 565.5 175 c 128,-1,92
 560 177 560 177 549 177 c 1,93,-1
 549 187 l 1,60,-1
271 470 m 2,94,95
 272 469 272 469 273.5 467 c 128,-1,96
 275 465 275 465 276 463 c 128,-1,97
 277 461 277 461 277 460 c 0,98,99
 277 457 277 457 265 447 c 0,100,101
 242 428 242 428 219 427 c 0,102,103
 186 426 186 426 163 440 c 0,104,105
 133 458 133 458 121.5 494.5 c 128,-1,106
 110 531 110 531 125 564 c 0,107,108
 136 589 136 589 157.5 603.5 c 128,-1,109
 179 618 179 618 207 619 c 0,110,111
 224 620 224 620 235 616 c 0,112,113
 237 615 237 615 240 614 c 2,114,-1
 248 610 l 2,115,116
 251 609 251 609 253 610 c 0,117,118
 258 611 258 611 259 619 c 1,119,-1
 273 619 l 1,120,-1
 273 555 l 1,121,-1
 259 555 l 1,122,123
 259 579 259 579 239 592.5 c 128,-1,124
 219 606 219 606 197 599 c 0,125,126
 177 592 177 592 163 566 c 0,127,128
 150 541 150 541 153.5 511.5 c 128,-1,129
 157 482 157 482 176 462 c 0,130,131
 194 443 194 443 224 446 c 128,-1,132
 254 449 254 449 270 470 c 1,133,-1
 271 470 l 2,94,95
EndSplineSet
EndChar
StartChar: uni009D
Encoding: 157 157 156
Width: 790
Flags: W
LayerCount: 2
Fore
SplineSet
347 277 m 1,0,1
 349 239 349 239 381 231 c 0,2,3
 397 227 397 227 411.5 232 c 128,-1,4
 426 237 426 237 427 252 c 0,5,6
 428 269 428 269 406 283 c 0,7,8
 400 287 400 287 385.5 294.5 c 128,-1,9
 371 302 371 302 360.5 308.5 c 128,-1,10
 350 315 350 315 343 324 c 0,11,12
 323 349 323 349 337.5 375 c 128,-1,13
 352 401 352 401 382 403 c 0,14,15
 396 404 396 404 410 400 c 0,16,17
 426 394 426 394 427 394 c 0,18,19
 430 394 430 394 432 398 c 128,-1,20
 434 402 434 402 435 403 c 128,-1,21
 436 404 436 404 447 404 c 1,22,-1
 447 338 l 1,23,-1
 434 338 l 1,24,25
 429 375 429 375 405 383 c 0,26,27
 390 388 390 388 374.5 382.5 c 128,-1,28
 359 377 359 377 361 361 c 0,29,30
 363 347 363 347 389 331 c 2,31,-1
 403 323 l 1,32,-1
 418 314 l 2,33,34
 425 311 425 311 433.5 305.5 c 128,-1,35
 442 300 442 300 446 295 c 128,-1,36
 450 290 450 290 455 282.5 c 128,-1,37
 460 275 460 275 459 268 c 128,-1,38
 458 261 458 261 457 250 c 0,39,40
 451 229 451 229 430.5 219.5 c 128,-1,41
 410 210 410 210 387 213 c 0,42,43
 384 213 384 213 378.5 215 c 128,-1,44
 373 217 373 217 368 218.5 c 128,-1,45
 363 220 363 220 358.5 220.5 c 128,-1,46
 354 221 354 221 351 219 c 128,-1,47
 348 217 348 217 347 212 c 1,48,-1
 333 212 l 1,49,-1
 333 277 l 1,50,-1
 347 277 l 1,0,1
666 40 m 2,51,52
 667 39 667 39 668.5 37 c 128,-1,53
 670 35 670 35 671 33 c 128,-1,54
 672 31 672 31 672 29 c 0,55,56
 672 26 672 26 661 17 c 0,57,58
 639 -1 639 -1 618 -2 c 0,59,60
 584 -4 584 -4 562 7 c 0,61,62
 530 24 530 24 517.5 62 c 128,-1,63
 505 100 505 100 521 133 c 0,64,65
 532 158 532 158 553.5 172.5 c 128,-1,66
 575 187 575 187 602 188 c 0,67,68
 619 189 619 189 630 185 c 0,69,70
 632 184 632 184 636 182.5 c 128,-1,71
 640 181 640 181 643 180 c 128,-1,72
 646 179 646 179 649 179 c 0,73,74
 654 180 654 180 655 188 c 1,75,-1
 669 188 l 1,76,-1
 669 124 l 1,77,-1
 655 124 l 1,78,79
 655 147 655 147 636 161 c 128,-1,80
 617 175 617 175 595 169 c 0,81,82
 574 163 574 163 560 138 c 128,-1,83
 546 113 546 113 549 83 c 128,-1,84
 552 53 552 53 571 32 c 0,85,86
 589 12 589 12 619.5 15 c 128,-1,87
 650 18 650 18 665 40 c 1,88,-1
 666 40 l 2,51,52
192 601 m 0,89,90
 168 598 168 598 154 570 c 0,91,92
 132 527 132 527 152 481 c 0,93,94
 159 464 159 464 172.5 453.5 c 128,-1,95
 186 443 186 443 203 445 c 0,96,97
 227 448 227 448 241 477 c 0,98,99
 263 521 263 521 243 566 c 0,100,101
 236 583 236 583 222.5 593 c 128,-1,102
 209 603 209 603 192 601 c 0,89,90
188 619 m 0,103,104
 201 621 201 621 219 617 c 0,105,106
 253 611 253 611 271 582 c 128,-1,107
 289 553 289 553 288 521 c 128,-1,108
 287 489 287 489 267 461 c 128,-1,109
 247 433 247 433 214 428 c 0,110,111
 187 424 187 424 165 432 c 0,112,113
 134 443 134 443 119 473.5 c 128,-1,114
 104 504 104 504 108.5 538 c 128,-1,115
 113 572 113 572 136 595 c 0,116,117
 154 614 154 614 188 619 c 0,103,104
EndSplineSet
EndChar
StartChar: uni009F
Encoding: 159 159 158
Width: 790
Flags: W
LayerCount: 2
Fore
SplineSet
666 40 m 2,0,1
 667 39 667 39 668.5 37 c 128,-1,2
 670 35 670 35 671 33 c 128,-1,3
 672 31 672 31 672 29 c 0,4,5
 672 26 672 26 661 17 c 0,6,7
 639 -1 639 -1 618 -2 c 0,8,9
 584 -4 584 -4 562 7 c 0,10,11
 530 24 530 24 517.5 62 c 128,-1,12
 505 100 505 100 521 133 c 0,13,14
 532 158 532 158 553.5 172.5 c 128,-1,15
 575 187 575 187 602 188 c 0,16,17
 619 189 619 189 630 185 c 0,18,19
 632 184 632 184 636 182.5 c 128,-1,20
 640 181 640 181 643 180 c 128,-1,21
 646 179 646 179 649 179 c 0,22,23
 654 180 654 180 655 188 c 1,24,-1
 669 188 l 1,25,-1
 669 124 l 1,26,-1
 655 124 l 1,27,28
 655 147 655 147 636 161 c 128,-1,29
 617 175 617 175 595 169 c 0,30,31
 574 163 574 163 560 138 c 128,-1,32
 546 113 546 113 549 83 c 128,-1,33
 552 53 552 53 571 32 c 0,34,35
 589 12 589 12 619.5 15 c 128,-1,36
 650 18 650 18 665 40 c 1,37,-1
 666 40 l 2,0,1
374 319 m 1,38,39
 400 316 400 316 407 317 c 0,40,41
 418 318 418 318 427 323 c 0,42,43
 441 330 441 330 444 346.5 c 128,-1,44
 447 363 447 363 435 374 c 0,45,46
 424 385 424 385 398 384 c 0,47,48
 377 384 377 384 374 381 c 0,49,50
 373 380 373 380 374 364 c 2,51,-1
 374 319 l 1,38,39
312 403 m 1,52,53
 396 403 396 403 409 402 c 0,54,55
 443 400 443 400 458 390 c 0,56,57
 479 377 479 377 479.5 350 c 128,-1,58
 480 323 480 323 459 310 c 0,59,60
 452 306 452 306 443.5 303 c 128,-1,61
 435 300 435 300 425.5 299.5 c 128,-1,62
 416 299 416 299 409 298.5 c 128,-1,63
 402 298 402 298 390 298.5 c 128,-1,64
 378 299 378 299 374 299 c 1,65,-1
 374 250 l 2,66,67
 374 231 374 231 383 225 c 0,68,69
 386 223 386 223 400 223 c 1,70,-1
 400 213 l 1,71,-1
 312 213 l 1,72,-1
 312 223 l 1,73,74
 332 223 332 223 337 236 c 0,75,76
 339 241 339 241 339.5 247.5 c 128,-1,77
 340 254 340 254 339 263 c 128,-1,78
 338 272 338 272 338 275 c 2,79,-1
 338 346 l 2,80,81
 338 348 338 348 338.5 356.5 c 128,-1,82
 339 365 339 365 339 370 c 128,-1,83
 339 375 339 375 337 380 c 0,84,85
 334 388 334 388 328.5 390 c 128,-1,86
 323 392 323 392 312 392 c 1,87,-1
 312 403 l 1,52,53
189 567 m 1,88,-1
 165 509 l 1,89,-1
 214 509 l 1,90,-1
 191 567 l 1,91,-1
 189 567 l 1,88,-1
89 438 m 1,92,93
 101 438 101 438 109 444 c 128,-1,94
 117 450 117 450 120.5 456 c 128,-1,95
 124 462 124 462 130 476 c 2,96,-1
 171 574 l 1,97,-1
 184 607 l 2,98,99
 188 618 188 618 191 618 c 0,100,101
 195 621 195 621 199 619 c 128,-1,102
 203 617 203 617 205 617 c 128,-1,103
 207 617 207 617 209.5 612.5 c 128,-1,104
 212 608 212 608 213 606.5 c 128,-1,105
 214 605 214 605 216 599.5 c 128,-1,106
 218 594 218 594 219 593 c 2,107,-1
 258 499 l 1,108,-1
 271 468 l 2,109,110
 275 459 275 459 273 457 c 0,111,112
 282 439 282 439 307 439 c 1,113,-1
 307 428 l 1,114,-1
 218 428 l 1,115,-1
 218 438 l 1,116,117
 228 438 228 438 230 439 c 0,118,119
 234 440 234 440 236 443 c 128,-1,120
 238 446 238 446 237 450.5 c 128,-1,121
 236 455 236 455 235 458 c 2,122,-1
 232 467 l 1,123,-1
 229 473 l 2,124,125
 229 474 229 474 227 478.5 c 128,-1,126
 225 483 225 483 224 485.5 c 128,-1,127
 223 488 223 488 220.5 490 c 128,-1,128
 218 492 218 492 215 492 c 2,129,-1
 175 492 l 2,130,131
 161 492 161 492 160 491 c 0,132,133
 159 491 159 491 154 479 c 0,134,135
 153 478 153 478 150.5 472.5 c 128,-1,136
 148 467 148 467 147 464 c 128,-1,137
 146 461 146 461 144.5 456 c 128,-1,138
 143 451 143 451 144 447 c 128,-1,139
 145 443 145 443 148 441 c 0,140,141
 150 439 150 439 164 439 c 1,142,-1
 164 428 l 1,143,-1
 89 428 l 1,144,-1
 89 438 l 1,92,93
EndSplineSet
EndChar
StartChar: yen
Encoding: 165 165 164
Width: 616
Flags: W
LayerCount: 2
Fore
SplineSet
108 581 m 1,0,-1
 108 577 l 1,1,-1
 184 577 l 1,2,-1
 108 581 l 1,0,-1
441 581 m 1,3,-1
 441 577 l 1,4,-1
 546 577 l 1,5,-1
 441 581 l 1,3,-1
18 581 m 1,6,-1
 235 581 l 1,7,-1
 235 563 l 2,8,9
 234 563 234 563 225 562.5 c 128,-1,10
 216 562 216 562 212.5 561.5 c 128,-1,11
 209 561 209 561 202 559.5 c 128,-1,12
 195 558 195 558 191 555 c 128,-1,13
 187 552 187 552 185 548 c 0,14,15
 182 542 182 542 185.5 531.5 c 128,-1,16
 189 521 189 521 193.5 513 c 128,-1,17
 198 505 198 505 206 493.5 c 128,-1,18
 214 482 214 482 216 480 c 0,19,20
 235 448 235 448 275 387.5 c 128,-1,21
 315 327 315 327 332 299 c 1,22,23
 345 325 345 325 360 351 c 2,24,-1
 399 414 l 2,25,26
 422 452 422 452 429 465 c 0,27,28
 430 466 430 466 439 480 c 128,-1,29
 448 494 448 494 451.5 500.5 c 128,-1,30
 455 507 455 507 458.5 518 c 128,-1,31
 462 529 462 529 461 537 c 0,32,33
 459 546 459 546 453 552.5 c 128,-1,34
 447 559 447 559 436.5 561.5 c 128,-1,35
 426 564 426 564 419.5 564.5 c 128,-1,36
 413 565 413 565 401 566 c 1,37,38
 405 580 405 580 420 581 c 128,-1,39
 435 582 435 582 448 578 c 0,40,41
 460 574 460 574 518.5 577.5 c 128,-1,42
 577 581 577 581 589 581 c 1,43,-1
 589 563 l 1,44,45
 546 561 546 561 516.5 537 c 128,-1,46
 487 513 487 513 459 469 c 0,47,48
 436 433 436 433 399.5 363 c 128,-1,49
 363 293 363 293 347 266 c 1,50,-1
 546 266 l 1,51,-1
 546 241 l 1,52,-1
 347 241 l 1,53,-1
 347 162 l 1,54,-1
 546 162 l 1,55,-1
 546 137 l 1,56,-1
 347 137 l 1,57,58
 347 131 347 131 346 111.5 c 128,-1,59
 345 92 345 92 344.5 80 c 128,-1,60
 344 68 344 68 348 53 c 128,-1,61
 352 38 352 38 359 30 c 0,62,63
 367 23 367 23 394.5 16 c 128,-1,64
 422 9 422 9 426 -5 c 1,65,-1
 203 -8 l 1,66,-1
 203 6 l 1,67,68
 216 6 216 6 227 9 c 128,-1,69
 238 12 238 12 245.5 15 c 128,-1,70
 253 18 253 18 259 26 c 2,71,-1
 269 39 l 2,72,73
 273 44 273 44 275.5 56 c 128,-1,74
 278 68 278 68 279 74 c 128,-1,75
 280 80 280 80 281 94.5 c 128,-1,76
 282 109 282 109 282 114 c 2,77,-1
 282 137 l 1,78,-1
 91 137 l 1,79,-1
 91 162 l 1,80,-1
 282 162 l 1,81,-1
 282 241 l 1,82,-1
 91 241 l 1,83,-1
 91 266 l 1,84,-1
 278 266 l 1,85,86
 224 380 224 380 130 494 c 0,87,88
 111 517 111 517 99 529.5 c 128,-1,89
 87 542 87 542 65.5 553.5 c 128,-1,90
 44 565 44 565 21 566 c 1,91,-1
 18 581 l 1,6,-1
EndSplineSet
EndChar
StartChar: brokenbar
Encoding: 166 166 165
Width: 491
Flags: W
LayerCount: 2
Fore
SplineSet
224 162 m 1,0,-1
 267 162 l 1,1,-1
 267 -164 l 1,2,-1
 224 -164 l 1,3,-1
 224 162 l 1,0,-1
224 624 m 1,4,-1
 267 624 l 1,5,-1
 267 299 l 1,6,-1
 224 299 l 1,7,-1
 224 624 l 1,4,-1
EndSplineSet
EndChar
StartChar: section
Encoding: 167 167 166
Width: 405
Flags: W
LayerCount: 2
Fore
SplineSet
278 14 m 1,0,1
 298 29 298 29 307 52.5 c 128,-1,2
 316 76 316 76 315 99.5 c 128,-1,3
 314 123 314 123 304 147 c 0,4,5
 290 188 290 188 262 227 c 128,-1,6
 234 266 234 266 192.5 313 c 128,-1,7
 151 360 151 360 134 382 c 1,8,9
 101 366 101 366 90.5 325 c 128,-1,10
 80 284 80 284 95 253 c 0,11,12
 111 213 111 213 143 171.5 c 128,-1,13
 175 130 175 130 217 85 c 128,-1,14
 259 40 259 40 278 14 c 1,0,1
220 619 m 0,15,16
 236 620 236 620 257.5 620 c 128,-1,17
 279 620 279 620 296 609 c 128,-1,18
 313 598 313 598 309 577 c 0,19,20
 306 565 306 565 299.5 559 c 128,-1,21
 293 553 293 553 283 553 c 128,-1,22
 273 553 273 553 265 555 c 128,-1,23
 257 557 257 557 246 561 c 0,24,25
 222 568 222 568 205.5 570.5 c 128,-1,26
 189 573 189 573 170.5 565.5 c 128,-1,27
 152 558 152 558 140 537 c 0,28,29
 130 521 130 521 131 505 c 0,30,31
 131 494 131 494 135 483 c 128,-1,32
 139 472 139 472 148 458.5 c 128,-1,33
 157 445 157 445 161 439.5 c 128,-1,34
 165 434 165 434 178.5 417.5 c 128,-1,35
 192 401 192 401 193 401 c 2,36,-1
 234 354 l 1,37,-1
 278 302 l 2,38,39
 295 282 295 282 314.5 252 c 128,-1,40
 334 222 334 222 345 194 c 0,41,42
 374 119 374 119 339 54 c 0,43,44
 336 49 336 49 317 26.5 c 128,-1,45
 298 4 298 4 298 -8 c 0,46,47
 298 -21 298 -21 309.5 -49 c 128,-1,48
 321 -77 321 -77 322 -91 c 0,49,50
 323 -149 323 -149 275.5 -200 c 128,-1,51
 228 -251 228 -251 170 -256 c 0,52,53
 152 -258 152 -258 127 -254.5 c 128,-1,54
 102 -251 102 -251 80 -237 c 0,55,56
 58 -224 58 -224 64 -204 c 0,57,58
 70 -182 70 -182 89.5 -176.5 c 128,-1,59
 109 -171 109 -171 127 -183 c 0,60,61
 232 -246 232 -246 265 -164 c 0,62,63
 273 -144 273 -144 275 -124 c 0,64,65
 275 -99 275 -99 263 -71.5 c 128,-1,66
 251 -44 251 -44 237.5 -27 c 128,-1,67
 224 -10 224 -10 203 14 c 0,68,69
 196 21 196 21 164.5 55.5 c 128,-1,70
 133 90 133 90 120 106 c 128,-1,71
 107 122 107 122 87.5 150.5 c 128,-1,72
 68 179 68 179 58 205 c 0,73,74
 29 278 29 278 70 346 c 0,75,76
 74 352 74 352 84.5 363.5 c 128,-1,77
 95 375 95 375 102.5 385.5 c 128,-1,78
 110 396 110 396 110 404 c 0,79,80
 109 414 109 414 101.5 435.5 c 128,-1,81
 94 457 94 457 94 469 c 0,82,83
 94 523 94 523 131 567 c 128,-1,84
 168 611 168 611 220 619 c 0,15,16
EndSplineSet
EndChar
StartChar: dieresis
Encoding: 168 168 167
Width: 308
Flags: W
LayerCount: 2
Fore
SplineSet
251 469 m 0,0,1
 267 462 267 462 266 461 c 0,2,3
 259 454 259 454 246 438 c 0,4,5
 227 413 227 413 225 409 c 1,6,-1
 201 439 l 1,7,-1
 182 459 l 1,8,9
 204 471 204 471 217 502 c 1,10,11
 221 501 221 501 235.5 486 c 128,-1,12
 250 471 250 471 251 469 c 0,0,1
111 469 m 0,13,14
 127 462 127 462 126 461 c 0,15,16
 119 454 119 454 106 438 c 0,17,18
 87 413 87 413 85 409 c 1,19,-1
 61 439 l 1,20,-1
 42 459 l 1,21,22
 64 471 64 471 77 502 c 1,23,24
 81 501 81 501 95.5 486 c 128,-1,25
 110 471 110 471 111 469 c 0,13,14
EndSplineSet
EndChar
StartChar: copyright
Encoding: 169 169 168
Width: 772
Flags: W
LayerCount: 2
Fore
SplineSet
579 211 m 1,0,1
 550 166 550 166 504 140 c 0,2,3
 440 102 440 102 358 111.5 c 128,-1,4
 276 121 276 121 222 174 c 0,5,6
 157 239 157 239 159.5 336 c 128,-1,7
 162 433 162 433 230 496 c 0,8,9
 270 532 270 532 323 548 c 0,10,11
 386 567 386 567 449 556 c 0,12,13
 456 554 456 554 478.5 547 c 128,-1,14
 501 540 501 540 512 539 c 0,15,16
 522 539 522 539 536 549.5 c 128,-1,17
 550 560 550 560 560 560 c 1,18,-1
 568 423 l 1,19,20
 555 424 555 424 546.5 434.5 c 128,-1,21
 538 445 538 445 530 462 c 128,-1,22
 522 479 522 479 515 485 c 0,23,24
 468 538 468 538 397 538 c 0,25,26
 346 537 346 537 309 507 c 128,-1,27
 272 477 272 477 255.5 433 c 128,-1,28
 239 389 239 389 239.5 338 c 128,-1,29
 240 287 240 287 257.5 243.5 c 128,-1,30
 275 200 275 200 313 170.5 c 128,-1,31
 351 141 351 141 401 141 c 0,32,33
 442 140 442 140 483 157 c 0,34,35
 531 177 531 177 557 222 c 1,36,-1
 579 211 l 1,0,1
352 655 m 0,37,38
 266 644 266 644 204 599 c 0,39,40
 150 562 150 562 117 509.5 c 128,-1,41
 84 457 84 457 74 400.5 c 128,-1,42
 64 344 64 344 74 285 c 128,-1,43
 84 226 84 226 112 175.5 c 128,-1,44
 140 125 140 125 188 85.5 c 128,-1,45
 236 46 236 46 296 27 c 0,46,47
 355 8 355 8 419 15 c 0,48,49
 503 24 503 24 564 66 c 0,50,51
 619 102 619 102 654 156.5 c 128,-1,52
 689 211 689 211 700 269 c 128,-1,53
 711 327 711 327 701 387 c 128,-1,54
 691 447 691 447 662.5 498.5 c 128,-1,55
 634 550 634 550 583 590 c 128,-1,56
 532 630 532 630 467 646 c 0,57,58
 406 663 406 663 352 655 c 0,37,38
352 684 m 0,59,60
 406 692 406 692 471 676 c 0,61,62
 541 659 541 659 596.5 617.5 c 128,-1,63
 652 576 652 576 684 521 c 128,-1,64
 716 466 716 466 728.5 399.5 c 128,-1,65
 741 333 741 333 731 270 c 128,-1,66
 721 207 721 207 685 147.5 c 128,-1,67
 649 88 649 88 590 48 c 0,68,69
 518 -2 518 -2 419 -14 c 0,70,71
 368 -21 368 -21 304 -7 c 0,72,73
 236 8 236 8 181 48.5 c 128,-1,74
 126 89 126 89 94 143 c 128,-1,75
 62 197 62 197 48 261.5 c 128,-1,76
 34 326 34 326 42 388 c 128,-1,77
 50 450 50 450 83 509.5 c 128,-1,78
 116 569 116 569 171 612 c 0,79,80
 245 670 245 670 352 684 c 0,59,60
EndSplineSet
EndChar
StartChar: registered
Encoding: 174 174 173
Width: 752
Flags: W
LayerCount: 2
Fore
SplineSet
300 335 m 1,0,1
 343 335 343 335 372 342 c 0,2,3
 408 352 408 352 425.5 383 c 128,-1,4
 443 414 443 414 434.5 449 c 128,-1,5
 426 484 426 484 394 503 c 0,6,7
 383 509 383 509 366 513.5 c 128,-1,8
 349 518 349 518 330.5 517 c 128,-1,9
 312 516 312 516 303 506 c 0,10,11
 299 501 299 501 298.5 493 c 128,-1,12
 298 485 298 485 299 472.5 c 128,-1,13
 300 460 300 460 300 458 c 2,14,-1
 300 335 l 1,0,1
188 537 m 1,15,16
 207 537 207 537 254 540 c 128,-1,17
 301 543 301 543 332 543.5 c 128,-1,18
 363 544 363 544 401.5 537.5 c 128,-1,19
 440 531 440 531 466 516 c 0,20,21
 502 495 502 495 513 464 c 128,-1,22
 524 433 524 433 512 404.5 c 128,-1,23
 500 376 500 376 472.5 352 c 128,-1,24
 445 328 445 328 412 321 c 1,25,-1
 458 257 l 2,26,27
 489 214 489 214 504 191 c 0,28,29
 505 190 505 190 509 183.5 c 128,-1,30
 513 177 513 177 514 175 c 2,31,-1
 520 168 l 1,32,-1
 526 160 l 2,33,34
 527 158 527 158 531.5 154 c 128,-1,35
 536 150 536 150 538 148 c 128,-1,36
 540 146 540 146 544.5 143 c 128,-1,37
 549 140 549 140 553 138.5 c 128,-1,38
 557 137 557 137 561.5 135.5 c 128,-1,39
 566 134 566 134 571 133 c 1,40,-1
 571 118 l 1,41,42
 566 118 566 118 542.5 116.5 c 128,-1,43
 519 115 519 115 503 116 c 128,-1,44
 487 117 487 117 477 124 c 0,45,46
 459 137 459 137 441 160.5 c 128,-1,47
 423 184 423 184 402.5 216 c 128,-1,48
 382 248 382 248 374 259 c 2,49,-1
 363 274 l 2,50,51
 355 284 355 284 353 287 c 128,-1,52
 351 290 351 290 344 297 c 128,-1,53
 337 304 337 304 332 306.5 c 128,-1,54
 327 309 327 309 318.5 311.5 c 128,-1,55
 310 314 310 314 300 314 c 1,56,57
 300 303 300 303 298.5 280 c 128,-1,58
 297 257 297 257 296 240 c 128,-1,59
 295 223 295 223 297 201.5 c 128,-1,60
 299 180 299 180 305 166.5 c 128,-1,61
 311 153 311 153 324.5 143 c 128,-1,62
 338 133 338 133 358 133 c 1,63,-1
 358 118 l 1,64,-1
 180 118 l 1,65,-1
 180 133 l 1,66,67
 195 133 195 133 205 138 c 128,-1,68
 215 143 215 143 220 149.5 c 128,-1,69
 225 156 225 156 227.5 167.5 c 128,-1,70
 230 179 230 179 230.5 188 c 128,-1,71
 231 197 231 197 231 213 c 2,72,-1
 231 440 l 1,73,-1
 231 445 l 2,74,75
 231 459 231 459 230.5 466.5 c 128,-1,76
 230 474 230 474 228.5 485 c 128,-1,77
 227 496 227 496 222 502 c 128,-1,78
 217 508 217 508 209 513 c 128,-1,79
 201 518 201 518 188 520 c 1,80,-1
 188 537 l 1,15,16
343 637 m 0,81,82
 260 626 260 626 199 584 c 0,83,84
 146 548 146 548 113.5 496.5 c 128,-1,85
 81 445 81 445 71.5 390 c 128,-1,86
 62 335 62 335 71.5 277.5 c 128,-1,87
 81 220 81 220 108.5 171 c 128,-1,88
 136 122 136 122 182.5 83 c 128,-1,89
 229 44 229 44 289 26 c 0,90,91
 346 8 346 8 408 15 c 0,92,93
 489 24 489 24 549 65 c 0,94,95
 603 100 603 100 637 152.5 c 128,-1,96
 671 205 671 205 681.5 261.5 c 128,-1,97
 692 318 692 318 682 377 c 128,-1,98
 672 436 672 436 644.5 486 c 128,-1,99
 617 536 617 536 567.5 574.5 c 128,-1,100
 518 613 518 613 455 629 c 0,101,102
 396 644 396 644 343 637 c 0,81,82
343 666 m 0,103,104
 396 673 396 673 459 659 c 0,105,106
 527 642 527 642 581 601.5 c 128,-1,107
 635 561 635 561 666 507 c 128,-1,108
 697 453 697 453 709.5 389 c 128,-1,109
 722 325 722 325 712 263.5 c 128,-1,110
 702 202 702 202 667 144 c 128,-1,111
 632 86 632 86 574 46 c 0,112,113
 504 -3 504 -3 408 -14 c 0,114,115
 358 -20 358 -20 296 -6 c 0,116,117
 229 9 229 9 176 48 c 128,-1,118
 123 87 123 87 91.5 139 c 128,-1,119
 60 191 60 191 46.5 254 c 128,-1,120
 33 317 33 317 41 377.5 c 128,-1,121
 49 438 49 438 81 496 c 0,122,123
 112 554 112 554 166 596 c 0,124,125
 238 652 238 652 343 666 c 0,103,104
EndSplineSet
EndChar
StartChar: paragraph
Encoding: 182 182 181
Width: 443
Flags: W
LayerCount: 2
Fore
SplineSet
250 -55 m 1,0,-1
 256 422 l 1,1,2
 236 417 236 417 221.5 406 c 128,-1,3
 207 395 207 395 199.5 377.5 c 128,-1,4
 192 360 192 360 189 345 c 128,-1,5
 186 330 186 330 183 306 c 0,6,7
 179 283 179 283 178 254 c 128,-1,8
 177 225 177 225 177 206 c 2,9,-1
 177 150 l 1,10,-1
 177 101 l 1,11,-1
 177 88 l 1,12,-1
 177 76 l 2,13,14
 177 72 177 72 177.5 63 c 128,-1,15
 178 54 178 54 178.5 49 c 128,-1,16
 179 44 179 44 179 36.5 c 128,-1,17
 179 29 179 29 180 24 c 2,18,-1
 184 12 l 2,19,20
 185 6 185 6 188 0 c 128,-1,21
 191 -6 191 -6 193 -11 c 0,22,23
 207 -37 207 -37 250 -55 c 1,0,-1
362 -84 m 1,24,25
 361 -90 361 -90 358 -95 c 128,-1,26
 355 -100 355 -100 350.5 -102 c 128,-1,27
 346 -104 346 -104 342 -104.5 c 128,-1,28
 338 -105 338 -105 331 -104.5 c 128,-1,29
 324 -104 324 -104 319 -103 c 128,-1,30
 314 -102 314 -102 307 -99.5 c 128,-1,31
 300 -97 300 -97 296 -97 c 0,32,33
 190 -74 190 -74 135 -8 c 0,34,35
 102 34 102 34 75.5 85 c 128,-1,36
 49 136 49 136 47 180 c 0,37,38
 44 238 44 238 90 312 c 128,-1,39
 136 386 136 386 188 420 c 0,40,41
 270 473 270 473 441 480 c 1,42,-1
 432 456 l 1,43,-1
 387 450 l 1,44,-1
 282 433 l 1,45,-1
 275 93 l 1,46,-1
 271 -66 l 1,47,-1
 362 -84 l 1,24,25
EndSplineSet
EndChar
StartChar: guillemotright
Encoding: 187 187 186
Width: 423
Flags: W
LayerCount: 2
Fore
SplineSet
216 350 m 1,0,1
 225 347 225 347 235 340.5 c 128,-1,2
 245 334 245 334 249.5 330 c 128,-1,3
 254 326 254 326 266 314 c 0,4,5
 278 301 278 301 278 299 c 2,6,-1
 394 173 l 1,7,-1
 394 169 l 1,8,-1
 278 46 l 1,9,-1
 216 -5 l 1,10,-1
 281 118 l 1,11,-1
 305 170 l 1,12,-1
 278 227 l 1,13,-1
 216 350 l 1,0,1
29 350 m 1,14,15
 38 347 38 347 47.5 340.5 c 128,-1,16
 57 334 57 334 62 330 c 128,-1,17
 67 326 67 326 78 313.5 c 128,-1,18
 89 301 89 301 90 299 c 2,19,-1
 206 173 l 1,20,-1
 206 169 l 1,21,22
 143 105 143 105 92 46 c 0,23,24
 90 43 90 43 82 34 c 2,25,-1
 70 20 l 2,26,27
 66 16 66 16 58.5 9.5 c 128,-1,28
 51 3 51 3 44 -0.5 c 128,-1,29
 37 -4 37 -4 29 -5 c 1,30,-1
 93 122 l 1,31,-1
 116 173 l 1,32,-1
 92 223 l 1,33,-1
 29 350 l 1,14,15
EndSplineSet
EndChar
StartChar: onehalf
Encoding: 189 189 188
Width: 636
Flags: W
LayerCount: 2
Fore
SplineSet
61 566 m 1,0,1
 115 566 115 566 177 576 c 0,2,3
 189 579 189 579 201 578.5 c 128,-1,4
 213 578 213 578 216 566 c 1,5,6
 199 561 199 561 188 549 c 128,-1,7
 177 537 177 537 171.5 523.5 c 128,-1,8
 166 510 166 510 164.5 489.5 c 128,-1,9
 163 469 163 469 163.5 453.5 c 128,-1,10
 164 438 164 438 165 415.5 c 128,-1,11
 166 393 166 393 166 382 c 2,12,-1
 166 364 l 1,13,-1
 166 341 l 2,14,15
 166 333 166 333 168.5 321.5 c 128,-1,16
 171 310 171 310 176 304 c 0,17,18
 187 292 187 292 228 292 c 1,19,-1
 228 274 l 1,20,21
 175 280 175 280 101 278 c 0,22,23
 98 278 98 278 88 276.5 c 128,-1,24
 78 275 78 275 73.5 275.5 c 128,-1,25
 69 276 69 276 64.5 279.5 c 128,-1,26
 60 283 60 283 57 292 c 1,27,-1
 76 292 l 2,28,29
 82 292 82 292 91 296 c 128,-1,30
 100 300 100 300 105 306 c 0,31,32
 111 314 111 314 113.5 324 c 128,-1,33
 116 334 116 334 116 348.5 c 128,-1,34
 116 363 116 363 117 368 c 0,35,36
 127 456 127 456 116 549 c 1,37,-1
 61 552 l 1,38,-1
 61 566 l 1,0,1
216 566 m 1,39,-1
 220 563 l 1,40,-1
 216 566 l 1,39,-1
383 256 m 1,41,42
 432 293 432 293 466 298 c 0,43,44
 515 305 515 305 551.5 277.5 c 128,-1,45
 588 250 588 250 574 202 c 0,46,47
 566 171 566 171 541 142.5 c 128,-1,48
 516 114 516 114 475.5 80.5 c 128,-1,49
 435 47 435 47 423 35 c 1,50,51
 434 35 434 35 454.5 34 c 128,-1,52
 475 33 475 33 488 33 c 128,-1,53
 501 33 501 33 519 35 c 128,-1,54
 537 37 537 37 549 41.5 c 128,-1,55
 561 46 561 46 574 56.5 c 128,-1,56
 587 67 587 67 597 82 c 1,57,-1
 618 71 l 2,58,59
 616 68 616 68 604.5 46 c 128,-1,60
 593 24 593 24 583.5 10.5 c 128,-1,61
 574 -3 574 -3 563 -8 c 0,62,63
 555 -12 555 -12 536.5 -6.5 c 128,-1,64
 518 -1 518 -1 513 -1 c 0,65,66
 499 -1 499 -1 462.5 -3.5 c 128,-1,67
 426 -6 426 -6 397.5 -6 c 128,-1,68
 369 -6 369 -6 351 3 c 1,69,-1
 351 6 l 1,70,71
 365 20 365 20 401 52 c 128,-1,72
 437 84 437 84 461.5 109.5 c 128,-1,73
 486 135 486 135 504 162 c 0,74,75
 547 223 547 223 506 253 c 0,76,77
 476 275 476 275 438 262 c 0,78,79
 432 260 432 260 422 254 c 2,80,-1
 408 246 l 2,81,82
 402 243 402 243 395.5 244.5 c 128,-1,83
 389 246 389 246 383 256 c 1,41,42
116 -37 m 1,84,-1
 213 130 l 1,85,-1
 393 454 l 1,86,-1
 450 566 l 1,87,-1
 478 613 l 1,88,-1
 520 624 l 1,89,-1
 386 381 l 2,90,91
 289 210 289 210 241 115 c 0,92,93
 236 107 236 107 225.5 81 c 128,-1,94
 215 55 215 55 206 37.5 c 128,-1,95
 197 20 197 20 183 0.5 c 128,-1,96
 169 -19 169 -19 152 -28.5 c 128,-1,97
 135 -38 135 -38 116 -37 c 1,84,-1
EndSplineSet
EndChar
StartChar: odieresis
Encoding: 246 246 220
Width: 411
Flags: W
LayerCount: 2
Fore
SplineSet
311 469 m 0,0,1
 327 462 327 462 326 461 c 0,2,3
 319 454 319 454 306 438 c 0,4,5
 287 413 287 413 285 409 c 1,6,-1
 261 439 l 1,7,-1
 242 459 l 1,8,9
 264 471 264 471 277 502 c 1,10,11
 281 501 281 501 295.5 486 c 128,-1,12
 310 471 310 471 311 469 c 0,0,1
171 469 m 0,13,14
 187 462 187 462 186 461 c 0,15,16
 179 454 179 454 166 438 c 0,17,18
 147 413 147 413 145 409 c 1,19,-1
 121 439 l 1,20,-1
 102 459 l 1,21,22
 124 471 124 471 137 502 c 1,23,24
 141 501 141 501 155.5 486 c 128,-1,25
 170 471 170 471 171 469 c 0,13,14
133 331 m 0,26,27
 181 352 181 352 229 348 c 0,28,29
 279 343 279 343 319 314 c 0,30,31
 368 277 368 277 382 218 c 0,32,33
 397 158 397 158 373 104 c 0,34,35
 354 57 354 57 312 27 c 0,36,37
 255 -12 255 -12 182 -1 c 0,38,39
 116 9 116 9 72 56 c 0,40,41
 26 104 26 104 24 169 c 0,42,43
 24 223 24 223 54 267 c 0,44,45
 83 308 83 308 133 331 c 0,26,27
193 328 m 0,46,47
 165 328 165 328 143 316 c 0,48,49
 119 303 119 303 104 282 c 0,50,51
 78 247 78 247 78 196 c 0,52,53
 78 148 78 148 98 107 c 0,54,55
 116 66 116 66 149 41 c 0,56,57
 186 12 186 12 227 14 c 0,58,59
 253 15 253 15 276 32 c 0,60,61
 294 44 294 44 306 64 c 0,62,63
 331 104 331 104 333 150 c 0,64,65
 334 203 334 203 305 253 c 0,66,67
 283 288 283 288 259 305 c 0,68,69
 227 328 227 328 193 328 c 0,46,47
EndSplineSet
EndChar
StartChar: ucircumflex
Encoding: 251 251 225
Width: 449
Flags: W
LayerCount: 2
Fore
SplineSet
102 410 m 1,0,-1
 118 444 l 2,1,2
 127 463 127 463 135 475 c 2,3,-1
 154 509 l 2,4,5
 166 531 166 531 172 541 c 2,6,-1
 185 561 l 2,7,8
 189 567 189 567 199.5 573 c 128,-1,9
 210 579 210 579 224 577 c 0,10,11
 231 576 231 576 236.5 571 c 128,-1,12
 242 566 242 566 245 562 c 128,-1,13
 248 558 248 558 252.5 549 c 128,-1,14
 257 540 257 540 259 537 c 2,15,-1
 281 499 l 1,16,-1
 308 449 l 2,17,18
 319 429 319 429 328 410 c 1,19,20
 307 411 307 411 287 427.5 c 128,-1,21
 267 444 267 444 243 473 c 2,22,-1
 213 510 l 1,23,24
 197 479 197 479 163.5 445 c 128,-1,25
 130 411 130 411 102 410 c 1,0,-1
130 239 m 0,26,27
 128 213 128 213 128 163 c 128,-1,28
 128 113 128 113 133 89 c 0,29,30
 137 74 137 74 141 66 c 0,31,32
 148 54 148 54 156 47 c 0,33,34
 173 33 173 33 199 33 c 0,35,36
 222 32 222 32 253 43 c 0,37,38
 278 52 278 52 310 71 c 1,39,40
 312 115 312 115 314 200 c 0,41,42
 314 211 314 211 314.5 234 c 128,-1,43
 315 257 315 257 315 268 c 0,44,45
 315 278 315 278 313 284 c 0,46,47
 310 292 310 292 304 295 c 0,48,49
 299 299 299 299 290 301 c 2,50,-1
 274 301 l 1,51,-1
 267 301 l 1,52,-1
 264 301 l 1,53,-1
 263 301 l 1,54,-1
 261 302 l 1,55,-1
 260 302 l 1,56,-1
 259 303 l 1,57,-1
 259 304 l 1,58,-1
 259 306 l 1,59,-1
 260 310 l 1,60,-1
 261 311 l 1,61,-1
 261 312 l 2,62,63
 261 313 261 313 262 314 c 128,-1,64
 263 315 263 315 264 315 c 128,-1,65
 265 315 265 315 265 315.5 c 128,-1,66
 265 316 265 316 266 316 c 0,67,68
 284 319 284 319 318 326 c 0,69,70
 340 331 340 331 371 339 c 1,71,-1
 372 340 l 1,72,-1
 373 340 l 1,73,-1
 375 339 l 2,74,75
 376 338 376 338 376 337 c 2,76,-1
 376 334 l 1,77,-1
 376 330 l 2,78,79
 375 304 375 304 371 239.5 c 128,-1,80
 367 175 367 175 366 140 c 0,81,82
 364 106 364 106 367 79 c 0,83,84
 369 54 369 54 372 33 c 0,85,86
 372 32 372 32 372.5 31 c 128,-1,87
 373 30 373 30 373 29 c 0,88,89
 373 27 373 27 375 25.5 c 128,-1,90
 377 24 377 24 379 24 c 0,91,92
 380 24 380 24 381 24.5 c 128,-1,93
 382 25 382 25 383 25 c 2,94,-1
 423 33 l 1,95,-1
 425 33 l 2,96,97
 426 33 426 33 427 32 c 2,98,-1
 429 30 l 1,99,-1
 429 29 l 1,100,-1
 430 28 l 1,101,-1
 431 27 l 1,102,-1
 431 26 l 2,103,104
 431 25 431 25 430.5 25 c 128,-1,105
 430 25 430 25 430 24 c 0,106,107
 430 22 430 22 429 22 c 2,108,-1
 428 21 l 1,109,-1
 426 21 l 1,110,-1
 379 6 l 1,111,-1
 332 -9 l 2,112,113
 331 -9 331 -9 330 -9.5 c 128,-1,114
 329 -10 329 -10 328 -10 c 2,115,-1
 324 -10 l 1,116,-1
 321 -8 l 2,117,118
 319 -6 319 -6 320 -4 c 2,119,-1
 314 25 l 2,120,121
 312 37 312 37 310 54 c 1,122,123
 293 44 293 44 257 26 c 0,124,125
 204 1 204 1 175 -2 c 0,126,127
 158 -5 158 -5 141 -2 c 0,128,129
 122 1 122 1 109 10 c 0,130,131
 93 21 93 21 82 45 c 0,132,133
 74 64 74 64 73 88 c 0,134,135
 71 115 71 115 73 171 c 0,136,137
 74 198 74 198 74 253 c 0,138,139
 74 263 74 263 73 268 c 0,140,141
 71 277 71 277 66 283 c 0,142,143
 59 290 59 290 54 290 c 0,144,145
 45 292 45 292 38 290 c 2,146,-1
 29 289 l 1,147,-1
 27 289 l 2,148,149
 26 289 26 289 26 290 c 1,150,151
 25 290 25 290 25 291 c 2,152,-1
 25 292 l 1,153,-1
 24 293 l 1,154,-1
 23 294 l 1,155,-1
 23 296 l 2,156,157
 23 297 23 297 23.5 297 c 128,-1,158
 24 297 24 297 24 298 c 128,-1,159
 24 299 24 299 25 300 c 2,160,-1
 26 301 l 1,161,162
 56 311 56 311 83 322 c 0,163,164
 104 331 104 331 128 344 c 1,165,-1
 129 344 l 1,166,-1
 130 344 l 2,167,168
 132 344 132 344 134 342 c 2,169,-1
 135 342 l 1,170,-1
 136 341 l 2,171,172
 137 341 137 341 137 340 c 2,173,-1
 138 339 l 1,174,-1
 138 338 l 1,175,-1
 138 337 l 1,176,-1
 135 306 l 2,177,178
 136 306 136 306 130 239 c 0,26,27
EndSplineSet
EndChar
StartChar: yacute
Encoding: 253 253 227
Width: 400
Flags: W
LayerCount: 2
Fore
SplineSet
192 426 m 2,0,1
 190 422 190 422 190 419 c 0,2,3
 190 406 190 406 203 406 c 0,4,5
 213 406 213 406 217 416 c 2,6,-1
 274 509 l 2,7,8
 276 511 276 511 276 514 c 0,9,10
 276 523 276 523 262 530 c 0,11,12
 253 533 253 533 247 533 c 0,13,14
 238 533 238 533 237 527 c 2,15,-1
 192 426 l 2,0,1
96 326 m 0,16,17
 130 326 130 326 163 329 c 2,18,-1
 165 329 l 2,19,20
 166 329 166 329 166 328.5 c 128,-1,21
 166 328 166 328 167 328 c 0,22,23
 169 328 169 328 169 327 c 2,24,-1
 170 326 l 1,25,-1
 170 324 l 1,26,-1
 170 323 l 1,27,-1
 169 321 l 2,28,29
 169 320 169 320 167 320 c 0,30,31
 163 318 163 318 163 319 c 2,32,-1
 152 317 l 2,33,34
 148 317 148 317 145 315 c 2,35,-1
 139 312 l 2,36,37
 135 308 135 308 134 306 c 0,38,39
 132 302 132 302 132 299 c 0,40,41
 131 286 131 286 136 266 c 2,42,-1
 159 181 l 2,43,44
 178 114 178 114 201 41 c 1,45,46
 239 101 239 101 267 164 c 0,47,48
 279 191 279 191 300 248 c 1,49,-1
 305 265 l 2,50,51
 308 274 308 274 308 282 c 128,-1,52
 308 290 308 290 302 299 c 0,53,54
 297 305 297 305 287 309 c 0,55,56
 281 312 281 312 270 316 c 0,57,58
 264 318 264 318 251 320 c 2,59,-1
 249 320 l 1,60,-1
 247 322 l 2,61,62
 247 323 247 323 246.5 324 c 128,-1,63
 246 325 246 325 246 326 c 128,-1,64
 246 327 246 327 248 329 c 2,65,-1
 251 332 l 1,66,-1
 252 333 l 1,67,-1
 254 333 l 2,68,69
 255 333 255 333 255 332.5 c 128,-1,70
 255 332 255 332 256 332 c 0,71,72
 280 327 280 327 311 325 c 0,73,74
 350 323 350 323 378 327 c 1,75,-1
 381 327 l 1,76,-1
 384 327 l 2,77,78
 386 327 386 327 386 325 c 2,79,-1
 386 324 l 2,80,81
 387 323 387 323 387 322 c 128,-1,82
 387 321 387 321 386 320 c 2,83,-1
 384 318 l 2,84,85
 383 317 383 317 382 317 c 0,86,87
 380 316 380 316 379 316 c 128,-1,88
 378 316 378 316 376 315 c 128,-1,89
 374 314 374 314 373 314 c 128,-1,90
 372 314 372 314 370.5 313 c 128,-1,91
 369 312 369 312 368 312 c 0,92,93
 366 311 366 311 359 304 c 0,94,95
 346 290 346 290 337 269 c 2,96,-1
 214 24 l 2,97,98
 176 -51 176 -51 147 -128 c 0,99,100
 118 -202 118 -202 99 -276 c 1,101,-1
 99 -280 l 2,102,103
 99 -283 99 -283 98 -284 c 2,104,-1
 95 -286 l 1,105,-1
 94 -286 l 1,106,-1
 92 -286 l 2,107,108
 83 -285 83 -285 65 -285 c 0,109,110
 38 -285 38 -285 24 -286 c 2,111,-1
 21 -286 l 1,112,-1
 20 -285 l 1,113,-1
 18 -285 l 2,114,115
 17 -285 17 -285 17 -284 c 2,116,-1
 16 -282 l 1,117,-1
 16 -280 l 2,118,119
 16 -279 16 -279 18 -277 c 0,120,121
 19 -276 19 -276 20 -276 c 0,122,123
 22 -275 22 -275 23 -275 c 0,124,125
 51 -263 51 -263 70 -237 c 0,126,127
 83 -220 83 -220 99 -184 c 2,128,-1
 169 -29 l 1,129,130
 135 98 135 98 102 193 c 2,131,-1
 79 253 l 2,132,133
 70 276 70 276 60 295 c 0,134,135
 53 306 53 306 51 308 c 128,-1,136
 49 310 49 310 44 312 c 0,137,138
 43 312 43 312 40.5 313 c 128,-1,139
 38 314 38 314 37 315 c 2,140,-1
 25 318 l 2,141,142
 22 318 22 318 20 320 c 2,143,-1
 19 320 l 1,144,-1
 19 321 l 1,145,-1
 18 323 l 1,146,-1
 19 324 l 1,147,-1
 19 325 l 2,148,149
 19 327 19 327 21 327 c 2,150,-1
 23 327 l 1,151,-1
 26 327 l 2,152,153
 49 326 49 326 96 326 c 0,16,17
EndSplineSet
EndChar
StartChar: thorn
Encoding: 254 254 228
Width: 443
Flags: W
LayerCount: 2
Fore
SplineSet
137 285 m 1,0,-1
 137 130 l 2,1,2
 137 124 137 124 136 108 c 128,-1,3
 135 92 135 92 135.5 80 c 128,-1,4
 136 68 136 68 139 58 c 0,5,6
 141 51 141 51 147 47 c 128,-1,7
 153 43 153 43 166 39 c 2,8,-1
 180 35 l 1,9,10
 271 3 271 3 325 55 c 0,11,12
 352 82 352 82 357.5 121 c 128,-1,13
 363 160 363 160 350 196.5 c 128,-1,14
 337 233 337 233 310 264 c 128,-1,15
 283 295 283 295 250 306 c 0,16,17
 238 312 238 312 220.5 309.5 c 128,-1,18
 203 307 203 307 192 303.5 c 128,-1,19
 181 300 181 300 164.5 293.5 c 128,-1,20
 148 287 148 287 137 285 c 1,0,-1
18 549 m 1,21,-1
 55 575 l 1,22,-1
 159 621 l 1,23,24
 151 592 151 592 146 561 c 128,-1,25
 141 530 141 530 139 493 c 128,-1,26
 137 456 137 456 136.5 433 c 128,-1,27
 136 410 136 410 136.5 364 c 128,-1,28
 137 318 137 318 137 302 c 1,29,30
 152 307 152 307 184 320.5 c 128,-1,31
 216 334 216 334 240.5 339.5 c 128,-1,32
 265 345 265 345 289 340 c 0,33,34
 331 331 331 331 360.5 301.5 c 128,-1,35
 390 272 390 272 402 234 c 128,-1,36
 414 196 414 196 409.5 153.5 c 128,-1,37
 405 111 405 111 381 79 c 0,38,39
 340 24 340 24 274.5 8 c 128,-1,40
 209 -8 209 -8 137 6 c 1,41,-1
 137 -156 l 2,42,43
 137 -159 137 -159 136.5 -171.5 c 128,-1,44
 136 -184 136 -184 136.5 -190 c 128,-1,45
 137 -196 137 -196 139.5 -205.5 c 128,-1,46
 142 -215 142 -215 146 -220 c 0,47,48
 151 -226 151 -226 160 -229 c 128,-1,49
 169 -232 169 -232 174.5 -233 c 128,-1,50
 180 -234 180 -234 194 -235 c 128,-1,51
 208 -236 208 -236 210 -236 c 2,52,-1
 210 -253 l 1,53,-1
 29 -257 l 1,54,-1
 29 -242 l 1,55,56
 54 -238 54 -238 66.5 -218.5 c 128,-1,57
 79 -199 79 -199 80 -174 c 2,58,-1
 80 -120 l 2,59,60
 81 -92 81 -92 81 -73 c 0,61,62
 86 -39 86 -39 86.5 0 c 128,-1,63
 87 39 87 39 85 88.5 c 128,-1,64
 83 138 83 138 83 162 c 0,65,66
 83 187 83 187 85 238 c 128,-1,67
 87 289 87 289 86.5 329 c 128,-1,68
 86 369 86 369 82 404 c 0,69,70
 81 426 81 426 80.5 451 c 128,-1,71
 80 476 80 476 78 498 c 128,-1,72
 76 520 76 520 61 534.5 c 128,-1,73
 46 549 46 549 18 549 c 1,21,-1
EndSplineSet
EndChar
StartChar: cacute
Encoding: 263 263 234
Width: 341
Flags: W
LayerCount: 2
Fore
SplineSet
204 431 m 2,0,1
 202 427 202 427 202 424 c 0,2,3
 202 411 202 411 215 411 c 0,4,5
 225 411 225 411 229 421 c 2,6,-1
 286 514 l 2,7,8
 288 516 288 516 288 519 c 0,9,10
 288 528 288 528 274 535 c 0,11,12
 265 538 265 538 259 538 c 0,13,14
 250 538 250 538 249 532 c 2,15,-1
 204 431 l 2,0,1
26 164 m 0,16,17
 31 217 31 217 58 259 c 0,18,19
 86 302 86 302 130 327 c 0,20,21
 155 342 155 342 186 348 c 0,22,23
 215 354 215 354 245 348 c 0,24,25
 259 345 259 345 287 334 c 0,26,27
 302 328 302 328 309 324 c 0,28,29
 310 323 310 323 311 323 c 128,-1,30
 312 323 312 323 313 322 c 128,-1,31
 314 321 314 321 315 320.5 c 128,-1,32
 316 320 316 320 316 319 c 0,33,34
 317 318 317 318 317 314 c 0,35,36
 317 312 317 312 315 310 c 2,37,-1
 303 292 l 2,38,39
 301 289 301 289 298 285 c 0,40,41
 293 279 293 279 291 280 c 0,42,43
 288 279 288 279 283 279 c 2,44,-1
 274 282 l 1,45,-1
 239 296 l 2,46,47
 194 313 194 313 168 312 c 0,48,49
 150 312 150 312 132 304 c 0,50,51
 116 297 116 297 104 283 c 0,52,53
 89 264 89 264 83 244 c 0,54,55
 67 188 67 188 85 131 c 0,56,57
 105 71 105 71 157 43 c 0,58,59
 217 12 217 12 280 38 c 0,60,61
 292 43 292 43 302 49 c 2,62,-1
 304 51 l 1,63,-1
 307 51 l 1,64,-1
 308 51 l 1,65,-1
 310 50 l 1,66,-1
 312 48 l 2,67,68
 313 47 313 47 313 46 c 2,69,-1
 313 43 l 2,70,71
 313 41 313 41 312 41 c 2,72,-1
 310 39 l 2,73,74
 303 34 303 34 290 26 c 0,75,76
 256 5 256 5 229 0 c 0,77,78
 170 -14 170 -14 110 12 c 0,79,80
 82 24 82 24 62 44 c 0,81,82
 39 69 39 69 30 106 c 0,83,84
 23 136 23 136 26 164 c 0,16,17
EndSplineSet
EndChar
StartChar: Gcommaaccent
Encoding: 290 290 250
Width: 624
Flags: W
LayerCount: 2
Fore
SplineSet
295 -274 m 1,0,-1
 303 -285 l 1,1,-1
 295 -274 l 1,0,-1
354 -69 m 1,2,3
 359 -70 359 -70 363 -72.5 c 128,-1,4
 367 -75 367 -75 368 -77 c 2,5,-1
 374 -84 l 1,6,-1
 381 -90 l 2,7,8
 384 -94 384 -94 392 -99 c 128,-1,9
 400 -104 400 -104 406 -109 c 128,-1,10
 412 -114 412 -114 414 -121 c 128,-1,11
 416 -128 416 -128 409.5 -141 c 128,-1,12
 403 -154 403 -154 403 -156 c 0,13,14
 380 -251 380 -251 303 -285 c 1,15,-1
 295 -267 l 1,16,17
 326 -249 326 -249 343.5 -225.5 c 128,-1,18
 361 -202 361 -202 347 -175 c 0,19,20
 343 -168 343 -168 328 -152.5 c 128,-1,21
 313 -137 313 -137 310 -123 c 1,22,23
 338 -108 338 -108 354 -69 c 1,2,3
359 592 m 0,24,25
 390 592 390 592 413.5 588 c 128,-1,26
 437 584 437 584 464.5 576 c 128,-1,27
 492 568 492 568 495 567 c 0,28,29
 508 565 508 565 513 568 c 0,30,31
 519 572 519 572 527 584 c 0,32,33
 529 588 529 588 534 587.5 c 128,-1,34
 539 587 539 587 538 582 c 0,35,36
 536 567 536 567 541.5 520.5 c 128,-1,37
 547 474 547 474 554 455 c 0,38,39
 555 451 555 451 552.5 448.5 c 128,-1,40
 550 446 550 446 547 446 c 0,41,42
 539 446 539 446 538 452 c 0,43,44
 520 498 520 498 471.5 532 c 128,-1,45
 423 566 423 566 340 566 c 0,46,47
 283 566 283 566 245 549 c 0,48,49
 176 518 176 518 134.5 452.5 c 128,-1,50
 93 387 93 387 93 299 c 0,51,52
 93 190 93 190 172.5 103 c 128,-1,53
 252 16 252 16 364 16 c 0,54,55
 434 16 434 16 490 51 c 0,56,57
 503 60 503 60 504 79 c 0,58,59
 508 147 508 147 501 225 c 0,60,61
 499 251 499 251 481 260 c 128,-1,62
 463 269 463 269 398 268 c 0,63,64
 391 268 391 268 391 277 c 128,-1,65
 391 286 391 286 399 286 c 0,66,67
 433 284 433 284 478 285 c 0,68,69
 548 285 548 285 596 290 c 0,70,71
 605 292 605 292 606 282 c 0,72,73
 606 275 606 275 600 273 c 0,74,75
 583 269 583 269 577.5 259 c 128,-1,76
 572 249 572 249 571 226 c 0,77,78
 569 79 569 79 569 68 c 0,79,80
 569 51 569 51 586 36 c 0,81,82
 589 33 589 33 589 29 c 128,-1,83
 589 25 589 25 585 24 c 0,84,85
 560 20 560 20 512.5 11 c 128,-1,86
 465 2 465 2 427 -3.5 c 128,-1,87
 389 -9 389 -9 355 -9 c 0,88,89
 212 -9 212 -9 116 73.5 c 128,-1,90
 20 156 20 156 20 298 c 0,91,92
 20 363 20 363 51.5 423 c 128,-1,93
 83 483 83 483 129.5 518 c 128,-1,94
 176 553 176 553 238 572.5 c 128,-1,95
 300 592 300 592 359 592 c 0,24,25
EndSplineSet
EndChar
StartChar: hbar
Encoding: 295 295 253
Width: 455
Flags: W
LayerCount: 2
Fore
SplineSet
97 483 m 1,0,-1
 220 483 l 1,1,-1
 220 459 l 1,2,-1
 97 459 l 1,3,-1
 -1 459 l 1,4,-1
 -1 483 l 1,5,-1
 97 483 l 1,0,-1
173 308 m 0,6,7
 210 325 210 325 242 333 c 0,8,9
 284 343 284 343 311 334 c 0,10,11
 328 328 328 328 340 316 c 0,12,13
 354 302 354 302 361 287 c 0,14,15
 370 267 370 267 373 241 c 0,16,17
 373 240 373 240 376 194 c 0,18,19
 377 165 377 165 377 107 c 0,20,21
 377 86 377 86 375 46 c 0,22,23
 375 39 375 39 376 37 c 2,24,-1
 377 34 l 2,25,26
 378 30 378 30 379 28 c 0,27,28
 382 24 382 24 387 23 c 0,29,30
 393 21 393 21 396 21 c 2,31,-1
 430 15 l 1,32,-1
 433 15 l 1,33,-1
 436 12 l 2,34,35
 438 10 438 10 438 9 c 2,36,-1
 438 6 l 2,37,38
 438 4 438 4 437 3 c 0,39,40
 437 2 437 2 436 2 c 2,41,-1
 435 0 l 2,42,43
 433 -2 433 -2 431 -2 c 2,44,-1
 428 -2 l 2,45,46
 385 0 385 0 362 0 c 0,47,48
 323 0 323 0 284 -3 c 2,49,-1
 282 -3 l 2,50,51
 280 -3 280 -3 279 -2 c 128,-1,52
 278 -1 278 -1 278 1 c 2,53,-1
 278 3 l 1,54,-1
 278 5 l 1,55,-1
 278 6 l 1,56,-1
 279 8 l 2,57,58
 279 9 279 9 281 9 c 2,59,-1
 282 9 l 1,60,-1
 283 9 l 1,61,-1
 300 14 l 2,62,63
 306 16 306 16 307.5 17 c 128,-1,64
 309 18 309 18 313 22 c 0,65,66
 314 23 314 23 316 28.5 c 128,-1,67
 318 34 318 34 318 36 c 0,68,69
 327 92 327 92 323 148 c 0,70,71
 321 200 321 200 319 226 c 0,72,73
 318 244 318 244 310 261 c 0,74,75
 302 279 302 279 287 288 c 0,76,77
 275 296 275 296 262 299 c 0,78,79
 257 300 257 300 234 300 c 0,80,81
 202 298 202 298 180 292 c 0,82,83
 153 285 153 285 133 274 c 1,84,85
 129 174 129 174 130 125 c 2,86,-1
 130 59 l 1,87,-1
 130 52 l 1,88,-1
 130 45 l 2,89,90
 130 37 130 37 133 32 c 0,91,92
 136 25 136 25 143 23 c 0,93,94
 150 19 150 19 156 18 c 2,95,-1
 184 13 l 2,96,97
 186 13 186 13 190 11 c 2,98,-1
 192 9 l 1,99,-1
 192 7 l 2,100,101
 192 5 192 5 191 4 c 2,102,-1
 189 2 l 1,103,-1
 188 2 l 2,104,105
 187 1 187 1 186 1 c 2,106,-1
 183 1 l 2,107,108
 158 2 158 2 109 2 c 0,109,110
 83 2 83 2 31 0 c 2,111,-1
 28 0 l 2,112,113
 27 0 27 0 27 2 c 2,114,-1
 26 3 l 1,115,-1
 26 4 l 1,116,-1
 26 6 l 1,117,-1
 26 9 l 2,118,119
 26 10 26 10 26.5 9.5 c 128,-1,120
 27 9 27 9 27 10 c 128,-1,121
 27 11 27 11 29 11 c 0,122,123
 30 11 30 11 30 11.5 c 128,-1,124
 30 12 30 12 31 12 c 2,125,-1
 47 17 l 2,126,127
 51 18 51 18 59 22 c 0,128,129
 65 25 65 25 67 30 c 0,130,131
 71 38 71 38 72 41.5 c 128,-1,132
 73 45 73 45 73 53 c 0,133,134
 77 128 77 128 80 279 c 0,135,136
 82 355 82 355 82 505 c 2,137,-1
 82 529 l 2,138,139
 82 544 82 544 78 555 c 0,140,141
 77 560 77 560 74 562 c 0,142,143
 69 567 69 567 66 568 c 128,-1,144
 63 569 63 569 58 569 c 0,145,146
 54 569 54 569 48 567 c 2,147,-1
 33 562 l 1,148,-1
 31 562 l 1,149,-1
 29 562 l 1,150,-1
 26 562 l 2,151,152
 25 562 25 562 24 563 c 128,-1,153
 23 564 23 564 23 567 c 2,154,-1
 23 570 l 1,155,-1
 26 573 l 1,156,-1
 31 576 l 1,157,-1
 74 594 l 2,158,159
 105 606 105 606 116 614 c 0,160,161
 125 619 125 619 136 629 c 0,162,163
 136 630 136 630 137 630 c 128,-1,164
 138 630 138 630 139 630.5 c 128,-1,165
 140 631 140 631 143 631 c 128,-1,166
 146 631 146 631 149 630 c 0,167,168
 151 629 151 629 153 625 c 2,169,-1
 153 621 l 1,170,-1
 153 620 l 1,171,-1
 152 618 l 2,172,173
 145 600 145 600 144 572 c 0,174,175
 138 487 138 487 136 444 c 0,176,177
 134 393 134 393 132 287 c 1,178,179
 149 298 149 298 173 308 c 0,6,7
EndSplineSet
EndChar
StartChar: jcircumflex
Encoding: 309 309 262
Width: 226
Flags: W
LayerCount: 2
Fore
SplineSet
15 414 m 1,0,-1
 31 448 l 2,1,2
 40 467 40 467 48 479 c 2,3,-1
 67 513 l 2,4,5
 79 535 79 535 85 545 c 2,6,-1
 98 565 l 2,7,8
 102 571 102 571 112.5 577 c 128,-1,9
 123 583 123 583 137 581 c 0,10,11
 144 580 144 580 149.5 575 c 128,-1,12
 155 570 155 570 158 566 c 128,-1,13
 161 562 161 562 165.5 553 c 128,-1,14
 170 544 170 544 172 541 c 2,15,-1
 194 503 l 1,16,-1
 221 453 l 2,17,18
 232 433 232 433 241 414 c 1,19,20
 220 415 220 415 200 431.5 c 128,-1,21
 180 448 180 448 156 477 c 2,22,-1
 126 514 l 1,23,24
 110 483 110 483 76.5 449 c 128,-1,25
 43 415 43 415 15 414 c 1,0,-1
106 317 m 0,26,27
 135 336 135 336 152 352 c 0,28,29
 153 353 153 353 154 353 c 128,-1,30
 155 353 155 353 157 354 c 2,31,-1
 158 354 l 2,32,33
 159 353 159 353 160 353 c 128,-1,34
 161 353 161 353 162 352 c 2,35,-1
 164 349 l 2,36,37
 166 347 166 347 166 346 c 2,38,-1
 166 343 l 2,39,40
 166 342 166 342 165.5 341 c 128,-1,41
 165 340 165 340 165 339 c 0,42,43
 156 317 156 317 156 285 c 0,44,45
 155 259 155 259 155 204 c 128,-1,46
 155 149 155 149 154 123 c 0,47,48
 152 -40 152 -40 152 -121 c 0,49,50
 152 -135 152 -135 149 -142 c 0,51,52
 148 -145 148 -145 138 -160 c 0,53,54
 120 -185 120 -185 104 -200 c 0,55,56
 95 -209 95 -209 77 -224 c 0,57,58
 51 -245 51 -245 49 -247 c 0,59,60
 39 -260 39 -260 36 -276 c 0,61,62
 36 -278 36 -278 35 -279 c 0,63,64
 33 -281 33 -281 32 -281 c 2,65,-1
 29 -281 l 2,66,67
 28 -281 28 -281 26 -280 c 0,68,69
 25 -279 25 -279 24 -279 c 2,70,-1
 22 -277 l 2,71,72
 21 -276 21 -276 21 -275 c 2,73,-1
 21 -274 l 1,74,-1
 20 -272 l 1,75,76
 21 -263 21 -263 26 -247 c 0,77,78
 32 -231 32 -231 45 -212 c 0,79,80
 49 -206 49 -206 57 -195 c 128,-1,81
 65 -184 65 -184 69 -179 c 0,82,83
 85 -155 85 -155 92 -131 c 0,84,85
 98 -110 98 -110 99 -78 c 0,86,87
 104 4 104 4 104 69 c 0,88,89
 104 130 104 130 99 208 c 0,90,91
 97 231 97 231 95 240 c 0,92,93
 93 251 93 251 92 255 c 0,94,95
 89 263 89 263 84 268 c 0,96,97
 78 274 78 274 70 275 c 0,98,99
 64 276 64 276 55 274 c 2,100,-1
 45 272 l 1,101,-1
 44 272 l 2,102,103
 43 271 43 271 42.5 271 c 128,-1,104
 42 271 42 271 41 271.5 c 128,-1,105
 40 272 40 272 39 272 c 2,106,-1
 37 274 l 2,107,108
 35 276 35 276 35 277 c 128,-1,109
 35 278 35 278 36 280 c 0,110,111
 36 281 36 281 38 283 c 2,112,-1
 43 285 l 2,113,114
 76 299 76 299 106 317 c 0,26,27
EndSplineSet
EndChar
StartChar: lcommaaccent
Encoding: 316 316 267
Width: 236
Flags: W
LayerCount: 2
Fore
SplineSet
49 -269 m 1,0,-1
 57 -280 l 1,1,-1
 49 -269 l 1,0,-1
108 -64 m 1,2,3
 113 -65 113 -65 117 -67.5 c 128,-1,4
 121 -70 121 -70 122 -72 c 2,5,-1
 128 -79 l 1,6,-1
 135 -85 l 2,7,8
 138 -89 138 -89 146 -94 c 128,-1,9
 154 -99 154 -99 160 -104 c 128,-1,10
 166 -109 166 -109 168 -116 c 128,-1,11
 170 -123 170 -123 163.5 -136 c 128,-1,12
 157 -149 157 -149 157 -151 c 0,13,14
 134 -246 134 -246 57 -280 c 1,15,-1
 49 -262 l 1,16,17
 80 -244 80 -244 97.5 -220.5 c 128,-1,18
 115 -197 115 -197 101 -170 c 0,19,20
 97 -163 97 -163 82 -147.5 c 128,-1,21
 67 -132 67 -132 64 -118 c 1,22,23
 92 -103 92 -103 108 -64 c 1,2,3
95 596 m 2,24,25
 136 617 136 617 149 626 c 0,26,27
 150 627 150 627 153 627 c 2,28,-1
 156 627 l 2,29,30
 157 627 157 627 158 626 c 0,31,32
 160 624 160 624 160 621 c 0,33,34
 160 620 160 620 159.5 618.5 c 128,-1,35
 159 617 159 617 159 616 c 0,36,37
 149 574 149 574 148 512 c 0,38,39
 148 495 148 495 147.5 459.5 c 128,-1,40
 147 424 147 424 147 406 c 0,41,42
 145 243 145 243 147 164 c 0,43,44
 147 130 147 130 148 63 c 0,45,46
 148 52 148 52 149 46.5 c 128,-1,47
 150 41 150 41 156 31 c 0,48,49
 160 24 160 24 169 21 c 0,50,51
 178 17 178 17 185 16 c 2,52,-1
 213 11 l 1,53,-1
 216 11 l 1,54,-1
 217 9 l 2,55,56
 218 8 218 8 218 7 c 2,57,-1
 218 4 l 1,58,-1
 218 1 l 1,59,-1
 216 -1 l 1,60,-1
 215 -2 l 1,61,-1
 212 -2 l 2,62,63
 157 0 157 0 130 0 c 0,64,65
 76 0 76 0 32 -4 c 1,66,-1
 29 -4 l 2,67,68
 27 -4 27 -4 26 -3 c 2,69,-1
 25 -1 l 2,70,71
 24 0 24 0 24 2 c 0,72,73
 24 6 24 6 25 7 c 2,74,-1
 26 9 l 1,75,-1
 27 9 l 1,76,-1
 29 9 l 1,77,-1
 40 13 l 2,78,79
 57 19 57 19 68 28 c 0,80,81
 78 37 78 37 85 54 c 0,82,83
 91 70 91 70 91 85 c 2,84,-1
 91 117 l 2,85,86
 93 264 93 264 93 337 c 2,87,-1
 93 479 l 2,88,89
 93 506 93 506 89 528 c 2,90,-1
 86 540 l 2,91,92
 84 544 84 544 78 549 c 0,93,94
 74 553 74 553 68 555 c 0,95,96
 64 556 64 556 56 556 c 2,97,-1
 45 556 l 1,98,-1
 43 556 l 2,99,100
 42 556 42 556 42 556.5 c 128,-1,101
 42 557 42 557 41 557 c 0,102,103
 38 558 38 558 37 561 c 0,104,105
 36 562 36 562 36 563 c 2,106,-1
 36 567 l 2,107,108
 36 568 36 568 38 570 c 0,109,110
 39 571 39 571 41 571 c 2,111,-1
 95 596 l 2,24,25
EndSplineSet
EndChar
StartChar: racute
Encoding: 341 341 286
Width: 305
Flags: W
LayerCount: 2
Fore
SplineSet
145 432 m 2,0,1
 143 428 143 428 143 425 c 0,2,3
 143 412 143 412 156 412 c 0,4,5
 166 412 166 412 170 422 c 2,6,-1
 227 515 l 2,7,8
 229 517 229 517 229 520 c 0,9,10
 229 529 229 529 215 536 c 0,11,12
 206 539 206 539 200 539 c 0,13,14
 191 539 191 539 190 533 c 2,15,-1
 145 432 l 2,0,1
233 286 m 0,16,17
 226 293 226 293 214 295 c 0,18,19
 206 296 206 296 193 292 c 0,20,21
 172 285 172 285 147 267 c 0,22,23
 139 261 139 261 137 257 c 2,24,-1
 134 251 l 1,25,-1
 134 244 l 2,26,27
 133 212 133 212 133 147 c 0,28,29
 133 91 133 91 136 35 c 0,30,31
 136 29 136 29 137 27 c 2,32,-1
 138 25 l 2,33,34
 139 22 139 22 140 21 c 0,35,36
 142 19 142 19 145.5 17 c 128,-1,37
 149 15 149 15 152 15 c 0,38,39
 169 13 169 13 179 13 c 0,40,41
 200 12 200 12 220 13 c 2,42,-1
 223 13 l 2,43,44
 225 13 225 13 226 12 c 0,45,46
 228 10 228 10 228 9 c 2,47,-1
 229 9 l 1,48,-1
 229 7 l 2,49,50
 229 4 229 4 228 3 c 2,51,-1
 227 2 l 2,52,53
 227 0 227 0 226 0 c 0,54,55
 224 -2 224 -2 222 -2 c 2,56,-1
 218 -2 l 1,57,-1
 37 -5 l 1,58,-1
 35 -5 l 2,59,60
 34 -5 34 -5 32 -4 c 0,61,62
 30 -4 30 -4 30 -2 c 2,63,-1
 30 0 l 1,64,-1
 30 3 l 1,65,-1
 32 5 l 2,66,67
 33 6 33 6 34 6 c 0,68,69
 36 7 36 7 37 7 c 2,70,-1
 57 12 l 1,71,-1
 62 15 l 2,72,73
 65 17 65 17 67 20 c 2,74,-1
 70 26 l 2,75,76
 71 28 71 28 71 32 c 0,77,78
 78 83 78 83 79 134 c 0,79,80
 81 196 81 196 74 258 c 0,81,82
 74 263 74 263 72 268.5 c 128,-1,83
 70 274 70 274 65 277 c 0,84,85
 63 279 63 279 58 281 c 0,86,87
 55 282 55 282 49 282 c 0,88,89
 36 282 36 282 30 281 c 2,90,-1
 26 281 l 2,91,92
 25 281 25 281 25 281.5 c 128,-1,93
 25 282 25 282 24 282 c 0,94,95
 22 282 22 282 22 283 c 2,96,-1
 22 285 l 1,97,-1
 22 287 l 2,98,99
 22 289 22 289 24 289 c 0,100,101
 25 289 25 289 25 289.5 c 128,-1,102
 25 290 25 290 26 290 c 0,103,104
 60 309 60 309 77 320 c 0,105,106
 90 328 90 328 124 351 c 0,107,108
 125 352 125 352 128 352 c 0,109,110
 130 352 130 352 130 351 c 0,111,112
 132 349 132 349 132 348 c 2,113,-1
 132 347 l 2,114,115
 133 346 133 346 133 345 c 2,116,-1
 132 277 l 1,117,-1
 239 341 l 1,118,-1
 243 344 l 2,119,120
 244 345 244 345 246 345 c 2,121,-1
 250 345 l 2,122,123
 253 345 253 345 253 344 c 2,124,-1
 269 332 l 2,125,126
 280 323 280 323 282 322 c 0,127,128
 288 315 288 315 289 309 c 0,129,130
 291 300 291 300 286 291 c 0,131,132
 283 285 283 285 274 278 c 128,-1,133
 265 271 265 271 251 267 c 0,134,135
 250 267 250 267 249 266.5 c 128,-1,136
 248 266 248 266 247 266 c 2,137,-1
 243 266 l 1,138,-1
 240 268 l 2,139,140
 239 269 239 269 239 272 c 0,141,142
 238 281 238 281 233 286 c 0,16,17
EndSplineSet
EndChar
StartChar: sacute
Encoding: 347 347 290
Width: 279
Flags: W
LayerCount: 2
Fore
SplineSet
156 428 m 2,0,1
 154 424 154 424 154 421 c 0,2,3
 154 408 154 408 167 408 c 0,4,5
 177 408 177 408 181 418 c 2,6,-1
 238 511 l 2,7,8
 240 513 240 513 240 516 c 0,9,10
 240 525 240 525 226 532 c 0,11,12
 217 535 217 535 211 535 c 0,13,14
 202 535 202 535 201 529 c 2,15,-1
 156 428 l 2,0,1
61 289 m 0,16,17
 78 307 78 307 106 319 c 0,18,19
 128 328 128 328 149 330 c 0,20,21
 163 332 163 332 193 330 c 0,22,23
 203 329 203 329 229 325 c 1,24,-1
 239 261 l 1,25,-1
 239 259 l 1,26,-1
 239 256 l 2,27,28
 239 255 239 255 238 254 c 128,-1,29
 237 253 237 253 235 253 c 2,30,-1
 233 253 l 2,31,32
 232 253 232 253 231.5 254 c 128,-1,33
 231 255 231 255 230 256 c 128,-1,34
 229 257 229 257 229 258 c 0,35,36
 222 271 222 271 204 287 c 0,37,38
 181 305 181 305 156 311 c 0,39,40
 137 315 137 315 125 311 c 0,41,42
 110 306 110 306 99 296 c 0,43,44
 85 282 85 282 85 260 c 0,45,46
 85 244 85 244 100 227 c 0,47,48
 109 217 109 217 130 206 c 0,49,50
 138 202 138 202 153.5 196.5 c 128,-1,51
 169 191 169 191 177 187 c 0,52,53
 198 178 198 178 218 162 c 0,54,55
 235 148 235 148 245.5 132.5 c 128,-1,56
 256 117 256 117 259 95 c 0,57,58
 264 69 264 69 250 45 c 0,59,60
 249 43 249 43 247 41.5 c 128,-1,61
 245 40 245 40 244 38 c 0,62,63
 241 34 241 34 237 31 c 0,64,65
 212 9 212 9 184 0 c 0,66,67
 138 -15 138 -15 87 -7 c 0,68,69
 59 -2 59 -2 40 7 c 1,70,71
 39 20 39 20 35 42 c 0,72,73
 29 67 29 67 25 79 c 1,74,-1
 25 81 l 1,75,-1
 24 83 l 1,76,-1
 24 86 l 2,77,78
 24 88 24 88 25 89 c 0,79,80
 27 91 27 91 28 91 c 2,81,-1
 31 91 l 2,82,83
 32 91 32 91 34 89 c 0,84,85
 38 85 38 85 39 83 c 0,86,87
 52 62 52 62 54 60 c 0,88,89
 69 39 69 39 88 26.5 c 128,-1,90
 107 14 107 14 131 11 c 0,91,92
 157 8 157 8 179 16 c 0,93,94
 189 20 189 20 198.5 29.5 c 128,-1,95
 208 39 208 39 211 49 c 0,96,97
 216 66 216 66 210 81 c 128,-1,98
 204 96 204 96 193 110 c 0,99,100
 175 130 175 130 140 147 c 2,101,-1
 112 159 l 2,102,103
 92 168 92 168 81 174 c 0,104,105
 66 183 66 183 56 195 c 128,-1,106
 46 207 46 207 41 223 c 0,107,108
 36 242 36 242 42 259 c 0,109,110
 47 274 47 274 61 289 c 0,16,17
EndSplineSet
EndChar
StartChar: scaron
Encoding: 353 353 294
Width: 279
Flags: W
LayerCount: 2
Fore
SplineSet
54 576 m 1,0,1
 75 575 75 575 95 558 c 128,-1,2
 115 541 115 541 138 511.5 c 128,-1,3
 161 482 161 482 169 475 c 1,4,5
 182 495 182 495 190.5 506 c 128,-1,6
 199 517 199 517 215.5 536 c 128,-1,7
 232 555 232 555 248.5 565 c 128,-1,8
 265 575 265 575 280 576 c 1,9,10
 273 560 273 560 263.5 541.5 c 128,-1,11
 254 523 254 523 246.5 510.5 c 128,-1,12
 239 498 239 498 227.5 476.5 c 128,-1,13
 216 455 216 455 210 445 c 0,14,15
 201 430 201 430 196.5 424 c 128,-1,16
 192 418 192 418 182 412 c 128,-1,17
 172 406 172 406 158 408 c 0,18,19
 151 409 151 409 145 414.5 c 128,-1,20
 139 420 139 420 136.5 423.5 c 128,-1,21
 134 427 134 427 129 436.5 c 128,-1,22
 124 446 124 446 122 449 c 0,23,24
 118 457 118 457 100.5 487 c 128,-1,25
 83 517 83 517 72.5 536.5 c 128,-1,26
 62 556 62 556 54 576 c 1,0,1
61 289 m 0,27,28
 78 307 78 307 106 319 c 0,29,30
 128 328 128 328 149 330 c 0,31,32
 163 332 163 332 193 330 c 0,33,34
 203 329 203 329 229 325 c 1,35,-1
 239 261 l 1,36,-1
 239 259 l 1,37,-1
 239 256 l 2,38,39
 239 255 239 255 238 254 c 128,-1,40
 237 253 237 253 235 253 c 2,41,-1
 233 253 l 2,42,43
 232 253 232 253 231.5 254 c 128,-1,44
 231 255 231 255 230 256 c 128,-1,45
 229 257 229 257 229 258 c 0,46,47
 222 271 222 271 204 287 c 0,48,49
 181 305 181 305 156 311 c 0,50,51
 137 315 137 315 125 311 c 0,52,53
 110 306 110 306 99 296 c 0,54,55
 85 282 85 282 85 260 c 0,56,57
 85 244 85 244 100 227 c 0,58,59
 109 217 109 217 130 206 c 0,60,61
 138 202 138 202 153.5 196.5 c 128,-1,62
 169 191 169 191 177 187 c 0,63,64
 198 178 198 178 218 162 c 0,65,66
 235 148 235 148 245.5 132.5 c 128,-1,67
 256 117 256 117 259 95 c 0,68,69
 264 69 264 69 250 45 c 0,70,71
 249 43 249 43 247 41.5 c 128,-1,72
 245 40 245 40 244 38 c 0,73,74
 241 34 241 34 237 31 c 0,75,76
 212 9 212 9 184 0 c 0,77,78
 138 -15 138 -15 87 -7 c 0,79,80
 59 -2 59 -2 40 7 c 1,81,82
 39 20 39 20 35 42 c 0,83,84
 29 67 29 67 25 79 c 1,85,-1
 25 81 l 1,86,-1
 24 83 l 1,87,-1
 24 86 l 2,88,89
 24 88 24 88 25 89 c 0,90,91
 27 91 27 91 28 91 c 2,92,-1
 31 91 l 2,93,94
 32 91 32 91 34 89 c 0,95,96
 38 85 38 85 39 83 c 0,97,98
 52 62 52 62 54 60 c 0,99,100
 69 39 69 39 88 26.5 c 128,-1,101
 107 14 107 14 131 11 c 0,102,103
 157 8 157 8 179 16 c 0,104,105
 189 20 189 20 198.5 29.5 c 128,-1,106
 208 39 208 39 211 49 c 0,107,108
 216 66 216 66 210 81 c 128,-1,109
 204 96 204 96 193 110 c 0,110,111
 175 130 175 130 140 147 c 2,112,-1
 112 159 l 2,113,114
 92 168 92 168 81 174 c 0,115,116
 66 183 66 183 56 195 c 128,-1,117
 46 207 46 207 41 223 c 0,118,119
 36 242 36 242 42 259 c 0,120,121
 47 274 47 274 61 289 c 0,27,28
EndSplineSet
EndChar
StartChar: Tcommaaccent
Encoding: 354 354 295
Width: 634
Flags: W
LayerCount: 2
Fore
SplineSet
117 -85 m 1,0,-1
 120 -89 l 1,1,-1
 117 -85 l 1,0,-1
120 -85 m 1,2,3
 154 -3 154 -3 196 -2 c 1,4,-1
 171 -45 l 1,5,6
 201 -58 201 -58 219 -80.5 c 128,-1,7
 237 -103 237 -103 234.5 -130.5 c 128,-1,8
 232 -158 232 -158 204 -180 c 0,9,10
 161 -216 161 -216 77 -216 c 1,11,-1
 77 -193 l 1,12,13
 140 -193 140 -193 170 -166 c 0,14,15
 187 -152 187 -152 187.5 -134 c 128,-1,16
 188 -116 188 -116 170 -102 c 0,17,18
 164 -97 164 -97 155.5 -94.5 c 128,-1,19
 147 -92 147 -92 136 -89.5 c 128,-1,20
 125 -87 125 -87 120 -85 c 1,2,3
60 596 m 0,21,22
 63 596 63 596 70.5 588.5 c 128,-1,23
 78 581 78 581 89 580 c 0,24,25
 137 577 137 577 313 578 c 2,26,-1
 388 578 l 2,27,28
 428 578 428 578 460.5 578.5 c 128,-1,29
 493 579 493 579 520 579 c 2,30,-1
 562 579 l 1,31,-1
 579 579 l 2,32,33
 586 579 586 579 593.5 580.5 c 128,-1,34
 601 582 601 582 606.5 584 c 128,-1,35
 612 586 612 586 613 586 c 0,36,37
 622 586 622 586 618 578 c 0,38,39
 613 569 613 569 606 547 c 0,40,41
 602 534 602 534 595 491 c 0,42,43
 594 480 594 480 581 481 c 0,44,45
 572 484 572 484 573 491 c 2,46,-1
 580 525 l 1,47,48
 560 545 560 545 496 549 c 128,-1,49
 432 553 432 553 358 548 c 1,50,51
 348 196 348 196 353 84 c 0,52,53
 353 75 353 75 354 67 c 128,-1,54
 355 59 355 59 356 52.5 c 128,-1,55
 357 46 357 46 361 41.5 c 128,-1,56
 365 37 365 37 366.5 33.5 c 128,-1,57
 368 30 368 30 374.5 28 c 128,-1,58
 381 26 381 26 383 24.5 c 128,-1,59
 385 23 385 23 395 21.5 c 128,-1,60
 405 20 405 20 407.5 19.5 c 128,-1,61
 410 19 410 19 423.5 18 c 128,-1,62
 437 17 437 17 441 16 c 0,63,64
 451 14 451 14 446 3 c 0,65,66
 442 -6 442 -6 436 -7 c 0,67,68
 431 -7 431 -7 397 -2 c 128,-1,69
 363 3 363 3 337 4 c 0,70,71
 286 5 286 5 196 -9 c 0,72,73
 187 -10 187 -10 184 -3 c 0,74,75
 178 7 178 7 189 9 c 0,76,77
 243 19 243 19 266 31 c 0,78,79
 274 34 274 34 276 42.5 c 128,-1,80
 278 51 278 51 279 82 c 0,81,82
 292 506 292 506 275 546 c 1,83,84
 224 554 224 554 134 549 c 0,85,86
 88 547 88 547 61 534 c 0,87,88
 50 528 50 528 45.5 521 c 128,-1,89
 41 514 41 514 33 493 c 0,90,91
 30 483 30 483 23 486 c 0,92,93
 14 491 14 491 16 496 c 0,94,95
 49 568 49 568 53 588 c 0,96,97
 55 596 55 596 60 596 c 0,21,22
EndSplineSet
EndChar
StartChar: tcommaaccent
Encoding: 355 355 296
Width: 289
Flags: W
LayerCount: 2
Fore
SplineSet
59 -81 m 1,0,-1
 62 -85 l 1,1,-1
 59 -81 l 1,0,-1
62 -81 m 1,2,3
 96 1 96 1 138 2 c 1,4,-1
 113 -41 l 1,5,6
 143 -54 143 -54 161 -76.5 c 128,-1,7
 179 -99 179 -99 176.5 -126.5 c 128,-1,8
 174 -154 174 -154 146 -176 c 0,9,10
 103 -212 103 -212 19 -212 c 1,11,-1
 19 -189 l 1,12,13
 82 -189 82 -189 112 -162 c 0,14,15
 129 -148 129 -148 129.5 -130 c 128,-1,16
 130 -112 130 -112 112 -98 c 0,17,18
 106 -93 106 -93 97.5 -90.5 c 128,-1,19
 89 -88 89 -88 78 -85.5 c 128,-1,20
 67 -83 67 -83 62 -81 c 1,2,3
120 206 m 0,21,22
 120 134 120 134 122 98 c 0,23,24
 124 72 124 72 131 59 c 0,25,26
 140 41 140 41 162 33 c 0,27,28
 181 26 181 26 203 31 c 0,29,30
 213 33 213 33 242 43 c 2,31,-1
 252 47 l 2,32,33
 253 47 253 47 256 48 c 128,-1,34
 259 49 259 49 260 50 c 0,35,36
 261 50 261 50 262.5 50.5 c 128,-1,37
 264 51 264 51 265 51 c 2,38,-1
 266 51 l 1,39,-1
 267 50 l 2,40,41
 269 50 269 50 268 48 c 0,42,43
 268 47 268 47 268.5 47 c 128,-1,44
 269 47 269 47 269 46 c 128,-1,45
 269 45 269 45 268 43 c 128,-1,46
 267 41 267 41 266 40 c 128,-1,47
 265 39 265 39 262 37.5 c 128,-1,48
 259 36 259 36 258 35 c 0,49,50
 216 11 216 11 182 1 c 0,51,52
 156 -6 156 -6 138 -5 c 0,53,54
 114 -3 114 -3 97 9 c 128,-1,55
 80 21 80 21 73 43 c 0,56,57
 68 57 68 57 68 86 c 2,58,-1
 72 303 l 1,59,-1
 28 303 l 2,60,61
 25 303 25 303 25 304 c 2,62,-1
 24 305 l 2,63,64
 23 306 23 306 23 307 c 2,65,-1
 23 309 l 1,66,-1
 24 310 l 1,67,-1
 26 313 l 1,68,69
 46 322 46 322 62 333 c 0,70,71
 95 356 95 356 122 394 c 1,72,-1
 126 398 l 2,73,74
 127 399 127 399 128 399 c 2,75,-1
 130 399 l 2,76,77
 131 399 131 399 132 398 c 128,-1,78
 133 397 133 397 133 396 c 128,-1,79
 133 395 133 395 134 393 c 2,80,-1
 134 391 l 1,81,-1
 124 327 l 1,82,-1
 252 330 l 1,83,-1
 255 330 l 1,84,-1
 257 328 l 1,85,-1
 259 326 l 1,86,-1
 259 323 l 1,87,-1
 259 311 l 1,88,-1
 259 308 l 2,89,90
 259 307 259 307 257 305 c 0,91,92
 256 304 256 304 255 304 c 2,93,-1
 254 304 l 2,94,95
 253 303 253 303 252 303 c 2,96,-1
 124 303 l 1,97,98
 120 239 120 239 120 206 c 0,21,22
EndSplineSet
EndChar
StartChar: umacron
Encoding: 363 363 301
Width: 449
Flags: W
LayerCount: 2
Fore
SplineSet
89 441 m 1,0,-1
 350 441 l 1,1,-1
 350 408 l 1,2,-1
 89 408 l 1,3,-1
 89 441 l 1,0,-1
130 239 m 0,4,5
 128 213 128 213 128 163 c 128,-1,6
 128 113 128 113 133 89 c 0,7,8
 137 74 137 74 141 66 c 0,9,10
 148 54 148 54 156 47 c 0,11,12
 173 33 173 33 199 33 c 0,13,14
 222 32 222 32 253 43 c 0,15,16
 278 52 278 52 310 71 c 1,17,18
 312 115 312 115 314 200 c 0,19,20
 314 211 314 211 314.5 234 c 128,-1,21
 315 257 315 257 315 268 c 0,22,23
 315 278 315 278 313 284 c 0,24,25
 310 292 310 292 304 295 c 0,26,27
 299 299 299 299 290 301 c 2,28,-1
 274 301 l 1,29,-1
 267 301 l 1,30,-1
 264 301 l 1,31,-1
 263 301 l 1,32,-1
 261 302 l 1,33,-1
 260 302 l 1,34,-1
 259 303 l 1,35,-1
 259 304 l 1,36,-1
 259 306 l 1,37,-1
 260 310 l 1,38,-1
 261 311 l 1,39,-1
 261 312 l 2,40,41
 261 313 261 313 262 314 c 128,-1,42
 263 315 263 315 264 315 c 128,-1,43
 265 315 265 315 265 315.5 c 128,-1,44
 265 316 265 316 266 316 c 0,45,46
 284 319 284 319 318 326 c 0,47,48
 340 331 340 331 371 339 c 1,49,-1
 372 340 l 1,50,-1
 373 340 l 1,51,-1
 375 339 l 2,52,53
 376 338 376 338 376 337 c 2,54,-1
 376 334 l 1,55,-1
 376 330 l 2,56,57
 375 304 375 304 371 239.5 c 128,-1,58
 367 175 367 175 366 140 c 0,59,60
 364 106 364 106 367 79 c 0,61,62
 369 54 369 54 372 33 c 0,63,64
 372 32 372 32 372.5 31 c 128,-1,65
 373 30 373 30 373 29 c 0,66,67
 373 27 373 27 375 25.5 c 128,-1,68
 377 24 377 24 379 24 c 0,69,70
 380 24 380 24 381 24.5 c 128,-1,71
 382 25 382 25 383 25 c 2,72,-1
 423 33 l 1,73,-1
 425 33 l 2,74,75
 426 33 426 33 427 32 c 2,76,-1
 429 30 l 1,77,-1
 429 29 l 1,78,-1
 430 28 l 1,79,-1
 431 27 l 1,80,-1
 431 26 l 2,81,82
 431 25 431 25 430.5 25 c 128,-1,83
 430 25 430 25 430 24 c 0,84,85
 430 22 430 22 429 22 c 2,86,-1
 428 21 l 1,87,-1
 426 21 l 1,88,-1
 379 6 l 1,89,-1
 332 -9 l 2,90,91
 331 -9 331 -9 330 -9.5 c 128,-1,92
 329 -10 329 -10 328 -10 c 2,93,-1
 324 -10 l 1,94,-1
 321 -8 l 2,95,96
 319 -6 319 -6 320 -4 c 2,97,-1
 314 25 l 2,98,99
 312 37 312 37 310 54 c 1,100,101
 293 44 293 44 257 26 c 0,102,103
 204 1 204 1 175 -2 c 0,104,105
 158 -5 158 -5 141 -2 c 0,106,107
 122 1 122 1 109 10 c 0,108,109
 93 21 93 21 82 45 c 0,110,111
 74 64 74 64 73 88 c 0,112,113
 71 115 71 115 73 171 c 0,114,115
 74 198 74 198 74 253 c 0,116,117
 74 263 74 263 73 268 c 0,118,119
 71 277 71 277 66 283 c 0,120,121
 59 290 59 290 54 290 c 0,122,123
 45 292 45 292 38 290 c 2,124,-1
 29 289 l 1,125,-1
 27 289 l 2,126,127
 26 289 26 289 26 290 c 1,128,129
 25 290 25 290 25 291 c 2,130,-1
 25 292 l 1,131,-1
 24 293 l 1,132,-1
 23 294 l 1,133,-1
 23 296 l 2,134,135
 23 297 23 297 23.5 297 c 128,-1,136
 24 297 24 297 24 298 c 128,-1,137
 24 299 24 299 25 300 c 2,138,-1
 26 301 l 1,139,140
 56 311 56 311 83 322 c 0,141,142
 104 331 104 331 128 344 c 1,143,-1
 129 344 l 1,144,-1
 130 344 l 2,145,146
 132 344 132 344 134 342 c 2,147,-1
 135 342 l 1,148,-1
 136 341 l 2,149,150
 137 341 137 341 137 340 c 2,151,-1
 138 339 l 1,152,-1
 138 338 l 1,153,-1
 138 337 l 1,154,-1
 135 306 l 2,155,156
 136 306 136 306 130 239 c 0,4,5
EndSplineSet
EndChar
StartChar: zacute
Encoding: 378 378 309
Width: 397
Flags: W
LayerCount: 2
Fore
SplineSet
159 428 m 2,0,1
 157 424 157 424 157 421 c 0,2,3
 157 408 157 408 170 408 c 0,4,5
 180 408 180 408 184 418 c 2,6,-1
 241 511 l 2,7,8
 243 513 243 513 243 516 c 0,9,10
 243 525 243 525 229 532 c 0,11,12
 220 535 220 535 214 535 c 0,13,14
 205 535 205 535 204 529 c 2,15,-1
 159 428 l 2,0,1
117 23 m 1,16,17
 127 23 127 23 178 22 c 128,-1,18
 229 21 229 21 239 22 c 0,19,20
 271 24 271 24 287 27 c 0,21,22
 311 33 311 33 330 49 c 0,23,24
 352 67 352 67 359 95 c 0,25,26
 359 98 359 98 360 98 c 128,-1,27
 361 98 361 98 361 99 c 128,-1,28
 361 100 361 100 362 101 c 0,29,30
 364 103 364 103 366 103 c 0,31,32
 369 103 369 103 370 102 c 0,33,34
 371 102 371 102 371 101 c 2,35,-1
 372 100 l 2,36,37
 373 99 373 99 373 96 c 0,38,39
 373 91 373 91 372 89 c 2,40,-1
 364 52 l 2,41,42
 358 29 358 29 350 6 c 0,43,44
 350 5 350 5 348 3 c 0,45,46
 348 2 348 2 347 1 c 2,47,-1
 346 0 l 2,48,49
 344 -2 344 -2 343 -2 c 2,50,-1
 339 -2 l 2,51,52
 307 0 307 0 247 2 c 0,53,54
 147 5 147 5 36 -3 c 1,55,-1
 33 -3 l 2,56,57
 32 -3 32 -3 30 -2 c 0,58,59
 29 -2 29 -2 28 -1 c 128,-1,60
 27 0 27 0 27 2 c 0,61,62
 27 5 27 5 28 7 c 128,-1,63
 29 9 29 9 31 10 c 0,64,65
 92 74 92 74 157 154 c 2,66,-1
 167 166 l 1,67,-1
 49 166 l 1,68,-1
 62 193 l 1,69,-1
 188 193 l 1,70,71
 231 250 231 250 272 311 c 1,72,73
 224 313 224 313 198 312 c 0,74,75
 138 310 138 310 95 305 c 0,76,77
 84 303 84 303 78 302 c 0,78,79
 69 299 69 299 61 293 c 0,80,81
 46 283 46 283 38 268 c 2,82,-1
 34 261 l 1,83,-1
 33 259 l 2,84,85
 32 257 32 257 31 257 c 0,86,87
 29 255 29 255 28 255 c 0,88,89
 24 255 24 255 24 256 c 0,90,91
 21 259 21 259 21 260 c 128,-1,92
 21 261 21 261 21.5 262.5 c 128,-1,93
 22 264 22 264 22 265 c 0,94,95
 22 268 22 268 24 269 c 0,96,97
 32 282 32 282 35 296 c 0,98,99
 41 311 41 311 43 329 c 0,100,101
 43 331 43 331 44 332 c 2,102,-1
 47 335 l 2,103,104
 48 336 48 336 50 336 c 0,105,106
 51 336 51 336 53 335 c 0,107,108
 66 333 66 333 95 331 c 0,109,110
 148 327 148 327 225 329 c 0,111,112
 274 330 274 330 356 334 c 1,113,-1
 358 334 l 1,114,-1
 360 334 l 2,115,116
 361 334 361 334 361 333 c 2,117,-1
 362 332 l 1,118,-1
 362 331 l 2,119,120
 362 328 362 328 361 327 c 2,121,-1
 360 326 l 2,122,123
 359 325 359 325 359 324 c 2,124,-1
 301 252 l 1,125,-1
 250 193 l 1,126,-1
 351 193 l 1,127,-1
 336 166 l 1,128,-1
 227 166 l 1,129,-1
 211 147 l 2,130,131
 162 89 162 89 117 23 c 1,16,17
EndSplineSet
EndChar
StartChar: zcaron
Encoding: 382 382 311
Width: 397
Flags: W
LayerCount: 2
Fore
SplineSet
87 576 m 1,0,1
 108 575 108 575 128 558 c 128,-1,2
 148 541 148 541 171 511.5 c 128,-1,3
 194 482 194 482 202 475 c 1,4,5
 215 495 215 495 223.5 506 c 128,-1,6
 232 517 232 517 248.5 536 c 128,-1,7
 265 555 265 555 281.5 565 c 128,-1,8
 298 575 298 575 313 576 c 1,9,10
 306 560 306 560 296.5 541.5 c 128,-1,11
 287 523 287 523 279.5 510.5 c 128,-1,12
 272 498 272 498 260.5 476.5 c 128,-1,13
 249 455 249 455 243 445 c 0,14,15
 234 430 234 430 229.5 424 c 128,-1,16
 225 418 225 418 215 412 c 128,-1,17
 205 406 205 406 191 408 c 0,18,19
 184 409 184 409 178 414.5 c 128,-1,20
 172 420 172 420 169.5 423.5 c 128,-1,21
 167 427 167 427 162 436.5 c 128,-1,22
 157 446 157 446 155 449 c 0,23,24
 151 457 151 457 133.5 487 c 128,-1,25
 116 517 116 517 105.5 536.5 c 128,-1,26
 95 556 95 556 87 576 c 1,0,1
117 23 m 1,27,28
 127 23 127 23 178 22 c 128,-1,29
 229 21 229 21 239 22 c 0,30,31
 271 24 271 24 287 27 c 0,32,33
 311 33 311 33 330 49 c 0,34,35
 352 67 352 67 359 95 c 0,36,37
 359 98 359 98 360 98 c 128,-1,38
 361 98 361 98 361 99 c 128,-1,39
 361 100 361 100 362 101 c 0,40,41
 364 103 364 103 366 103 c 0,42,43
 369 103 369 103 370 102 c 0,44,45
 371 102 371 102 371 101 c 2,46,-1
 372 100 l 2,47,48
 373 99 373 99 373 96 c 0,49,50
 373 91 373 91 372 89 c 2,51,-1
 364 52 l 2,52,53
 358 29 358 29 350 6 c 0,54,55
 350 5 350 5 348 3 c 0,56,57
 348 2 348 2 347 1 c 2,58,-1
 346 0 l 2,59,60
 344 -2 344 -2 343 -2 c 2,61,-1
 339 -2 l 2,62,63
 307 0 307 0 247 2 c 0,64,65
 147 5 147 5 36 -3 c 1,66,-1
 33 -3 l 2,67,68
 32 -3 32 -3 30 -2 c 0,69,70
 29 -2 29 -2 28 -1 c 128,-1,71
 27 0 27 0 27 2 c 0,72,73
 27 5 27 5 28 7 c 128,-1,74
 29 9 29 9 31 10 c 0,75,76
 92 74 92 74 157 154 c 2,77,-1
 167 166 l 1,78,-1
 49 166 l 1,79,-1
 62 193 l 1,80,-1
 188 193 l 1,81,82
 231 250 231 250 272 311 c 1,83,84
 224 313 224 313 198 312 c 0,85,86
 138 310 138 310 95 305 c 0,87,88
 84 303 84 303 78 302 c 0,89,90
 69 299 69 299 61 293 c 0,91,92
 46 283 46 283 38 268 c 2,93,-1
 34 261 l 1,94,-1
 33 259 l 2,95,96
 32 257 32 257 31 257 c 0,97,98
 29 255 29 255 28 255 c 0,99,100
 24 255 24 255 24 256 c 0,101,102
 21 259 21 259 21 260 c 128,-1,103
 21 261 21 261 21.5 262.5 c 128,-1,104
 22 264 22 264 22 265 c 0,105,106
 22 268 22 268 24 269 c 0,107,108
 32 282 32 282 35 296 c 0,109,110
 41 311 41 311 43 329 c 0,111,112
 43 331 43 331 44 332 c 2,113,-1
 47 335 l 2,114,115
 48 336 48 336 50 336 c 0,116,117
 51 336 51 336 53 335 c 0,118,119
 66 333 66 333 95 331 c 0,120,121
 148 327 148 327 225 329 c 0,122,123
 274 330 274 330 356 334 c 1,124,-1
 358 334 l 1,125,-1
 360 334 l 2,126,127
 361 334 361 334 361 333 c 2,128,-1
 362 332 l 1,129,-1
 362 331 l 2,130,131
 362 328 362 328 361 327 c 2,132,-1
 360 326 l 2,133,134
 359 325 359 325 359 324 c 2,135,-1
 301 252 l 1,136,-1
 250 193 l 1,137,-1
 351 193 l 1,138,-1
 336 166 l 1,139,-1
 227 166 l 1,140,-1
 211 147 l 2,141,142
 162 89 162 89 117 23 c 1,27,28
EndSplineSet
EndChar
StartChar: florin
Encoding: 402 402 314
Width: 524
Flags: W
LayerCount: 2
Fore
SplineSet
175 367 m 2,0,1
 176 367 176 367 194 365.5 c 128,-1,2
 212 364 212 364 222.5 365.5 c 128,-1,3
 233 367 233 367 239 372 c 0,4,5
 249 381 249 381 255.5 414 c 128,-1,6
 262 447 262 447 264 452 c 0,7,8
 293 533 293 533 360 571 c 0,9,10
 405 598 405 598 442 592 c 0,11,12
 454 590 454 590 462 581 c 128,-1,13
 470 572 470 572 466 560 c 0,14,15
 460 545 460 545 436.5 541 c 128,-1,16
 413 537 413 537 391.5 539.5 c 128,-1,17
 370 542 370 542 352 533 c 0,18,19
 299 502 299 502 294 370 c 1,20,-1
 401 370 l 1,21,-1
 393 344 l 2,22,23
 389 344 389 344 362.5 346.5 c 128,-1,24
 336 349 336 349 317.5 347.5 c 128,-1,25
 299 346 299 346 292 338 c 0,26,27
 289 335 289 335 286.5 329.5 c 128,-1,28
 284 324 284 324 283.5 319 c 128,-1,29
 283 314 283 314 282.5 306.5 c 128,-1,30
 282 299 282 299 281 296 c 2,31,-1
 272 236 l 2,32,33
 267 197 267 197 266 188 c 0,34,35
 265 182 265 182 262 169 c 0,36,37
 254 115 254 115 248.5 85 c 128,-1,38
 243 55 243 55 230.5 9.5 c 128,-1,39
 218 -36 218 -36 199 -71 c 128,-1,40
 180 -106 180 -106 152 -134 c 0,41,42
 81 -208 81 -208 4 -216 c 0,43,44
 -3 -217 -3 -217 -15 -216.5 c 128,-1,45
 -27 -216 -27 -216 -37.5 -214 c 128,-1,46
 -48 -212 -48 -212 -54.5 -205 c 128,-1,47
 -61 -198 -61 -198 -57 -186 c 0,48,49
 -50 -167 -50 -167 -15 -168 c 0,50,51
 -7 -168 -7 -168 9.5 -168.5 c 128,-1,52
 26 -169 26 -169 34 -169 c 128,-1,53
 42 -169 42 -169 54.5 -167.5 c 128,-1,54
 67 -166 67 -166 78 -162 c 128,-1,55
 89 -158 89 -158 100 -151 c 0,56,57
 121 -138 121 -138 137 -116.5 c 128,-1,58
 153 -95 153 -95 162.5 -75.5 c 128,-1,59
 172 -56 172 -56 180 -25 c 128,-1,60
 188 6 188 6 191.5 23.5 c 128,-1,61
 195 41 195 41 200 73 c 0,62,63
 201 81 201 81 202 85 c 0,64,65
 203 95 203 95 216 194.5 c 128,-1,66
 229 294 229 294 241 344 c 1,67,-1
 171 344 l 1,68,-1
 175 367 l 2,0,1
EndSplineSet
EndChar
StartChar: uni01C1
Encoding: 449 449 316
Width: 364
Flags: W
LayerCount: 2
Fore
SplineSet
124 -116 m 1,0,-1
 79 -116 l 1,1,-1
 79 496 l 1,2,-1
 124 496 l 1,3,-1
 124 -116 l 1,0,-1
306 -116 m 1,4,-1
 261 -116 l 1,5,-1
 261 496 l 1,6,-1
 306 496 l 1,7,-1
 306 -116 l 1,4,-1
EndSplineSet
EndChar
StartChar: uni0237
Encoding: 567 567 317
Width: 226
Flags: W
LayerCount: 2
Fore
SplineSet
106 317 m 0,0,1
 135 336 135 336 152 352 c 0,2,3
 153 353 153 353 154 353 c 128,-1,4
 155 353 155 353 157 354 c 2,5,-1
 158 354 l 2,6,7
 159 353 159 353 160 353 c 128,-1,8
 161 353 161 353 162 352 c 2,9,-1
 164 349 l 2,10,11
 166 347 166 347 166 346 c 2,12,-1
 166 343 l 2,13,14
 166 342 166 342 165.5 341 c 128,-1,15
 165 340 165 340 165 339 c 0,16,17
 156 317 156 317 156 285 c 0,18,19
 155 259 155 259 155 204 c 128,-1,20
 155 149 155 149 154 123 c 0,21,22
 152 -40 152 -40 152 -121 c 0,23,24
 152 -135 152 -135 149 -142 c 0,25,26
 148 -145 148 -145 138 -160 c 0,27,28
 120 -185 120 -185 104 -200 c 0,29,30
 95 -209 95 -209 77 -224 c 0,31,32
 51 -245 51 -245 49 -247 c 0,33,34
 39 -260 39 -260 36 -276 c 0,35,36
 36 -278 36 -278 35 -279 c 0,37,38
 33 -281 33 -281 32 -281 c 2,39,-1
 29 -281 l 2,40,41
 28 -281 28 -281 26 -280 c 0,42,43
 25 -279 25 -279 24 -279 c 2,44,-1
 22 -277 l 2,45,46
 21 -276 21 -276 21 -275 c 2,47,-1
 21 -274 l 1,48,-1
 20 -272 l 1,49,50
 21 -263 21 -263 26 -247 c 0,51,52
 32 -231 32 -231 45 -212 c 0,53,54
 49 -206 49 -206 57 -195 c 128,-1,55
 65 -184 65 -184 69 -179 c 0,56,57
 85 -155 85 -155 92 -131 c 0,58,59
 98 -110 98 -110 99 -78 c 0,60,61
 104 4 104 4 104 69 c 0,62,63
 104 130 104 130 99 208 c 0,64,65
 97 231 97 231 95 240 c 0,66,67
 93 251 93 251 92 255 c 0,68,69
 89 263 89 263 84 268 c 0,70,71
 78 274 78 274 70 275 c 0,72,73
 64 276 64 276 55 274 c 2,74,-1
 45 272 l 1,75,-1
 44 272 l 2,76,77
 43 271 43 271 42.5 271 c 128,-1,78
 42 271 42 271 41 271.5 c 128,-1,79
 40 272 40 272 39 272 c 2,80,-1
 37 274 l 2,81,82
 35 276 35 276 35 277 c 128,-1,83
 35 278 35 278 36 280 c 0,84,85
 36 281 36 281 38 283 c 2,86,-1
 43 285 l 2,87,88
 76 299 76 299 106 317 c 0,0,1
EndSplineSet
EndChar
StartChar: ogonek
Encoding: 731 731 327
Width: 316
Flags: W
LayerCount: 2
Fore
SplineSet
241 -190 m 1,0,1
 209 -207 209 -207 181 -209 c 0,2,3
 146 -210 146 -210 121 -194 c 128,-1,4
 96 -178 96 -178 87 -153 c 128,-1,5
 78 -128 78 -128 82.5 -97.5 c 128,-1,6
 87 -67 87 -67 107 -42 c 0,7,8
 123 -20 123 -20 138 -8.5 c 128,-1,9
 153 3 153 3 175 3 c 1,10,11
 171 -3 171 -3 157.5 -20 c 128,-1,12
 144 -37 144 -37 137.5 -49 c 128,-1,13
 131 -61 131 -61 128 -75 c 0,14,15
 117 -127 117 -127 150 -156.5 c 128,-1,16
 183 -186 183 -186 234 -175 c 1,17,-1
 241 -190 l 1,0,1
EndSplineSet
EndChar
StartChar: tilde
Encoding: 732 732 328
Width: 316
Flags: W
LayerCount: 2
Fore
SplineSet
33 429 m 1,0,1
 34 452 34 452 42 474 c 0,2,3
 51 497 51 497 63.5 508.5 c 128,-1,4
 76 520 76 520 89 521.5 c 128,-1,5
 102 523 102 523 120 518 c 128,-1,6
 138 513 138 513 151 506 c 2,7,-1
 183 490 l 1,8,-1
 212 476 l 2,9,10
 236 466 236 466 253.5 481 c 128,-1,11
 271 496 271 496 275 522 c 1,12,-1
 294 522 l 1,13,14
 293 496 293 496 285 478 c 0,15,16
 276 456 276 456 263.5 444.5 c 128,-1,17
 251 433 251 433 237.5 431 c 128,-1,18
 224 429 224 429 205.5 433.5 c 128,-1,19
 187 438 187 438 174 444 c 2,20,-1
 141 460 l 2,21,22
 122 469 122 469 111 473 c 0,23,24
 88 483 88 483 71 468.5 c 128,-1,25
 54 454 54 454 52 429 c 1,26,-1
 33 429 l 1,0,1
EndSplineSet
EndChar
StartChar: endash
Encoding: 8211 8211 333
Width: 475
Flags: W
LayerCount: 2
Fore
SplineSet
-8 203 m 1,0,-1
 483 203 l 1,1,-1
 483 151 l 1,2,-1
 -8 151 l 1,3,-1
 -8 203 l 1,0,-1
EndSplineSet
EndChar
StartChar: quoteright
Encoding: 8217 8217 336
Width: 188
Flags: W
LayerCount: 2
Fore
SplineSet
26 433 m 1,0,-1
 33 423 l 1,1,-1
 26 433 l 1,0,-1
26 437 m 1,2,3
 106 483 106 483 82 530 c 0,4,5
 80 534 80 534 64.5 548.5 c 128,-1,6
 49 563 49 563 50 574 c 0,7,8
 50 580 50 580 53 584 c 128,-1,9
 56 588 56 588 62 593.5 c 128,-1,10
 68 599 68 599 70 600 c 0,11,12
 72 602 72 602 80 616 c 128,-1,13
 88 630 88 630 94 633 c 0,14,15
 103 638 103 638 123 616.5 c 128,-1,16
 143 595 143 595 144 585 c 0,17,18
 151 557 151 557 130 514 c 0,19,20
 110 470 110 470 86 450 c 0,21,22
 76 441 76 441 71 438 c 128,-1,23
 66 435 66 435 56 430 c 128,-1,24
 46 425 46 425 39 426.5 c 128,-1,25
 32 428 32 428 26 437 c 1,2,3
EndSplineSet
EndChar
StartChar: daggerdbl
Encoding: 8225 8225 342
Width: 336
Flags: W
LayerCount: 2
Fore
SplineSet
115 630 m 1,0,-1
 222 630 l 1,1,-1
 187 563 l 1,2,-1
 193 507 l 1,3,-1
 179 429 l 1,4,-1
 296 474 l 1,5,-1
 294 370 l 1,6,7
 283 375 283 375 259 387.5 c 128,-1,8
 235 400 235 400 217.5 405 c 128,-1,9
 200 410 200 410 179 411 c 1,10,-1
 202 341 l 1,11,-1
 181 215 l 1,12,-1
 189 96 l 1,13,-1
 202 32 l 1,14,-1
 179 -42 l 1,15,-1
 296 -1 l 1,16,-1
 300 -104 l 1,17,-1
 179 -60 l 1,18,-1
 193 -134 l 1,19,-1
 187 -194 l 1,20,-1
 222 -260 l 1,21,-1
 115 -260 l 1,22,-1
 150 -194 l 1,23,-1
 144 -142 l 1,24,-1
 160 -60 l 1,25,-1
 41 -104 l 1,26,-1
 41 -1 l 1,27,-1
 160 -42 l 1,28,-1
 135 32 l 1,29,-1
 156 159 l 1,30,-1
 148 274 l 1,31,-1
 135 341 l 1,32,-1
 160 411 l 1,33,-1
 41 370 l 1,34,-1
 37 474 l 1,35,-1
 160 429 l 1,36,-1
 144 511 l 1,37,-1
 150 563 l 1,38,-1
 115 630 l 1,0,-1
EndSplineSet
EndChar
StartChar: bullet
Encoding: 8226 8226 343
Width: 356
Flags: W
LayerCount: 2
Fore
SplineSet
160 458 m 0,0,1
 197 465 197 465 227.5 451.5 c 128,-1,2
 258 438 258 438 275.5 413.5 c 128,-1,3
 293 389 293 389 298.5 357 c 128,-1,4
 304 325 304 325 297 295.5 c 128,-1,5
 290 266 290 266 265.5 243 c 128,-1,6
 241 220 241 220 204 213 c 0,7,8
 171 207 171 207 143 215.5 c 128,-1,9
 115 224 115 224 97.5 243 c 128,-1,10
 80 262 80 262 69 287.5 c 128,-1,11
 58 313 58 313 59.5 340 c 128,-1,12
 61 367 61 367 70 391 c 128,-1,13
 79 415 79 415 103 433 c 128,-1,14
 127 451 127 451 160 458 c 0,0,1
EndSplineSet
EndChar
StartChar: perthousand
Encoding: 8240 8240 345
Width: 1078
Flags: W
LayerCount: 2
Fore
SplineSet
534 272 m 0,0,1
 482 259 482 259 468 185 c 0,2,3
 456 113 456 113 488 53 c 0,4,5
 521 -9 521 -9 579 5 c 0,6,7
 610 13 610 13 627 39 c 128,-1,8
 644 65 644 65 646 98.5 c 128,-1,9
 648 132 648 132 642 165.5 c 128,-1,10
 636 199 636 199 625 222 c 0,11,12
 612 249 612 249 587 264 c 128,-1,13
 562 279 562 279 534 272 c 0,0,1
872 272 m 0,14,15
 819 260 819 260 806 186 c 0,16,17
 794 114 794 114 826 54 c 0,18,19
 859 -8 859 -8 917 6 c 0,20,21
 970 18 970 18 983 91 c 0,22,23
 995 162 995 162 964 222 c 0,24,25
 930 286 930 286 872 272 c 0,14,15
538 294 m 0,26,27
 625 309 625 309 672 238 c 0,28,29
 711 177 711 177 695 100 c 0,30,31
 679 19 679 19 612 -9 c 0,32,33
 599 -15 599 -15 582 -17 c 0,34,35
 493 -33 493 -33 446 38 c 0,36,37
 406 98 406 98 421 175 c 0,38,39
 437 256 437 256 505 285 c 0,40,41
 521 291 521 291 538 294 c 0,26,27
876 294 m 0,42,43
 962 309 962 309 1009 238 c 0,44,45
 1049 177 1049 177 1033 100 c 0,46,47
 1017 19 1017 19 950 -9 c 0,48,49
 936 -15 936 -15 921 -17 c 0,50,51
 832 -33 832 -33 784 38 c 0,52,53
 743 98 743 98 758 175 c 0,54,55
 774 256 774 256 843 285 c 0,56,57
 859 291 859 291 876 294 c 0,42,43
167 587 m 0,58,59
 135 579 135 579 116.5 546.5 c 128,-1,60
 98 514 98 514 98.5 474 c 128,-1,61
 99 434 99 434 110 397 c 128,-1,62
 121 360 121 360 149 338 c 128,-1,63
 177 316 177 316 212 325 c 0,64,65
 264 336 264 336 277 408 c 0,66,67
 290 478 290 478 258 539 c 0,68,69
 225 601 225 601 167 587 c 0,58,59
171 610 m 0,70,71
 257 625 257 625 304 555 c 0,72,73
 344 494 344 494 328 418 c 0,74,75
 312 338 312 338 245 311 c 0,76,77
 231 305 231 305 216 302 c 0,78,79
 126 286 126 286 78 356 c 0,80,81
 38 416 38 416 53 492 c 0,82,83
 70 571 70 571 138 600 c 0,84,85
 153 607 153 607 171 610 c 0,70,71
134 -42 m 1,86,-1
 440 456 l 1,87,-1
 504 571 l 1,88,-1
 536 619 l 1,89,-1
 582 630 l 1,90,-1
 445 406 l 1,91,-1
 267 110 l 2,92,93
 262 101 262 101 250 76 c 128,-1,94
 238 51 238 51 228 33 c 128,-1,95
 218 15 218 15 203 -5.5 c 128,-1,96
 188 -26 188 -26 170.5 -35.5 c 128,-1,97
 153 -45 153 -45 134 -42 c 1,86,-1
EndSplineSet
EndChar
StartChar: guilsinglright
Encoding: 8250 8250 347
Width: 237
Flags: W
LayerCount: 2
Fore
SplineSet
26 359 m 1,0,1
 36 356 36 356 45.5 349.5 c 128,-1,2
 55 343 55 343 60 338.5 c 128,-1,3
 65 334 65 334 76 321.5 c 128,-1,4
 87 309 87 309 88 307 c 2,5,-1
 208 178 l 1,6,-1
 208 174 l 1,7,8
 143 108 143 108 90 48 c 0,9,10
 88 45 88 45 80 36 c 2,11,-1
 68 21 l 2,12,13
 64 16 64 16 56 9.5 c 128,-1,14
 48 3 48 3 41 -0.5 c 128,-1,15
 34 -4 34 -4 26 -5 c 1,16,-1
 92 125 l 1,17,-1
 115 178 l 1,18,-1
 90 229 l 1,19,-1
 26 359 l 1,0,1
EndSplineSet
Substitution2: "'rtla' Right to Left Alternates lookup 0 subtable" guilsinglleft
EndChar
